<mxfile host="Electron" modified="2024-03-07T13:12:17.832Z" agent="Mozilla/5.0 (X11; Linux x86_64) AppleWebKit/537.36 (KHTML, like Gecko) draw.io/21.1.2 Chrome/106.0.5249.199 Electron/21.4.3 Safari/537.36" etag="MqqPAACYoP8SpOHu3len" version="21.1.2" type="device">
  <diagram name="Page-1" id="PkXv3_DUERPbmj_l_p0j">
    <mxGraphModel dx="1342" dy="950" grid="1" gridSize="10" guides="1" tooltips="1" connect="1" arrows="1" fold="1" page="1" pageScale="1" pageWidth="2339" pageHeight="3300" math="1" shadow="0">
      <root>
        <mxCell id="0" />
        <mxCell id="1" parent="0" />
        <mxCell id="VbF63WBLG-6_UuNDwzdS-2" value="Q" style="rounded=1;whiteSpace=wrap;html=1;fontSize=22;strokeWidth=2;fillColor=#009682;fontColor=#FFFFFF;" parent="1" vertex="1">
          <mxGeometry x="560" y="270" width="70" height="80" as="geometry" />
        </mxCell>
        <mxCell id="VbF63WBLG-6_UuNDwzdS-30" style="edgeStyle=orthogonalEdgeStyle;shape=connector;rounded=1;orthogonalLoop=1;jettySize=auto;html=1;exitX=1;exitY=0.5;exitDx=0;exitDy=0;entryX=0;entryY=0.5;entryDx=0;entryDy=0;labelBackgroundColor=default;strokeColor=default;strokeWidth=2;fontFamily=Helvetica;fontSize=11;fontColor=default;endArrow=classic;" parent="1" source="VbF63WBLG-6_UuNDwzdS-3" target="VbF63WBLG-6_UuNDwzdS-27" edge="1">
          <mxGeometry relative="1" as="geometry">
            <Array as="points">
              <mxPoint x="910" y="310" />
              <mxPoint x="910" y="360" />
            </Array>
          </mxGeometry>
        </mxCell>
        <mxCell id="VbF63WBLG-6_UuNDwzdS-3" value="C" style="rounded=1;whiteSpace=wrap;html=1;fontSize=22;strokeWidth=2;fillColor=#009682;fontColor=#FFFFFF;" parent="1" vertex="1">
          <mxGeometry x="760" y="270" width="70" height="80" as="geometry" />
        </mxCell>
        <mxCell id="VbF63WBLG-6_UuNDwzdS-17" value="\(\hat p\)" style="edgeStyle=orthogonalEdgeStyle;rounded=0;orthogonalLoop=1;jettySize=auto;html=1;exitX=1;exitY=0.25;exitDx=0;exitDy=0;entryX=0;entryY=0.25;entryDx=0;entryDy=0;strokeWidth=2;fontSize=15;" parent="1" source="VbF63WBLG-6_UuNDwzdS-4" target="VbF63WBLG-6_UuNDwzdS-5" edge="1">
          <mxGeometry x="-0.0769" y="20" relative="1" as="geometry">
            <mxPoint as="offset" />
          </mxGeometry>
        </mxCell>
        <mxCell id="VbF63WBLG-6_UuNDwzdS-4" value="C" style="rounded=1;whiteSpace=wrap;html=1;fontSize=22;strokeWidth=2;fillColor=#009682;fontColor=#FFFFFF;" parent="1" vertex="1">
          <mxGeometry x="560" y="170" width="70" height="80" as="geometry" />
        </mxCell>
        <mxCell id="VbF63WBLG-6_UuNDwzdS-28" style="edgeStyle=orthogonalEdgeStyle;shape=connector;rounded=1;orthogonalLoop=1;jettySize=auto;html=1;exitX=1;exitY=0.5;exitDx=0;exitDy=0;entryX=0;entryY=0.5;entryDx=0;entryDy=0;labelBackgroundColor=default;strokeColor=default;strokeWidth=2;fontFamily=Helvetica;fontSize=11;fontColor=default;endArrow=classic;" parent="1" source="VbF63WBLG-6_UuNDwzdS-5" target="VbF63WBLG-6_UuNDwzdS-27" edge="1">
          <mxGeometry relative="1" as="geometry" />
        </mxCell>
        <mxCell id="VbF63WBLG-6_UuNDwzdS-5" value="C" style="rounded=1;whiteSpace=wrap;html=1;fontSize=22;strokeWidth=2;fillColor=#009682;fontColor=#FFFFFF;" parent="1" vertex="1">
          <mxGeometry x="760" y="170" width="70" height="80" as="geometry" />
        </mxCell>
        <mxCell id="VbF63WBLG-6_UuNDwzdS-6" value="C" style="rounded=1;whiteSpace=wrap;html=1;fontSize=22;strokeWidth=2;fillColor=#009682;fontColor=#FFFFFF;" parent="1" vertex="1">
          <mxGeometry x="560" y="370" width="70" height="80" as="geometry" />
        </mxCell>
        <mxCell id="VbF63WBLG-6_UuNDwzdS-31" style="edgeStyle=orthogonalEdgeStyle;shape=connector;rounded=1;orthogonalLoop=1;jettySize=auto;html=1;exitX=1;exitY=0.5;exitDx=0;exitDy=0;entryX=0;entryY=0.5;entryDx=0;entryDy=0;labelBackgroundColor=default;strokeColor=default;strokeWidth=2;fontFamily=Helvetica;fontSize=11;fontColor=default;endArrow=classic;" parent="1" source="VbF63WBLG-6_UuNDwzdS-7" target="VbF63WBLG-6_UuNDwzdS-27" edge="1">
          <mxGeometry relative="1" as="geometry">
            <Array as="points">
              <mxPoint x="910" y="410" />
              <mxPoint x="910" y="360" />
            </Array>
          </mxGeometry>
        </mxCell>
        <mxCell id="VbF63WBLG-6_UuNDwzdS-7" value="Q" style="rounded=1;whiteSpace=wrap;html=1;fontSize=22;strokeWidth=2;fillColor=#009682;fontColor=#FFFFFF;" parent="1" vertex="1">
          <mxGeometry x="760" y="370" width="70" height="80" as="geometry" />
        </mxCell>
        <mxCell id="VbF63WBLG-6_UuNDwzdS-8" value="Q" style="rounded=1;whiteSpace=wrap;html=1;fontSize=22;strokeWidth=2;fillColor=#009682;fontColor=#FFFFFF;" parent="1" vertex="1">
          <mxGeometry x="560" y="470" width="70" height="80" as="geometry" />
        </mxCell>
        <mxCell id="VbF63WBLG-6_UuNDwzdS-32" style="edgeStyle=orthogonalEdgeStyle;shape=connector;rounded=1;orthogonalLoop=1;jettySize=auto;html=1;exitX=1;exitY=0.5;exitDx=0;exitDy=0;entryX=0;entryY=0.5;entryDx=0;entryDy=0;labelBackgroundColor=default;strokeColor=default;strokeWidth=2;fontFamily=Helvetica;fontSize=11;fontColor=default;endArrow=classic;" parent="1" source="VbF63WBLG-6_UuNDwzdS-9" target="VbF63WBLG-6_UuNDwzdS-27" edge="1">
          <mxGeometry relative="1" as="geometry" />
        </mxCell>
        <mxCell id="VbF63WBLG-6_UuNDwzdS-9" value="Q" style="rounded=1;whiteSpace=wrap;html=1;fontSize=22;strokeWidth=2;fillColor=#009682;fontColor=#FFFFFF;" parent="1" vertex="1">
          <mxGeometry x="760" y="470" width="70" height="80" as="geometry" />
        </mxCell>
        <mxCell id="VbF63WBLG-6_UuNDwzdS-10" value="Data" style="text;html=1;strokeColor=none;fillColor=none;align=center;verticalAlign=middle;whiteSpace=wrap;rounded=0;fontSize=15;" parent="1" vertex="1">
          <mxGeometry x="540" y="90" width="110" height="40" as="geometry" />
        </mxCell>
        <mxCell id="VbF63WBLG-6_UuNDwzdS-11" value="Generative&lt;br&gt;Algorithm" style="text;html=1;strokeColor=none;fillColor=none;align=center;verticalAlign=middle;whiteSpace=wrap;rounded=0;fontSize=15;" parent="1" vertex="1">
          <mxGeometry x="740" y="90" width="110" height="40" as="geometry" />
        </mxCell>
        <mxCell id="VbF63WBLG-6_UuNDwzdS-12" value="&lt;span style=&quot;color: rgb(0, 0, 0); font-family: Helvetica; font-size: 15px; font-style: normal; font-variant-ligatures: normal; font-variant-caps: normal; font-weight: 400; letter-spacing: normal; orphans: 2; text-align: center; text-indent: 0px; text-transform: none; widows: 2; word-spacing: 0px; -webkit-text-stroke-width: 0px; background-color: rgb(251, 251, 251); text-decoration-thickness: initial; text-decoration-style: initial; text-decoration-color: initial; float: none; display: inline !important;&quot;&gt;\(x, y\)&lt;/span&gt;" style="endArrow=classic;html=1;rounded=1;entryX=0;entryY=0.75;entryDx=0;entryDy=0;strokeWidth=2;edgeStyle=orthogonalEdgeStyle;exitX=0;exitY=0.5;exitDx=0;exitDy=0;exitPerimeter=0;fontSize=22;fillColor=#009682;fontColor=#FFFFFF;" parent="1" source="VbF63WBLG-6_UuNDwzdS-36" target="VbF63WBLG-6_UuNDwzdS-9" edge="1">
          <mxGeometry x="-0.6154" y="-20" width="50" height="50" relative="1" as="geometry">
            <mxPoint x="730" y="610" as="sourcePoint" />
            <mxPoint x="810" y="630" as="targetPoint" />
            <Array as="points">
              <mxPoint x="730" y="630" />
              <mxPoint x="730" y="530" />
            </Array>
            <mxPoint as="offset" />
          </mxGeometry>
        </mxCell>
        <mxCell id="VbF63WBLG-6_UuNDwzdS-14" value="" style="endArrow=classic;html=1;rounded=1;entryX=0;entryY=0.75;entryDx=0;entryDy=0;strokeWidth=2;edgeStyle=orthogonalEdgeStyle;fontSize=22;fillColor=#009682;fontColor=#FFFFFF;" parent="1" edge="1">
          <mxGeometry width="50" height="50" relative="1" as="geometry">
            <mxPoint x="730" y="540" as="sourcePoint" />
            <mxPoint x="760" y="430" as="targetPoint" />
            <Array as="points">
              <mxPoint x="730" y="430" />
            </Array>
          </mxGeometry>
        </mxCell>
        <mxCell id="VbF63WBLG-6_UuNDwzdS-15" value="" style="endArrow=classic;html=1;rounded=1;entryX=0;entryY=0.75;entryDx=0;entryDy=0;strokeWidth=2;edgeStyle=orthogonalEdgeStyle;fontSize=22;fillColor=#009682;fontColor=#FFFFFF;" parent="1" edge="1">
          <mxGeometry width="50" height="50" relative="1" as="geometry">
            <mxPoint x="730" y="440" as="sourcePoint" />
            <mxPoint x="760" y="330" as="targetPoint" />
            <Array as="points">
              <mxPoint x="730" y="330" />
            </Array>
          </mxGeometry>
        </mxCell>
        <mxCell id="VbF63WBLG-6_UuNDwzdS-16" value="" style="endArrow=classic;html=1;rounded=1;entryX=0;entryY=0.75;entryDx=0;entryDy=0;strokeWidth=2;edgeStyle=orthogonalEdgeStyle;fontSize=22;fillColor=#009682;fontColor=#FFFFFF;" parent="1" edge="1">
          <mxGeometry width="50" height="50" relative="1" as="geometry">
            <mxPoint x="730" y="340" as="sourcePoint" />
            <mxPoint x="760" y="230" as="targetPoint" />
            <Array as="points">
              <mxPoint x="730" y="230" />
            </Array>
          </mxGeometry>
        </mxCell>
        <mxCell id="VbF63WBLG-6_UuNDwzdS-22" value="\(\hat p\)" style="edgeStyle=orthogonalEdgeStyle;rounded=0;orthogonalLoop=1;jettySize=auto;html=1;exitX=1;exitY=0.25;exitDx=0;exitDy=0;entryX=0;entryY=0.25;entryDx=0;entryDy=0;strokeWidth=2;fontSize=15;" parent="1" edge="1">
          <mxGeometry x="-0.0769" y="20" relative="1" as="geometry">
            <mxPoint x="630" y="290" as="sourcePoint" />
            <mxPoint x="760" y="290" as="targetPoint" />
            <mxPoint as="offset" />
          </mxGeometry>
        </mxCell>
        <mxCell id="VbF63WBLG-6_UuNDwzdS-23" value="\(\hat p\)" style="edgeStyle=orthogonalEdgeStyle;rounded=0;orthogonalLoop=1;jettySize=auto;html=1;exitX=1;exitY=0.25;exitDx=0;exitDy=0;entryX=0;entryY=0.25;entryDx=0;entryDy=0;strokeWidth=2;fontSize=15;" parent="1" edge="1">
          <mxGeometry x="-0.0769" y="20" relative="1" as="geometry">
            <mxPoint x="630" y="390" as="sourcePoint" />
            <mxPoint x="760" y="390" as="targetPoint" />
            <mxPoint as="offset" />
          </mxGeometry>
        </mxCell>
        <mxCell id="VbF63WBLG-6_UuNDwzdS-24" value="\(\hat p\)" style="edgeStyle=orthogonalEdgeStyle;rounded=0;orthogonalLoop=1;jettySize=auto;html=1;exitX=1;exitY=0.25;exitDx=0;exitDy=0;entryX=0;entryY=0.25;entryDx=0;entryDy=0;strokeWidth=2;fontSize=15;" parent="1" edge="1">
          <mxGeometry x="-0.0769" y="20" relative="1" as="geometry">
            <mxPoint x="630" y="490" as="sourcePoint" />
            <mxPoint x="760" y="490" as="targetPoint" />
            <mxPoint as="offset" />
          </mxGeometry>
        </mxCell>
        <mxCell id="VbF63WBLG-6_UuNDwzdS-39" style="edgeStyle=orthogonalEdgeStyle;shape=connector;rounded=1;orthogonalLoop=1;jettySize=auto;html=1;exitX=1;exitY=0.5;exitDx=0;exitDy=0;entryX=0;entryY=0.5;entryDx=0;entryDy=0;labelBackgroundColor=default;strokeColor=default;strokeWidth=2;fontFamily=Helvetica;fontSize=11;fontColor=default;endArrow=classic;" parent="1" source="VbF63WBLG-6_UuNDwzdS-26" target="VbF63WBLG-6_UuNDwzdS-34" edge="1">
          <mxGeometry relative="1" as="geometry" />
        </mxCell>
        <mxCell id="VbF63WBLG-6_UuNDwzdS-41" style="edgeStyle=orthogonalEdgeStyle;shape=connector;rounded=1;orthogonalLoop=1;jettySize=auto;html=1;exitX=1;exitY=0.5;exitDx=0;exitDy=0;entryX=0;entryY=0.5;entryDx=0;entryDy=0;labelBackgroundColor=default;strokeColor=default;strokeWidth=2;fontFamily=Helvetica;fontSize=11;fontColor=default;endArrow=classic;dashed=1;" parent="1" source="VbF63WBLG-6_UuNDwzdS-26" target="VbF63WBLG-6_UuNDwzdS-40" edge="1">
          <mxGeometry relative="1" as="geometry" />
        </mxCell>
        <mxCell id="VbF63WBLG-6_UuNDwzdS-26" value="Discriminator&lt;br&gt;Model" style="rounded=1;whiteSpace=wrap;html=1;fontSize=16;strokeWidth=2;fillColor=#009682;fontColor=#FFFFFF;fontFamily=Helvetica;" parent="1" vertex="1">
          <mxGeometry x="1200" y="410" width="140" height="160" as="geometry" />
        </mxCell>
        <mxCell id="VbF63WBLG-6_UuNDwzdS-33" style="edgeStyle=orthogonalEdgeStyle;shape=connector;rounded=1;orthogonalLoop=1;jettySize=auto;html=1;exitX=1;exitY=0.5;exitDx=0;exitDy=0;entryX=0;entryY=0.25;entryDx=0;entryDy=0;labelBackgroundColor=default;strokeColor=default;strokeWidth=2;fontFamily=Helvetica;fontSize=11;fontColor=default;endArrow=classic;" parent="1" source="VbF63WBLG-6_UuNDwzdS-27" target="VbF63WBLG-6_UuNDwzdS-26" edge="1">
          <mxGeometry relative="1" as="geometry" />
        </mxCell>
        <mxCell id="VbF63WBLG-6_UuNDwzdS-27" value="" style="rounded=1;whiteSpace=wrap;html=1;fontFamily=Helvetica;fontSize=11;fontColor=default;" parent="1" vertex="1">
          <mxGeometry x="1020" y="320" width="80" height="80" as="geometry" />
        </mxCell>
        <mxCell id="VbF63WBLG-6_UuNDwzdS-34" value="CC&lt;br style=&quot;font-size: 15px;&quot;&gt;QC&lt;br style=&quot;font-size: 15px;&quot;&gt;CQ&lt;br style=&quot;font-size: 15px;&quot;&gt;QQ" style="rounded=1;whiteSpace=wrap;html=1;fontFamily=Helvetica;fontSize=15;fontColor=#FFFFFF;fillColor=#A22223;" parent="1" vertex="1">
          <mxGeometry x="1430" y="384.25" width="80" height="110" as="geometry" />
        </mxCell>
        <mxCell id="VbF63WBLG-6_UuNDwzdS-38" style="edgeStyle=orthogonalEdgeStyle;shape=connector;rounded=1;orthogonalLoop=1;jettySize=auto;html=1;exitX=1;exitY=0.5;exitDx=0;exitDy=0;entryX=0;entryY=0.75;entryDx=0;entryDy=0;labelBackgroundColor=default;strokeColor=default;strokeWidth=2;fontFamily=Helvetica;fontSize=11;fontColor=default;endArrow=classic;dashed=1;" parent="1" source="VbF63WBLG-6_UuNDwzdS-35" target="VbF63WBLG-6_UuNDwzdS-26" edge="1">
          <mxGeometry relative="1" as="geometry" />
        </mxCell>
        <mxCell id="VbF63WBLG-6_UuNDwzdS-35" value="" style="rounded=1;whiteSpace=wrap;html=1;fontFamily=Helvetica;fontSize=11;fontColor=default;" parent="1" vertex="1">
          <mxGeometry x="1020" y="590" width="80" height="80" as="geometry" />
        </mxCell>
        <mxCell id="VbF63WBLG-6_UuNDwzdS-37" value="\(x, y, z\)" style="edgeStyle=orthogonalEdgeStyle;shape=connector;rounded=1;orthogonalLoop=1;jettySize=auto;html=1;entryX=0;entryY=0.5;entryDx=0;entryDy=0;labelBackgroundColor=default;strokeColor=default;strokeWidth=2;fontFamily=Helvetica;fontSize=15;fontColor=default;endArrow=classic;dashed=1;" parent="1" source="VbF63WBLG-6_UuNDwzdS-36" target="VbF63WBLG-6_UuNDwzdS-35" edge="1">
          <mxGeometry x="-0.1111" y="20" relative="1" as="geometry">
            <mxPoint as="offset" />
          </mxGeometry>
        </mxCell>
        <mxCell id="VbF63WBLG-6_UuNDwzdS-36" value="MNIST" style="shape=cylinder3;whiteSpace=wrap;html=1;boundedLbl=1;backgroundOutline=1;size=15;fontFamily=Helvetica;fontSize=16;fontColor=default;fillColor=#fce500;strokeWidth=2;" parent="1" vertex="1">
          <mxGeometry x="860" y="590" width="80" height="80" as="geometry" />
        </mxCell>
        <mxCell id="VbF63WBLG-6_UuNDwzdS-40" value="Real" style="rounded=1;whiteSpace=wrap;html=1;fontFamily=Helvetica;fontSize=16;fontColor=default;fillColor=#fce500;strokeWidth=2;" parent="1" vertex="1">
          <mxGeometry x="1430" y="514.25" width="80" height="60" as="geometry" />
        </mxCell>
        <mxCell id="VbF63WBLG-6_UuNDwzdS-44" value="" style="shape=curlyBracket;whiteSpace=wrap;html=1;rounded=1;labelPosition=left;verticalLabelPosition=middle;align=right;verticalAlign=middle;fontFamily=Helvetica;fontSize=11;fontColor=default;rotation=-90;" parent="1" vertex="1">
          <mxGeometry x="687.5" y="592.5" width="20" height="265" as="geometry" />
        </mxCell>
        <mxCell id="VbF63WBLG-6_UuNDwzdS-46" value="&lt;font color=&quot;#a22223&quot;&gt;Generator Models&lt;/font&gt;" style="text;html=1;strokeColor=none;fillColor=none;align=center;verticalAlign=middle;whiteSpace=wrap;rounded=0;fontSize=15;" parent="1" vertex="1">
          <mxGeometry x="642.5" y="730" width="110" height="40" as="geometry" />
        </mxCell>
        <mxCell id="VbF63WBLG-6_UuNDwzdS-47" value="" style="shape=image;verticalLabelPosition=bottom;labelBackgroundColor=default;verticalAlign=top;aspect=fixed;imageAspect=0;image=data:image/png,iVBORw0KGgoAAAANSUhEUgAAAPgAAAD3CAIAAAC/5Q6JAAAACXBIWXMAAA7EAAAOxAGVKw4bAAAgAElEQVR4nOy92ZIkyXYY5kssuVdlVXVX9/TePTOXIATDRtAMRpDQG0UzmR5E6o2mF7zSYFo+QtInyGT6BwkSDItEmigTNhMuQEAEcWfu3Nu1dGZX1pJLRGTG6ufowTOjPMLdo7Kqe+Ze3C4fs54sP3E29xMRHue4n0ODIJjP55wxJJVGCWWcgQAkNQghhDicCyF0AOccAQCAUKqQIoiEMopoIEUJ4ZznRUEVlHVD5I5TmECUUkoIIFJSlQ+RMUYIqcmwZuQ4eZ7Tej8lBBljAgARS+jmf5QzVgihMpK/OWOICIiU0HKUKKWIyDlHRAAgiKRKkHFe5DmhlFaHSDISACCAMqoyYpQRgmte19QoEuScAwAAVKlRJMgZFyDkmNRk4JwLABCCMlYZbc4B160ySkg450gQAGoDTglhnAshKKVEnWBEyphZIySMM0KIKIraOBBExjmlVAiBgCUWQUIo4ZwLIQghFfEQKaWMc1EIQpDUqDE22NnpdDr0v/nt/+rRZ4+Hw10AVHAJpWQ6nQ6He1VEQikRQgSLYLg3VAZwDVouV4jY63WrIKSUBkHg+X7L93XQbDbr9weOw0vQjYzSNE2SdGdnoOq8kWFJkHTrMhBKyWw2GwwGnHMdNJ3OhsOhrmwhRBgEw6FR2SUhpNs1KLtYBK2W71eVlYiz2WzPpFFRiDA0M0qSNEvTQV1ZyWjRarV937Mou8M5216GJEmzLB0MDKMaRUtGaafbMSlrkEFCZ7O5RdkiDKPhcFdnlCRplmWDQd+g7HzR7rQ9z6DsdDbb2dnh7FpZ+WydXU2ns9l/9z/89+S3/9W/iqIITe34+NjYj4inJyfG/sViMZ/PjaDz8/M0TY2gd6ent2WUZdlkMjHLMJ/bZDi1M2pU1ow1tzOaTCZZlt2akUW8NE3PJ+dmRmdneZ6bqVmGrkGGNEkuzs2M5vN5sFjcVoYGZd+dvjP2J0lycX5hBJ29PyuKwgg6sRnkfP7f/vZ/jYiO67pRFLVaLdRuoNVqVVs2yP4sy1arlRBCR1kulwDQ6/VUEAAwxpZRxDnf2dmpYAFQxlar1XK5VGVYM0pTG6MoipZRJPb3JfGaDIhYk6HUaLVa+b6/vbKpXQb5RLcp67pu7dEoEW3U0iRpVnZvf09VdsNo6fl+v294/q1WqziOPc/bXoYoiqIoGu7t6aMaRRFnrNPtmpQ1yCChNkZJHEuQkVEURcO9oUHZ5bLVbtlmNkkS13VrJhRFEXMYIcRBRM65XFPWkBljnHN97jnnEqSjyOtrIEmKcW5gtIaxGuhGRiWO/F2TATerZKNGH1FZIj9LTMrqWBKxgVoTSFN2w4g1DJGu7I0ycPuocg2rQYYS2qysmZFNWXYLZdU5IoQwSq4lu2/37We1sXs7v2+fQnMQpT8Q9NeBBOlvc3mxDUUHAQBZu8c0RtJdpcmwPSNJ/EYZVI0+orJSO7OyGpat/2ZGG5CqbAOjBmVvQDEx2mpmTco2aAQNjBqVbZ4+mwkRQhxKqO/7TPWnbprruuUSR22+77uua0bxPBCiBpJ/uq7rel4dawMyytDAyPM8CdKhrucioE2jj6qsW2qnKLTWyNOV3TAy9jePqq7sNox831ct70YZjIxKFLmw3l5ZxtiNypqmr0nZhunzfd/ISI6AI4ri+Oj44MEBIpbrdSRICR2PRr7vq4t42Z/n2Wg08jxf/qmCLi8vADBLMxUECIyy0ehdsAgGg0EFC4FSNhqNAND3rwmuGWWpjVEYBovFghIqiVdkuDhHJGlVBvl7NBoRRCNBm7JZlo5GY8/zdJSLi3NCSBqnBmXfvYvCsN+vKCsRx6NRy2/p1LI0Hb0fe66BURAEYRCUxKuMRsvlstfrG5WllLpVgs0yBMEiCkNEoo/q+fk5ZzRexSZlDTJIqI1Rmibv35+5rqszWgSLZRghokHZ0SiOV91uzzh9nDHHcSsmROnk7EwUghDiEEJ831t73KrIrucZ554y6nmeapclyPN9AKiBpJSe53m+hoVAKfM8z6+C1owosTFKM1+C9JHyfB8RzeJJHJOh25Qldhk83yeE2JX1ayCJ6FqoEYJ2Rp6ubAMjVVnPZOg2GTzPwKiUgTN2K2UBwaosgpWR5+W3V9b1PM/3Xc3Qfd+X4VWHOfzw0aPd3V2itflifnBwoPcDQBLH+wf7OogyCgBGUJKlO4NBr9fTQWEYPDw8dBynzkiIJEmM1Frtluu5ZhkoQUQjKAiDw8ND4xLFpqwQIk1SIzU51Pv7BlCcxsPdYbfb1UGLxcJITRRFmmVGkN/yfb9lBMXxam9/v9Pp6KAgWBweHhpf9DYZfN9rtdtGEBLkjA339m4pQ2CkVuR5lhdGkOd7YbtjBK1Wq4MHB+1226BRsDg8PDSs0zZbQhxKaRnWqi3wi6Iwfp/leV4GqGooeZ7L5X/tk4UxVhixAChjRVHkea47QRsYFUVR5IX8BKk5YtUonY6V5zlj7GMpSzafYpqyhY4lL26g1qhsXlN2zagoGqYvz3NjwOhWjK5nljGzsiYZJPRGZXVGNyprDG5KkB4wkoIR6XWhlEpYzdtfNqK0Wn8DSgmi1VbBsoOaGdkkrF2/jXgfoqzOSL/eSPNusqkS6p1bEtxGhtpQ2KhtKcPdGH24smqn4b123+7bz15jtXv9vt23n8n2kQNGsGm1lRwhBMHE6FsIGDVjfVxlyXcSMDKGV76NgBEAlNOkjwO9pbJ3CxgBbCT4uAEjKERDxMHooPB8ryGOo35DyLb29nuuAasx4lBGhYyy2SIO8vPLhnVrZe0yeJ5H7AGjBsmbQ2BGlIYYSgOW53ulh24bGVzXdT3rqHKtv1mGhoBRU7xvE1i8bXTM8319ceJ5Hl0HjED88OuvDw4O9Lvk6O1boj0MKKVZno9HI+PX9OXlFSCEQaB/m4/G436vX99QD0AZOz4+juNY3T27ZpRl4/HYyCgMw0UQZGmqf7ZfXl4iYlCVYa3R8XGaJDVHxA3KZtl4/B7R8BS5uLwkhMhd2jVl341GO4OBvnMVEY+OjuiGQoVRmo7PztD0uAqCMAzDNE10R8S7d+92p1PjztWjo6M0yzzFEXGjDEEQRFGUJIk+qucXF5yy/YO5QVmTDBJ6fHxsZJQmydnkHMCwTXcRBMtomSSxQdnTd/P5rFvdKix/vz06yvPcdZyaCU0mk3XAiHN+eHi4bzL0IAwfVn2Tsr/I8yxNHx4e6iiUMQCogaSUWZ4PBoP66RUAythyuTw8PPQ0Qy+yLMsyI6N2p+P5/sPDQ32k5IvMiBUtl4eHh67J0G3K5lmWZbmRmjzK8vDhQ13ZNMt2d3eNhh5GkZFanqZZURhBrXa71WrVlF0zStPh3p7R0KMoenR46JgM3SZDq9Vqt9vGUZVHBw8ePDAoa5JBQqPl0sgoS9JCgJGR32pF7ciobJKk+wf7RkMPo+jw8NDRDJ2Q9bE9h3He6/eNoY1ut2uM7xRF0e12jShxHAOAjZoNq9vtdns9uRKoMPI8GwoA5HlulqHXQ8QGRq7rGkFGZXO7DPL6uyhr6s9d1wYSQohC3G1U9TBcgwyiKGzT1+v1OGMfS1nXcWygoigQ7NNnZ9Tr9fTFZ6/XWy9dqDyIaloeyAMg+kNOCNGMUgPJ29EIkk90neCNjABAgvRHQoliFE8Iod73H6gssQSMjMrKixuo3UrZklEzQePBi7uNKtFGtUEGCb1RWZ3RhyirhgJVYyD3AaMPVFZnpF9vpHk32VQJ9c4tCW4jQ20obNS2lOFujD5cWbXzPmB03z6Jdh8wum+fRHNAWdGWvfJ3rbPW34Cig2qtgmUC3cjICL2zeHdWVkdULzbSvLNsurLG/maCd2PUgGWT4aMw+hBlsToFjhDAGNOXSoQQ3Z+v9ttQiLIElE1eXKJUsBgjmwPetTVZM6OSoPy3hoXKh8f2kn/byqpi30o2o7Jlz60INstANyjGUdWxGmTYZrSbGX2gsmW//OEIIb7+6itjwOjt0RFadq6OR2NjJPbq6goAjDGU8Xjc6/cHfUPA6OT4uJZuBTc+7PH4vZFRGEZBEKSm0MbV5SUiLqoyyN/Hx8eJluqkWdksy96P3wMYkpNcXl4SQhZzQwxlNBoPBoN+v+5aRsSj42P5nKlRy9L0/dkZmLKgBGEYBaExhjIajXaurox+9OOj4zRNXWPAyCJDEATLKJI+4tqoXlxcMMZms5lJWYMMEnp8cmJklCbpZDIRotAZBUGwjJZxvDJFx0az2dToRz86Os6yzBgwKvKcEOJ4rvv6zRujoQuA12/eGOfecZzXb97oKL1+HwAePXqkD4freoOdgTGBESHksydPjAmMHNc1MpIpI58/f66PlBzxw6oMuIl6PH361JjAyKZsmqau6xll6PZ6hJBDU3TMcd3d3V1jAiNANFJLk8T1fSNosVgEi+DZ82f63DuOM9zbMyYwQsRnz58b96PbZFjM52EQPq0ykqBOt8sZe2CKjhllkFAkxMgoiWO/1Xr95rXOaD6fR5oM8jfnzv7BvvGuBsQXL17o+9G73S53HCJPGH1XCYxMyYM2L6S7JDCyZ8DBn3gCo414upE1ULsRRD8sp89WMnB7XiFbAiOLsqUMW2qkyPAxExjJPx1UmjoW5P5j9P5jdAvxbDJ8FEYfoixWp8Ah24UwbP0NKOp9b8Wyg5oZ2SSsXb+NeB+irM5Iv95I826yqRLqnVsS3EaG2lDYqG0pw90Yfbiyaud9wOi+fRLNoZtDDLbXgXp181usAdT03tnuLVZjZITeWbw7K6sjqhcbad5ZNl1ZY38zwbsxasCyyfBRGH2IslidAgcKIRfstXcBIUTPzLTud3gDiv4+Kj/aDE7QDahGsKRmY1R+yqgb1kostPjRGwhalW1EIZofvUFZeXEDtVspyy1DVyHo1EHNMjSPKtc0apDhZtksjD5AWcdoQvKHUwgRLIKatxXXvuowCAKVqOwv8jwMwzAMDShBAADtdlsFSd9QGIZSjgoWAGUsDMMwCD3/2hG2ZpRlVkabpvun5LGPVlWGa6wgMO5HtymbN8gQBISQWvaFUlk5N1h1RCCijVqe3k7ZkpHccW7GWgTm/eh3GlXGmFf1zDbIIKE2RlmaWhmFYRRGNmU937PEVcJwseCaHz0IAnkMz0HAy8tLQglqpV3ms9nV5ZV6l8r+PM9ns9nV5SVqFTauplME4NXaKYDIKJ1Op3me51mGWm2Q2Wzm+y21NsiaUZbZGIVRFCwWnXZbEq/LgMhM9Vtms1m71TLWBrEpm9lluJpOyToQW1d2Np0KIbI0Ra2sytxCLUutjIIwDIOw3W6pypaMADBNEqOynU7Hdd3tZZAnjFqtlj6q0+lUvqOMyuoySKiNUZqms9lscNnXGckTRq2Wb1SWEEzi2Dh9l92u4zgVE2L06vISAQkhjud5X3z5xc7ODtEaIL56/UrvR0TXdV++MoAGOzsAYEx55fn+YGenZ9o1Tyl9+uwZ13bNI4DreUZGy9VqPps9efLEIMNggIj7JhkIpc+fP68tUWSzKQsAnue/fPVSB/UHA2LJ1OV63u5w2DUlr0KCRo1ACK/lv3xpYBQtl8F88dmTzwyMXHdvf9+YvIoQ8uLly9pyolmGKIrCIHj8mYFRr9+3ZepqlsHISBRFq9V+8fKFDgqjKArCx5891kGO4x48OGi1WjoICXllNMh+nzucEOJQTtM0Nb4O8jxfVxsryW0io2VGrvorKcv0c9rro3RZlmcZ1FYUAJSxPMvTNDVGRm2M8iwredXefbJ4kAUrT9PUGBm1KZvaZciyjJgOxl8rW13VSEQbtTRN8+wWypaMsiyzaZSmqTEyerdR5YzZlNVlIJtTYHZlzYyaldU1UpXVI6OybBaRASMZcNKRaXVjTdlf7rDRUaRkNRDZ7LkxMCKEMkYZrYFuZEQ3oTKinMMvsaRSBiyN0benrI5Vk1CnJsUzgnRlGxjVhuhWMjSMqpFag7JkE9G0KHsDI6OyzdNnMyFy70e/b59Iuz94cd8+iXa/1+WDlNUR1YuNNO8sm66ssb+Z4N0YNWDZZPgojD5EWaxOgUOAuK4rVzklsvytp1kq+xtQ5Fl6FSTdKa7rOlWXPtkEjHSCNzJyHEeC9IhD+UViFO/jKkssASOjsvLiBmq3UpZbhq6ZYLMMzaNqCxjZGHHOb5RNZ/SxlC3712QLUbwfj/M81/3o55NJr9szuJbzfDKZaKXBCaXk4vISABBA97ZOziar1WpnMND96JPJhHOuFhQvfdg2RkEYLhYLz3V1R+zFxQWuvS51rMlk4jiOb/Kj25RN1zJ0DCgXF4QQEMKg7GSSJMmg39d92OeTSb/XM7qWJ5NJt2NgtAiCMAhd19Fdy5PJJM0yI8HJZOJ6nmfyo9tkWCwWURg5jqOP6uT8nDNWFIVRWV0GCbUqmySTyaTTMYRB5ovFMowchxuVzYu8Z7KH88nE931X86NPzs7WASOZRmNd3rdaLkMACBB6tRMQAgCEAL3ChhACNRAgIGUCBAhRx0KglG1kgEpdjkZGa6EFSOI1GQiiGWvNyST57ZUFIQghZmWFQVmJKOzUbqVsyUhYNFory/itZBBgHlUwjWqDDBJqYySElM7MSGgg+RvsygqpK2UVE0JpkDJg5HvPnj83BoxW8erxY4PfHhGFEI8eP9JBMkJrLgiDYAsYpWliCxgJACOj/s6g0+2aZfBctASMkjR5+uwZMwWMbMrKqICRkaxKZwwYCRC2gFEcx0ZqIAQQYgT1Bv3efGEECVEM9/c7pmBNksRPnz0zOhtsMvT63TAIjSDHdWwBo0YZErPYRUEoNYK6/W4UREZQURS2gFGcxM+ePdP7PdfdBIxkhAUQ8frEJG6c8GAMGOV5nufGdJjrAEE9rICM0TzPCx0LkDKa53mWZS1TklEbo2IjgyRekwERbeJlWeZbIg5mZe0yrEu7bK2sRLRRu62yJaM8y9ASMMosSUbtjIqGUQXGbMrqMkjojcrqjIwylIwaps90ZpTJ6CG5ztTFKEHF1bj5mKPVGMp1P6WUMaIqZgdRArQ8FV/DsoFuYkTkVyBjknhNBkLI9uJ9iLI6o1JZgwwl4h1k05RtGtUGgtvJYBzVW84soQQ+hNGHKqv0k/uA0X37RNp9wOi+fRLtuyvtYgR9UGmXDcHtxfvoyhJbtRMTFtnEL2zUbhxV0Kud3FLZG2XQGZUgektlmzUqxdMZNSjbPH02EyKEOAjQUF9d94SQxqr1vu8LS2kXWZW4jrUp2WGUoYGR53l6AZASC+ylXT6isrJytFFZ16jshpFt6BqU9WzVThoZ+b5vfGPfitEa5PuO1t8sA7OXdimVNTBqVLZh+nzfNzKi64BRIX70ox8ZExidnJwYU53kWT4avWOm9BqXl5cIsFoua/c9Y2w0GvX7fWPFi5OTkyzPjZm6RqORkVEYhsFiIdOQ17a/XV5cIOKyKkOpUVEUxn2eNmWzLBuPxowbdsxdXFwQQpZRZFD23bv5fG6seHFycmJM0J6l6fj9e+PWvCAIwiAsqnmt1oxOTxeLoNc35PQ5OTkRAlzP4HWxyRAsFlEU5YUhgdbF+TljbL96XKhBBgm1MUqT5OxsIuuM1xgtFotltMyLXFf23clpGAZdUwKjk5MTBHC0bbrnZ2fr0i6U0p2dnXoCLURKab/f39nZMRp6ECyMKHIncQ0kpQyCYDAwZ+qSjIyGHgSBkRGlFAF2dnb0kcrSFBEbNDIauk3ZLMvCIDRSS9OUEGJWdrHQ69hIRMnIaOhhFBlBhBCCpKbsmtF8PtipF0tSNTIauk0G6akwjmqSJJwxs7ImGSTUxij1/eVyZWSEiIwyo7KL/nyws2PM1CUZ6YaexDFllBDiOK6zt7dnDBjt7u7u7u7q/UKIMAyMKLLQuBEURdFgMOj3+0ZGw+FQr7giiiIMQyM1+fQ1y5Dn0tBtjIzVTmzKFkURhZGRmvSjG0HhcLi7u2usFbO7u2sTO1oujSDGGGfcxmg4HBqrnezu7g73hsb1mE0GRqnjOEaQPHhxBxnMQ9dur1axEUQpdR3XPH3D4XA47JjCcLu7u8O9PX1Vk2eZ7HQopQ2V4Y3fZ0VhKHSvotRAsCnkbqjLAUAZkwT1SksNjIQQDcXkcdN08YqiMOY0u5uyZPNtt42y8uIGardStmTUTFA/D9Egww2jyphNWZ2ghN6orM7oQ5TVTxjJ68l9aZcPVFZnpF9vpHk32VQJ9c4tCW4jQ20obNS2lOFujD5cWbXzPmB03z6J5tTu9fumt3IhpPao/9ZAZU8NpEKN1JpB35J2n0hzoLgv7fKtnDDSsT5ENvWCrUbVQnB7GXC7Uf1wZRsYfYiyWJ0dBxENB3+kj91xjIduHMdpQAHLCSPHcQz5xDYgx5RPrIER51yCjEdUUPnw2F5ym7K2IEW71UJLwKjVatmwWq2WmVqnYwP5vq8ryy1D16yshN5tVG0njGyMSmoNshlz330UZcv+9Q+B8FVZ2qW6mf3o6C0A6GcR8jwfj0fG/e9XV5eAuJgvatvzGWXj9+N+r9fvD/SDFycnx8vVyvf82sGLPM/G47GRURSFiyBI4kQSr8hweYkE51UZ5O/jk+M4jj3X00E2ZYsi//73//Jv/sN/IJWGlPH5dEYoGQ73AAS5RgTGnPPz8729YbfTFRVPDhJCj4+Odoa7lCisECllaZqmafLF51/kRa46IjhjQRC0Wq04jlVl5e/R6N3O1VWv2zMoe3yUJKnruvrBi+OjIwTUUcJgES2Xq1Wsj+rF5QWndG8602fWKIOEnhwfGxmlaTKZnBdFoTMKgsVyuVqtVgZl372bzqbdTtcwfcdHWZo6jlsxIUrPzzalXVzXffbsmTEymqTJs+rOfdzEUBDh2fNnOkqr3QIAY7UTQsnOzo4xMprnma20CyIaGYVh2J3NnpmKkLRaPiKaS9Dnma20i01ZURR//Cd/djlbMKpOIbqOM50vKKOUu0VRqEe7uOOE4bLT7XEnB+XUEhKklEXL1SJaMsYJKV+yhDGWJHG/1yWMAZYQgkgYZUDI4eFDY2kXRNjbN1c7ybL06bOnxgRGaZoaRzVYDIIgePrMMKqe73HGDh480GfWKIOEZllmZJQkCWPcOH2LxSAMwqfPnurKAsDBwUG3Z6hhlGbp02fPdPei77rr0i6UUvmeJVrzfd94moMx5vu+DQUAaqA1S9/3PK+OhUgolYx0goxSGyOZcEvPDiVlQMQGjTzP215Z4TidTsdvd2q24jg8SRJKaa/XLQqhjjt3eLxcdtrtbrerZv9CRMZYu92mnDPGFWrAGHcc3m63O92OuoiSjIzKNo2qopEehpMgI4rn+w2jyhm7xcwSImfByIhsQEZGmW/OPeb7vuc3KauHAv1Wa710wc3+Mp2u3A6mP+TKbWI2lBqovB3Lz4XaE13HupFRKbb+SDAz2k5ym7LGbHUgBGVUnrJUqRGJhesjjipICkyUT+qyXx6VlAdr1S8qVWzjQ+5WcyGh1lE1MSqp0Y2o+swaGW0jm5HRR1FWNQZyX9ple2UtIEYpqUHLHqt4NzGyyaaC9M4tldVH6VYy2OaogeDdGH24smrnfcDovn0S7b60y7bK1kDrTulTqCt7wziQm8bHqOONoG2U3X58cLtRtcnwURh9iLJYnVYHCsF+CkqkN78Wifaq0i9QsdRraqBt3n3GfgvoJ790aZ4+o+Q2lJ/pEukAcRwnSYImH1AcxypR3LgXkySxoRBEmWOgBEGZMlymbTC4F3OZgAarXxKizOlTT8XBAFCCyq+NEiQAUKbaMWAp2Zq0rxnjF2e5CVGdwuuHx8d+okt9CFxrVH6Z1ZSVFwoB5Z6+mkZZlidxXKu5LqGpZfrSOJYzq38jyv3oNSx5mUTRa7EDgM1OpABmRiYZVEbGkxzSVnX3YhzHmyc6wGg0StNUT0k3mUzarbZ6l+KmtMvkbNJqtVDLTvb+/dn/9zd/c7B/UKjeBgDXc4+PjuNV3O11hQB1pDzP++aHXx8dvfU8vzTN0vjSJG13DNWIiqIQReFXM+2X9yEhxHi6Il7Ffss3nuKJl8tWp+5DpJQi4ng8JliPuUgZKKHcqVZMRoKyfIXnc4dhLQxH6Wq1gkJQpgyrHAohXM/v9fsIoHrl5Tbmbqfd7tb9x4SQIi+evXjh+75AKD39lNAsz3YHO//iv/gXiDI1n6oXTM4m7XYbtcRuQRAso4hSakz0xxhLq8Vq5GVnZ2dxnPR6lUxxEjqZTDomRmmaTs4mvu/pjIIgWEZLSomeku7s7CxNE2OKwsnZxHUcvbTL+dmZKApCiOO53ve+9z3jmQNC6Zs3b/Ru6Sl/9fq1Dmq12z86Pun2+0IUijWj53me70fREpAAYjkachLiOP7qq6/a7Xbp4CuNDNYVkQwPYLIuVGQCafn5y8czWxfi0UBFwUxH6Qghi9msKPI6iFD5aKXKlfJvBKSMOZwRYmBUCFFkWe0tT9Ze55Zjuj9RQKvXqT3JJJQx1t/d9TxPDcEySldJMugPXr95I4QgpGp/gL7fevP55/r0RWEYBMFnxoI5OzucsT1TWjLf9/f2943nIRhjRhMq8rzT6b589VIHycptxjo2nucfPDgw1pChjL169Uof1d2dHcd1iSztYqsoIk8P6HOfZ1l5wKL2FiuKAkG+mgkhlS+Jco1Vmy3GGOe83W4bDV0IYXxVAQACcBNITq3tdIXcb2MA5Tl3HKOhr5ZL43FSEEgYYVVqZPOsdRyHVR+N8neW51Qu7asNAFzP81stmb1sTQqQMgoCZOhHZ0Qplds8mGLolFLPdRlj8hADqX6QAIA+feX4SJC+opAHL2yTrpdwaWaU53kDIx2kMjLGkoqiyLNMP0onl8pkffDCUlGEWqqdUEspj/XXAJMfW+pnZd2Pq7faihY/zH9SXmDEKv+sgKByff0aQNUTu/kTCRBkBiIssRUAACAASURBVChlFBFBLrIVgrD5ZR0HKQZcoxAgiIBQV7YmobGVI6+OfzmzxhmnSskaI8g86bcs7bINI1LdMGdjdI1VfYyq1Mi9H/2+fSLtPlPXffsk2t1Lu+jLNfkvCJBOsutvc2Ufgs6o1uqMtFf2NiBd+Ov1CbMsXRDQsjCQ6hJgCggIsPVKRP7QoTZGYF+3rBuUb1r5G5S1iy6hPqrkeo7WW2tqS+fmGbfOxdbTp0Pvxqg6BWZGNvGwagYOCrj1WQTX0TMwyT993/d9z/N9VqheF5CZmRzHcVyXUlZ+bIEAmSKLKk3lRRm1rTJJA8gWMGK0doGCZY6tXENVhyAwyqg0bvlDh1oZMYo1P9xmYjYo6muWSckkxRo1+SfnvHaiZd3pOL7vyyMLKhYCNJR2+dk9eAFweXlJTY6I2XQ225tVxmjjqB6Px+uy8OoefMbevXs3Ho2SOFbdNQDgef75ZLJYLOIkhqof3ff9MAikfwAESItZf88BClGUf27mCSmjQggCgEZQmYVCAxWygg2jBlCRo7Taa4PAjTBwlyc6BaRUDpk6fAj1L7ZyYhARQOiOGgFQFHlN7FLCMAg8z1OjE4zRJE3n0+nbt2+F5nURAPPZ7PHjR+puTTmzi/l8uVx2ul3dGTK9mnJGa/5cedl0OkVCaqFACZ1NZ/P9uW5aSRzPptPd4a7OaD6fR2HU6XZ0r8t0OqWM1sKRG1ud9vt9PWB0dXkFZWmXKIrarRZoyMvVMgxD3dDTNP2d/+13Oa887xHBcdzz88nv/q//S813hoRQQgCx5qystcAG+GlpwvKnMEKLwkpI9y3KzixLsyw1oiTxykbt4uxM7xSF2H/wYDafi+rShVG6XC5/9Vd++fHjx6vVim2emojocD6bz13GwjCUEesSRCldLiPGmF9NSScvWy2XrueVV5YyIIA0Id0u0yRZrlZmRlG0XC7roA0jv+XL1Yhmq6sojBy3khqIURpF0bq0i9/yX79+bctE9fz5c8MgCrG7u8sdt2boruvJLG2EVp05CIQygjVTuG/fYkMEh/Nur7cJGJUPe4aEDPf2Xr56FS2XDi+NjHDOe1dXLudPnz3VCbY7HYex3eFQBzFK9/b3jXGcQghjxRVRFK7rGUHRcBgG4ePPDGV2KKG20i5FUbx69Urv73Q669IuiJimqc2rbwwYpWkqhCCUVb8JgLH1OYN6fFuuWXG9ENal+dSaujhp7rxzo5SRjRuAaB+jQog0TfM0FeU6GJE7Tp7nZXrv2ooiS1NhCRjlWZ5l9TNBEqoHkkoTkiADoyzLs8wYMMrzPE1T4+YOCdKXLmmarj9GyWbnl45MLQEj4z7Ecjvdh03QJ9FsS5ePzqicEfUT7Xpmld2piKhGZIgWx2GbVrNmxtZf3rcKGJW7EY2MSsH0gFGzreoBo9KA7wNG9+2TaPcBo/v2SbS7lnbZLP4UEMCm8GItJlLzvv1k29/RGxvRGmYi9kW/jBgRcr19EeWWm83GfJU+pVQIwTcHjWsgAGCbs8bqGp1YAojkrqVdSmqgl3ZBRNi2js26/7q0i7hTaRfPc9xKNQ9EcF3f9TzbxygUKAoB2j5ssnEh6/1EboI1Au7aQNicP1gI0HsZIZRSYRJP2hbcEsQt1AghDmdmbSnlppzua4KM6VaOCJxx1/OY5nVxsqzVavUHA6IEZRDRcZw0yxgiU9buZfN9n21W1ddqbirzfMTSLq7r6qBrRn5THRu93ytLuwiA4+PjBwcHlXAdIqF0PB63fL8Sw0MklKZpenx0JABqyUkcx5lNZ1h71EtogY7r9nd26Np0S5pICAUQjuMQSq8huN7oLQA45xqG3OUHzAQq96NXQIQQREbZYL3zvgJDBM75cLiHCCo5SiggJEnS6XQQK5woZdLnLc+LqCBGWRKvuOvKDcY1IeI4brc7+iAQgvP5vHoxIUQqC+fn5yhExW+LQCkrRJHGsf5EZ5zHcXz89i0IIIq/l1K2Wq3+/aD/+7/3e3GcsGv3InLuzOfzF8+eAkKeV7OFcS7PScRJQhQ7ke7t0Wi0XK16vR6pRnwRYDwet1otoplWmiRn789cz1Wd5RIULBZRtESCuh99NBrFSdztdnWC4/FYhlSvQYiU0snZZF3aBRFl4Sv9deA6rnxCKwYh3zv4zTffXFxeymLkJTtGaZakAoBqTyxRiP2dnc//3s+VRFSCaZr0egPGmRKMXO/DTpJVp9fHTcS0BBV5XuR5p9sVVRDnLIljQkir3VZBhBAQ4LnOL/ziL9VkIITked7rdn791389z3NVNnkC8OL8/Onz50LZ1ICIjuteXZwTSvf3D4oqyHXd8WjU63Z7g4Hunx2PRk+ePjW+zb///e/XjpMiIqMsy/P/4w/+oMiz6isUGWNxHJ/8+EdEaw7nYbj4/p/9aa2fUpalSbCYn19N8zRVTvcg504Uhb/1W78FgHGS8mtDJ67rpFnW7XVrrj3p9XNd13NdPSUYALhOvb9cUcj3gO5edF3PdbMaqGTkaow2tup4rqvvR3c9d13axfO8R48eGU8YLRaLBw8e6P15XnQ6nU6nI1mq47529OjrxY0HipgMnTHGOOOMId1IufnBGOOMofLylSBgnDHBNmexS1D5yquBZGOMyZe1PiWcc0+uu6qGTghxHMfzPKF4WqWhc+4SRuVbu2bojuPIWm26oUtqRkPnnBNa9+cyxjgA50wIRtW3NiJlvJzU2uYZQOSMcd8nWB6EIoQQyiiC6Ha7B/sHWZrUHtue5+7v7x8+etRbLq8NnaDjuACwv7+3t7dHtJYmyXBvz3jCKAzDg4MDvb/I8zwvjCDf9zudjhEUx8nBgTkyFQTB4aNH+gcY3ViCQ+h6l4I+9LZqJ9LVrx9MJpuPBmOTLMorVSz5kYEUAVGOrvxR7k8s+69BG1gNRBUuKogo1GoylLLJrxl1EIjyRVUDwXoDTD3FV/n5tQm81Aew+fus9kmCmwaK8ApoPf7WL+zr61H9PwgoilwWflEZ5XkhT/HkeQ7K8p0QUh5s15/oRhBpLO0iTxihpYaMpKY/0aVkLdNBYYmlB4yqJ4w2jzFVSqo0dehotekg84hXoQZG8pFfZimobjZkCi6rbjY0gda6qCCy2QjZJIOmFNVaXZ1bYpGqhDoKsVzPmJGU1TvcHH4qh6ImgxIJrIJIpVMdw9r1ZqUaR3sb0JaMbOIRQhjVv37u2337mWvOvZ3/DDfdG4PKAVl1LVRbINVBpPKn7TXy09zueMKofM2pUPmaqC0YVJD6TrFhqdeUL9LaC/3Gd5/OkcggsATJK6vibTVaP7m20Ub96KhXFrlds/jyzYaupGQiyhcOaq2ZFKmals6oAWRjpGPp/YQQhxJqqLgilzWcG08Ycc7TJF0uV2URR7LxD6RxslquCCGkGhgSed7pduM4kaxLXrhxL8rd7Vj9kgCAJE0o46gdEZAJjIhMZ1z1k8itwqCFdQHA93xZBRerj6Usy1u+h/KTWBlBqgxfDaTOugqqzUkFVD44EbHGiBCUmaOx7qVhjBdFESdJlqa6ezFJkkIIBNQjcZRSrsVWqCzNzJnr+dIzU1LjnLuu6/teq9USoiiDJIgowzG6nUgXln7EqYQyi2mVKPoJI+kZo6YTRkZGpa3qx6zIpvAyIcTJ8/yrr7462D/QErjRo6MjNG3TzbL81/7hr/mtlqoXInEcPp/Nz96/l0dUakPMOfvyy+95vqeZJr+6unz48KGxoO5sOn14eFhHoTSO49VqtX9wAEKoO/cZY8FigYg7u7sVQ0cklM5nsxcvX3IuGV3LBoCLxTzPUoKA12VnEJCCKBCEKDIU1wm0EFGs/yGiyFEIFVQQRBAAQhR5Je3W2r8kUBSohl0QCaVFke8Nh/v7e5VIEiJjdLWKf/Mf/0an10Ol+Awguq579v79v/nXhfKiWuNRxpZRtJjNaraOiI7rnp+d/fmf/km1GgdhjCar+N/+2/97cn6RJNeeR0B0OJ/PZr/0i78wm06x4nVBxuhoNNq5uupVE4lJ6MnJMbFs052cTYoilxRUkMzUtVotVZD8/e7daDqddrsdneDR8XGeppoJsfPJ2bq0C2fs9atX+6bSLoUQr16/1g09z/P/5J/905evXtey3Hued3pyeno6OnjwQE1thYiM8yyJ/8E/+NV+v1/DchznRz/65osvviCmdnJ8/PzFC70/iePZfP74sWF7/nw2Q8ShyeN7fHz89MkTYzj9mx/+8M3nb9S1QTklpyenn3/xuTY+ZDI5J4QcHj5EJecbADBGj49PZHXw2twj4g9/+MMvv/zSMPdJ/OTJZ69fG/JaLaPozZs3T58/L5R4FgC02+2/+nd/9YOvvmKaNXPHOR+PZhcXvFreAxA552EYzmezGhdKWZrEYbRcBKs0XdVc7Ks4efHy5YMHD3SvH+fcVtoFEF69fm1QNo49z3/1+rXuXlwsFrbSLozxgwcHXS01H6VUALx48UJ3L3a7nU1pF874OmldHbk8plqbewBI0yyuHgyVb94kkdkeV7VgIWOsyFOZIVI3dImj7txfvzrSVCab1GVLNiB9pGRWS+t+/6IwJrITAGSTZW7dv9lpg5s/q6DyYooKENc96p8VRFRoVq+hQpjLORRCpGkax3HN0Akh8hAM6p9SlAoASutLF5k87DqWdP3GI5RRAOH7fqfTohQrhu7wPMukPRgNnTGmZ8yTITCjaRWOo1Mrre5WjFRb1RcF10sXeqf86FRpJZRq7bYgYvHRkur34o3UyuuNIFtT182qtuXnmAEkf9ZAm546aEONaCglSVvTldV137Kt/TCSnTrpsA6QCQAAdWMjUFEpmFOKilqr6mroV01Lp9YAsjHSsfR+8uEBo+3trwa3MdrS0G0S3mjod1bWiKIz0q830rydbI2Groutctm+laxZnSajjBrZ6Z1GpRqUrclpA23JiNrn4qdlm/h9u2/farvj0uVuzEyISEglb74ugFE2I/RGrBtBRmUbUHRE9WIjzbvIZhvQm5qS4XSbi6+9pdVRBQSG1aarc2dl0T592zCyjR5Wp8ABeW7/lm/z7Yevhqv3qTspiOm9Y5TNJmHt+m1ecDcq24CiM9Kvtw3gLWSzjighjbcTJWz75AJ0k8TqZ3Lp4jTUBpHZs1SKWAZrNk1FkT3lMS0VhLI4ySb19fW3PhJCiGSkZjRXGdlkWyf3MmbyRmzQyJg6vVlZIzWZerwGkvKU4mHVESFHyUatWdnagG+GuTFbDr1FcgHcuNQKIeon3ARVp6/mDLEpKyVsVtY4fTqogVFt+nQTWj/RkeDbt2/DMNRLu7w7PeWMqwOFm9IuWZJkSVxL7iXyHEE8fLB/sD6vtMECZIxNzifj8ajf76Pq1QKgjJ1PJpwxz/NQrctBSZ7l4/djxhhqpTyiKFoEgSgKvTbI1eUVElytVjrW6elpkRee5+ogm7JZlr9//54xqqNcXl4RQlbLZUUhREbpaDxezOe9Xg+rG8URybvTU4dznVqWZe/Pzhg1MArDMF6tVlEoD25uRg6LLEMUv/mb/3Gr1VIfH0JAp9P5f//sT7/5+mvHc+ueH3vjjvOv//D3/+yP/0hUY22IyBj7tV/95SiK9Ix5o9FoEQS9rqG0i03ZNE0nk3Nard+CZWmX5SrPMwOjd6MwCrudjnFmEcBU2mWyLu3icP69733PuKGeMva5qQBIURStVuu1qWTH1dUVIhp3zY9Go36/PxgMdJDruk+ePtUrlxd53mqbGYVhOJ/PjamehsMLRHzw8KEO4o7z7NkzY9Vwm7J5nrfb7ddvDHVsdocXhBDj2ZRWu727u9vv93UQ4xZGWdbudF6bCuYEQRAsAmMCLc/3BJBut1cURRkhFkUxGAxG707F5iGnI+pNPraWy6UQoO65IJSIAjzf+/yLz83KtlrDvb1er6eDOOdGZbM07XZ7r16/0kGLxSIKoydPDeVlfL+1f7Df7XZ1EOP85cuX+hFnpbQLY2XhNf11YDx4URZ2s7ySALSz4oyxsspHBQuAbl5JKuhGRrCpYqe/+0oU2xrAGHG4g7Jy2VADlS9ZXVmyWbo0yLa9suWoZlnuOCko2xAAhAwkbW/lhBBGaQHgbII11UUwONyxyWCUnGyWLs3K6tPXoGzzXAgh9O1SZTTt45dIZ1qhGKLU5ahjUWoj2MzIJmHt+gaNPoqyOiP9eiPNu8mmSlj+qSevIptjjWTziUm2azVRdahNhmbJt9RoG2VvNXpq570f/b59Eu3e0O/bJ9HuGDBqRtFBtVbBMoFuZGSE3lm8OyurI6oXG2neWTZdWWM/IdcROHW4tmygUSPrKNLf8b0uYlN6s7boIXLjvOXgRQOKvvAqd80zrTYItWyov5GRcXt+iYXKBp7tJb+DskSLoDUoKy9uoHYrZVVGTLrwlI3dsl+Ow/a2johqaEgVg9HbnYe4ceg+7sGLBhOSPxwhIAgCY6aRKIqMFS/yPI+iKIoiHSUMQwCQea1KkPxkDsNQ5gOuYAFQxiQjfZtunmU2RlEYRmEYRZH+2S5LLLQ7hu35ktGtlM3sMoRhSAhpt9u6slEYOlrlXoloo5alqV3ZKNSUXTOKojiOGaVCOUUh05tlWXYrK5fGAVpuD7Le0ijCMJRFj+syhKH02NaUBQCbRmmSSJA+fXIizMqGoe978iFtnD59m24QBDL45SDi5cWFfMTXvPDT6XRnMKgHPCjN83w6nfYHA6KhXF1egsz7o4CkNU+n0zzL0iytYAEQxqZXU1lD/RokGWWZjVEUhosgaLXbek4zGTCiVRnWGl1NW77vep4BZFN2LUPfpOyVNA5d2avptCiKJK0qSwhBnE6nFxcXOrU8TadX037fwCgMgjCMWu2WnqVtOp0Gi0WR50JAGaGTAcl4tdL3o9/YAORG3arJCgAmri6vKKW6DFfTqQCoZauTUJuyWZJMr656/Z4pJV2wlCVcTIyA4CqOjdPX6XT0lHSXl5fr0i6e733x5ZfG0i6I+MoUv0BEz3Vfmipp7OzsAIAtA9NgZ9DrGsIKjNKnz57p3n4E8DzPyGi5Ws1nsyemqvU7gwEi7ptkoJQ+f/7cmKXSpiwAeJ7/8tVLHSSDX/v7+zrI87zd4bBrSl6FhLwyaQRCeK3Wy5cGRtEyCubBZ08+00GEkGgZdzpddXeAEKLf7+8OhwC3c6UjosO5zMtVMXQGruu9fvParKzrDvf3O6YEWoRSo7KiKFrtzouXL3RQGIZRGBlLu7iOu//goG0q7UIsozoYDNalXSilty3tkmWZrWRHtinKob/NsyzLsxzaVSwAuinZoWZgKt/mNka5qQBIKQNaThhJRsZi8g11bBqUJZtUXjVl1+JVc0pJxBurnZiUzTN7tZOiEHJ/iCLDdc8dli61rz2y+Ri1yiCV/UilXfLcrmyWZWnq3620C27SBOvItLG0ixGlzHtY05kprYJFCDWV7LiREd3gEFNtEKmUTaPvQFlqwqpJqFNrADFNWVINw8km+8vtoOSWASOySQqiUiObj1GrDBZl14i3L+3SwKh5+mwmRO796PftE2n3pV3u2yfR7lraxZ4S1rhGJ4SgCYQAVC4Bq6AbGWGJYypC0oD1cZUlpjW61EvHIpv4hY3ajaMKWrWT6wGH623WsvIOfuyAUYMMRmWbNSrnwjDgFkY3Tp/NhAghDhTiLqVd7CU7hPINIZv8U+YLr2NtSnYYZWhgJIsXlIu5GhYi2jT6uMqS6jqSNCu7YWSj1qBsq9WqKSt/t1otz/N83695XXzfL53K29s6NgWMuN/yjTL4vv8RS7sYZ5Y12gmxl3bxy9IuhRA//vGP5VEJJW8TUkJPT08dx1HT7cr+PM9GoxHnjvxTBV1eXQJAvFypIEBglI3Go36/P+gPKlgIlLLTk9O8KHzPL0FrRlk2GpsZhWG4CBYgQBKvyHB5gYjLqgxrjU5ORSE8zzOALMpmWSbLhugoF5cXhJBltNSVfTd6t5gv+v2+CpKIp6enruPq1LIsHY/fc2ZgFIbB5cVVEAZlRRBC1sdZjo6OTk9O2u2OgOvjUSCg2+tdXV4yxm/rdZGJxqFaLAQFEILf/PCbBw8egIDrBFqIjLHR6bv9xaLXqysLCDZl0zQ5e3/GGNOnbxEsltGyKAoVJH+fnp5GUdjt9ozTRxAdhRcSpJROzs7WpV0opf1+Xx78qb0Out1uv9/X3+Z5lnW73f7AgJKkCQDUQNI31Ft0e71eHQuAMtbtdfv9viEymloZIUEhiv6gr/unkiRGRCOWZOT5Bv+UTdnMLkOcxIQQs7Lzbq9fV1Yi2qhlqdftBUYQ4+z//Df/l//1N0iUjI2EOI4zOTubTM5bvgdKRkEA9H1//P6943ByS0NP01QAqHcUIQSEcIV3fn4JSLMsUwfccd3zy6unz5/pygKATVkvccMwMk6fAEGQ1EDrUe12e/1+LSWYOn16aZfVcrku7eJ67v7+vrG0y3A4HJpqvwshoigyosgDB0bQcrkcDAbGQzfD4XBvb08/+COKIlqaGTmOwxgzy1AUiGjTaG9/zzGlpLMpWxTFcrk0UpNnRo0gOT7GQzfD4dBMLc+Xq5UR5Pv+YLDT7so44vUT3fHc1XIZRVGr1VIPvwFAu9Xy/dZdli7SSUcrJksIYYzt7O7u7e3phr4Mw729PePZsdlsZtQoz7I4TowgxpjnekZQuBfuWWrIDIfDvf19fVVTbKqOOXRzgFS/S2ylXcrD1DaUGgg2Z2EMx0MAKGOSoDHJqI1ReUhWfySUKEbxbIej76Ys2XxfbqOsvLiBWgNIiELItzlcLxtosT4YVTseten5eAEjQCm5bOqAE8vZKNJY2qVU1vBEN81sOarNBPWAkXI4euNvJx/p0I0OotVWwbKDmhnZJKxdv414H6Kszki/3kjzbrIxci0h0wbWJsOtbF1PVE8IsaW72FLyBo0aqBk1upEgsczFfcDovn0S7T5gdN8+ieaAXF0BIlYS3ZNNUKay8bLsx3XBGwOKDgLEMhChgYgJdCMj+QMBJPEPEu9mZc1BChnFkMvTErQOhQgAAR8xgdF62Y2gpjqhjKmxJFWGjxwwAsRNgiqhZKlGRFqmPACoZQVbn0lqnoiG6VNBDSZkmVlEJJSVujiUMNd1KaOUKGc9CCHSs1GNoch+WTCWskoxkRIFAGogWYbbcRyuY21AruuqoBsZyWzYlJU1visyyAkwildjtI2yrmsO/Xi+53CnFmaSf3a6nZ3dHSPWYDAwun2cXs8G2tnZ6Xa77U6vZuiu67TbHb/Vavl+zdBb7Xb5Zba9reMmYES0NTpnrN/vD3Z21AoziOh4Xq/Xk6Nai7dxRmzTV86sPn3GmeUWOyG1mVWELhnJPifLs69+8IMDU8WLt2/foskRkef5eDQyPuQur64QQBZXUcedMTYej3v9/qBv8KMfHx+vVivjCaPxeGxkFIZRECzSJNE/2y8vLwnioiqD/H18fJzEsfGEkU3ZLMtPT0/jJEY1oIbIOLu4uAgWwe5wiFhG3wkAcs7fvXuXZ1m311WxCCFI8P379589/kwPeRR5fnl1+ejRY2N45Y//nz9yXb8G4pzPp7P5Yu44rgy9bcQD1/XG797JIjZk60Y31ZJrLyIAACH+8A9+f2ewU0vcRxlbzGbtlj8c7upYx8fH0i1VG+00Sc8mEyEMKekWQbCKlnG80r0u796NZrOpseLF0dFRlmWu5ribTCbr0i6Ms6dPnxpLu8Rx/OTpU9PcZyCEsaC95/sAcHh4qBs6IO7s7AwGA93Q0zR98vSpseIFABgZhWHYmXWePH2qj5S044dVGdbjm6ZPnjzxTPvRbcrmWTabz7q9fnXDN7RarSCM/vqP/7TfH+igr/72b3/vd/93v92WPj6VJgAY/ZsEEYRgpuRKhJCL8TjLMlapPAOEMsoop1TomUQRueO6rrN9klFCCKM0S1O9X94t//P/+D9RIndWK9ZcFJ7v/8v/8l9+9tlnUN39AQByZk2GnhBKjdPXWyzCIKyBNu5FYSvtkiTJkydPdPei67rr0i6u67ba7Zbp1IbfahnrrnPO/VbLiCKTANZAkmWr1fJ9v46FSChttVoSWmfEmI1RlmUSq/YUkTIgok2jVrut575rVrbVanW6HSFE+cgEAN/z2u12r9frDwaiqBx6aLfbvX5vb3+v3enovvk0zVotw52GAHmWe0YQ4ioIWkVRLbEElDJZmkIfBNl5Kysnprqk635CGKWDnQFnXH11EEIECNd12+22PheIaJs+Soht+tI0zTNzHXSzCRFCNtOnL/xardZ66YKb/WU63donTq2/AaUGWj/RldogtSe6jnUjo1Js/ZFgZrSd5DZl5ccl3dQmKr//hBCiEEIUqrLFJumrMQglE/oaDb0QBTOC5NctACG1fOfrPwHR6Ce+lZXfeL0SFarsK2TKbsTaE/1GOzFOnw4qTWh7w1ONgXwbKel0EK22CpYd1MzIJmHt+m3E21JZFar3qyAtumKgadCoWVlGiaj0l/cA+a6afegqGteubx5tG0rzgDcQJCYTIvcBo/v2ibRKdcWf4VY+/8qmgshmy0oNpezXUWpNBYEF1EDtZhBYn9zwHT7U/+62TcDoY8x9A6jBLIgJdCMjI7QBS0W0tQZlbREZCTQq28zrbs0ooSwd+m2wU1nJhQCjFKpLeaT0OkBTlXBLO2mYPuNc30hQ7yeEOAQ/rTW66zg6CrGfMGr5vvSuqD5EBPB8v9PtttvtTrcrKrnJodNqyYMwjHNS5YVyH6zJvYiEMibMIMSGNbq84ci3+WZGpEAwS1NKme518by13732MbqNnRinTwc1mdB2a3QnL4offv21rPF+PViIhNKjt0dESzRFKM3z/P1oBIhEQ7mSAaMgUEHStfJ+PO71+vWUVwCEsdPj4ziOjZm63o/HRkZRGAZBkKapKVPXJUFcmGT45offfPPNj1st+jl5kAAAIABJREFUH7BygoFR+s0Pv/mLv/h3atANN+H3v/j+9z3PlyNXgjjnYRD84G//VvpuVfE457PZbH51FS4WCETNloVAAAXnXO2Xv+UuDGYGEbHZEkyUVv5Jv00rJ4RQipzxv/fzP+/7bUChhMCQEJLn+cnx8XK5rB3XQIDj4xMpaG36siSZTM4FCEOmLhkwSmI9U9fo3Wg+n3W6XZ3g8dFRnud6pq7rgJHrOJ9/8YUxMoqIn3/xhf4UybLMc93Pv/hCR5GZuh49eqSC5I3u+/7Ozs7Ozk4FC0Cm3njy9KkxgZHneUZGQRDMZrMXL17o/imZqevQJMNiEV5czbjr4ebxjIiUEM55nKSrs4n6UC8H4S//8q8WQeA4FRBjLEvTH339FSj+dUJkVXVwuOPI+KvJaohtpWEHyVFSlyjyT0bpbX2Id2rIGP+VX/uHg8GO6ktFRMZ5MJ998eWXehIvACCUfmGaviSOW+3Om8/f6NM3n8/DIHz2/JnuXnQdd/9g33gajhDy8uVLPWDU7/fXASPmXOcgbXgd2Ppv9QYxYNlBzYxsEtaur1FjjLqu4yirF/lQ5Jy7rsscx2jo3W4HCdENPU2SbjWVaSmFXBySj91qNi3/hM1K/aOzKxsiRYQsTdM0EdV6g4wxmRqN/pQvXb6N+fg72hq+cgCEELQGWsc1DMGa73RIv4MnOqWkTKFVe5rKTt34ftravR/9vn0S7d7Q79sn0T6h0i5GGSqa3kIjALCG32+7leon0m4rpBoHUzqtM0u2tpOG6TPO9Y0E9X5CiCPywrG4lmVKCVX0sr8BRQZWVJD8wnMcx1CXYwOqEbyREedcgvTaIA0ybLKxVnKulv1let5ypOimZEWNWpnIdk3hOzHr266AbffhHRoirtfoazf/9cZ3xjhjTJ8mosyR0U5s02ecWW6xE52gbkLrH4A4vbrSPzIopfPZbD6fq0Rx416cz2bGkw2z6RQAaycb5Mf4bDYry8xeYwFQxmazWafT8U3uRRujIAgWi0XN0yTbfD7nnHdXsnK5IgOlSRxnWZamjlDci3Ic8zyXtVyvlSVICUVShkUV0OZjlJjsj22SRhBbu617kVIhN0LWyKy5m1lJA7TwuZ1TklKKCEkcc8cBzeuSxPF0OmVa2mgAsE1fGsez2Wy4NzS6F6Mw6va6untxNpsxzvI8N9rqdDDQ3YvT6VROk0MoKWsY1YMyURQsFsaAURhFi8VC99vLGkatdksP1kRhSJUry8EgjEVRFASBpxZC2QSMbIyW0fL46Hi1imuHHjzPOzs7+53f+Z1Wq4MICh/0fO/oRz/6+gc/8P2Weh6ivHvR8tSMY3m8SBkG6UG07D8RAH6rdfj4Senqvp57REQY7OwSBELIOjKEQChDFHmWea0OAaFGjCjjaRL/k9/8Jy9evMjSjCpmwTmfXl32BjudTgeUGkYA0Gp3/vL7f/4nf/LHrVa7eh8g43wyHs8urxzXfBvoDZEQylqtVqfTVjffSxlkqSnXdWvhRQSILNOXJYkE6QGjMAiW0bIGKmtduZ4rhDAEEKMoCAI9YBQEwbq0i+u6r9+8MZZ2KYri+YsXJrWRM/b8+XMd1O/3BcCBqQCI4zjy7KOBIICttAvn3MgoSZJouXz85EmR56qhy5xVaZohYao1A0CBGC2XZ+Ox326rUR4Z06aEQDW4XTbGmW7+uHku6o9G+Zzr9nqUscpEEvl2EPL0HdncV7h2Qos0Sdq9HgqoPDI5i5feF19++XM/9/fjJFGff67jjEfj4f7+YFA9ACVEp9u/urr8q7/+a5nATZWNO8704gKxtrW9qSEiZfTgwYPh3l6eVwJG3OGO47x8+dJoQgLAOH2iKFzPN4KiKAqD0FjahVF28ODAePBCCPHKVNql2+2uS7sg4kcs7SJJ1UCwKe2SZVmthtudS7ukaVoURZHn6hFGAMjzXKaS4pxRWokdcMYc7nhey3Nd2FTlKwni7c/jrJlqWGtqICgCIlKsZEYGACEKk6HLYxyFenQVERGZECKO49VqlVQNPXecJInjeOU4vGbohDI5F+qhfbL5ogBlnb1No5Qi4Ga886p4WBSFLMaiL13uUNpF2kkNBJvSLmmaGo/83lzahZLvqNqJ/iFIyN1LuzBm2Oxf+9PSbvEk26YZ7w1VEqrdBrUPJvV6Shmp5j2UxxrUAZT9uAnW6KNKlDiOPhq3XaCvsarHSWrqGGQoef2UlHbB7zaMd9/u20+k3Wfqum+fRHPWTnYAMJ7JNZ0XVjAMKAYQAFxvGjGXdqmBVAGMjEBp6hq9eiSiHtqA23yB/VQ1VJreY1S2AWQ7qNH8ldLMSF+jG+vb1O0Ergu4NIEaTKjEgroJsQ01Ik8YeZ6np1ki9rMInufZSna4rlvbwkbIdf0WR8fagIy1QWTREiOjMvNB7WPU933f942V4Tl3ZEIVrO7Ekr/X6dN0TjdGXqQ/S7lGhgsAUQ5z7UlhNBcFpJ9XAkCUYRSuhPAQUcbguBYrAUqN4bn1UDDGKDXqajusJOVinHOnfi6EO5wxbrYHe2mXaxPSoI7rGkCNdrIG+YYsJp7nSWkdUcDJyckD03709+P37U1aDLU/y/P347Ex88bF5SUAFFWXPmwydYVhuGNKYPR+PEZCWtUERtKPfnp6yjjH60JUBJFQRpdRdHp6GsdxUTv443lnZ2dhEKRZhtWHveslcRwzxunm2Pp6DMvvM8OGW0II4TJbHUrv+ZoVUYKmRIUQggB+q+U6Lt1cow4giKJMoKW+vigtOGeOw0EwdVQZp67DwzCcXl2lWVYeDUFEhzvz+ZwwmqdpxY+OsFrFURgWRZFlefXOAQdBgNmRanuiI2WU0WUUOpyrTxZE5Jwvl+Ho3SherWrKAsD78ftOzc8m96Mnydn7M9/3DAGjxWIZLSklutdlPB4nadIzJTB6Px47jmPI1HU2WZd2IXSdFVFH5g7njkM1Q3cAOLegcM4orYEoAGPyccDrWABUgqoySEN3HOff/81/+PO//Guu5OFDJIyxIsv+8Pd/P83Sipd6vT06/fHXX6NmtYjoOs7wYF81svU4CnB9f7AzEEKwqgVkRf6P/tFvfO/n/n6apoqREc5YEAS7uzt7+3t5IdSUiJzzcLH4hf/o57u9HlT9swBwcXH+K7/8y7qhp2k6Go9fv3qlj+oiCIJF8PSZIXnV6cnJcDjsVSPEIATj/Oxs9Ed/1BkM+lCt/OY4ruu6Nj96p9N1qv47yctz3V/+pV98+PBhtqkhUQ7paDTyfa82s3LepQnpGpXvIqoZukxnWQOVJsR1E1obnlOzrtKGr0u7PH782FxJIwwfPnyo9wNAlmUPHjzQQZxzADg4ONBBeZ4PBgNjtZPVcvno0SNjfs3d3eEqzWuHHjhjWZq6nisQ1XsAADln6rzWmvRB6YZOCOGMr3Og1voR2t3uznCYrOIy7yUCylSmO8Ph7u5QFIUaqKOcc8YePnzY6/eFZugA4sA0dKIo8qIwglrtdrvVNg54lqZDS7WTveHQ8z2ZO63sRETHdeUSTkdBRMq40VHIGN8/OHh4eFgr7eK6bhzHh48eGWd2uVwaxS7yXAgwglqtVjfsGkFpku4f7BsTqkVR9OjxY/2FzDZOTIdSKjcP6HeJdOnrT/Q8z5tRaiC4rlqv1eXYBIzyPFczEuJmn0ohhBCFKj4iIkOhbErRm35YnWz857X1MVE6bSAQQhSFEAUi33SuE0YXRSGKohBCXVkxRFEU65r2mqGX1W9I9YneEIYrB9wQQzHNhRCCc14UhalgJzJe/2osGzVtZS3HRxasy6tPdEKIseIK2QSMbHaiayRBkkuDssY1swTpASNJivw0l3aRv5gCumbE6j3bN1Uqo+RGfUkdxKQM6+grValhSUd/NFIlhkKqhn7n6NiNA64KwBip9ejjU5+IrQ+/2bDuRm1LZRtkUDvvD17ct0+i3QeM7tsn0RwUN9RXV+8E3ARr8Kaq9bU1OqlGc66xNgGjGqhco4MEUfVz6rr+vBRQFc+4zlab+l5TO9W9HNXrG196iASRyP+uOyqtejmWQ0eqS5dtRrW62r4eB33AaTWrsILVNESISEpFiEHyGsHyT31mbbLVlK19KDcrW35y2Gy1ZkJUzaaLCA311Y0Bo+aq9XrASP5Z1ngnVRhprPHuuW5BqKOGsxDlvlnplGQ19yLnnPMiL/Q9t/IOkZvLSc29CABInJVbu7EJIXmeCwEEEUAxAgQKDGSoiFJiWqMbj8MAgH5uS7aGUXU9TwZKapuciCWmxjajWgbOFBByzunmI6HWKKWbMBcyZVkry1LLARdC6EEro+TMHjAqldWhrufalHXtAURpQkZGUv11pi5jAqOjoyNaNYjyS3Y0GpV/qqDLyytAiMKw9oBhjI3G436vPzCVSD8+Pk6SxNcCRpSQk+OjcBnX3IuUMlEUV5eXSZJUSt0gIZQKUTx8/Ihzp16aHsDz3KfPnhsNnTF2+PhRrV4XJSTPi0G/63Dq++51Hi/knLHY4SIvRJHXUp0gwzSJz96/74YhKNnqJPR8cnb09q3+RM/SdHx2Jh+StVENgjAMwyxLdUfEu9PT0Wjc6/XUEulCgOd5b3/8dj6biSKH6hPdcXkax6ZQuBx2pJSu31PlOFCKiFeXl4zSWsDIcZzZdPr2xz/WT3sBwNHxMatGzeRvWdpFPoVrXpdFECyjZZomJmXfLRZzW2mXoiiMpV3WASPG2cGDBwcHB/XoIyXzxeLg4IH6gJP9eVHEq/jg4EA750GQEOlHr5wiQmSUxkkyGAx2BoMqFlJKwyA4ePDA9zz1gJF8NKZZdvb+vTxlt0EBShmCOBuPgsWCV73vCOi6zj/9T/+z/mCQ54Lya+mLvNjpd//zf/7PQTsCVxSFyLPf+Me/YZiSNH3747evX79CUlf2fHIOiIcPH+p39fHJyboevBYZdV1nMz5UviIktSzLkjQ1jqrrea7rHvz/7X1bkxw7ch4udevp29x4a3J4OSTjSGe9WlkR2pUdDut1/4BCsv3iCOlXyP/C+lmyIxz75N01eTgczvRcejhdl+4uoAqAH9BVgyokanqGXOloOYgTcXqQlcj8EmAVgAQy9/dNz6X+nabp7PMVpo3z6EKIISGLxfLycqb/eZgKEEpZnmPgMglCCAVh0Ou1E3VIKX3f/+GHP3348KE9/oaDvs4H37o9K5VK0hRExBjjnLcQrcH6fhiEINjFYrm3vzfo9+0G4zh58OCBR2njjhrBQojKYeT7Lj/OYDAYjoZ2fVmWg+FgMARIOWNSSpA0HA6HwyFIGgyHw+EQzLjS6/Wira1eFJrzQj338qhPPc9rTq4kUdrBLqVUSiIz6pAE4gbXbdqi6+L7fgB9FnVl6Mhj0+/3wetU/X4fNELB+cBhHx0nyWVVXorhaNQc6OVwOOxtbVHq+b4vhTSb0qdTlFTIeqerKitda8aFMSaY9Pt90DOlEbmGEKh2EAQusEJKhHDHEAKtOhgOhsOhPdNejUZrh5FSyk7krn+3Msyb9d0sLZL+dw+S9NTFbrD+sksp5fqIVHugu5zY3ZfEXAPd/jegqrNWgNqVDjVvC2y9MFLWG73DdC6SrC4K2W/TdebPsmy90UWprb2OJWYaRymilATf6Li61t0ykVJKqht0sMHWaneAtacuN4LtaNC+eFFfsPrppnbZQAd4P6SxgUJuVs8kbYjINpoN1iaBjLeyqmkKux4iEdy8TyTXLjjnVlLHG/1GHe5gVVvQJmA3tJ5Zee8wui/fRPlJR+oCGzQEOacu1yzSrAcU6CBtAta2kvkwaMC7CQLtANY3Sc6pC2g65EqRrpRsZqy5UYe7IbobWFCWanbBOh7NjZ8DV/2tviAA102fJEJ0MGdqAtAPE0IxIRgT85Q4wao6zUlbranqynDdeE0ihKjbIKpJdSX4ubS5bMZbWdXsDru+RUK3L0oHXCfEVvvf+tTFQwrVc/z6CWVM8M0WzXoXS72YqEl6WQZzSYkhkqoWo3meJ0lSFFEdLUgphTBSSi2Xy0WSUK+x0FZSBUGQpqnQkZ4N5cuy9ChmjAkhccPFg4qiwKqt9iZgUZV90wZr2wFVi9E7CNLFXJSvnYtCIKSq/67l6G1NSmjLvaLWiRcIuOuCMS7KkjImpTKTG8iyVKFy6eACqys3R3QjWFCQ2nAxWpTl+3fvkzhRSraYj46OKBTuoiiKk5MT8Jzd5eWllGq5WDT7XhGCT06mg+Fg1EpXIBUm+OjjEedFGAamlghjKeXDhw+ePTswM65IqQglnOXpPFZSmodxdVChoij++j//p53d3caWkUIKqSSOkRKBR1ub4jTwLy9n7969Q8j4PFSnZ6fTU0IAr8dsNkMILbLMBnt8cjKfz4eDgT3Qj46OPChREWd8enoKuleSNM3SrCwL3bgp6PDw8NPJtL/VN8EKIfr9/scPHz7PztlqKRsH9Nf+moajzVDv8ZMnOzt7ZloLbSKl5OGHD4sss3U4Pj6O42Qw6FsD3QmWMXZ2eoYxMltbg02SRbYoCm4L+vTpOE0T0GF0dHSkpPTaDiNyfnaqs+J4vu99/yff7+7u2rARxm/fvrWry7IMw/D1mzc2afviQkr56NEjmxT1eqPRCIznRCl9dnBg76OXZYkQev3mjX19a7lYFKUKt7aUaGAmHllk6d/+3d+Mx8BVkk+fjiaTCegUfPfu3evXr+36oiiiqPf6DUAab28jhMC7KWEUbW9vj0Yjm4QJAa1acB5t9UAd4jhO4uTg+QHYWrrIt7a2RCM0nxgMhkEYJnGsz5Q0eJRqhVOtixTixctXBy9eFsy8uqUQJgVjb968eQCCDcOd3d0htPNNKAyWM7a11f/u9Xcg2DRJnx08s0lBEO7t74Eb9piQV69e2fvo4+2R5/sIIY9Q2rF969pH79hadu2jm2eMGlMXQuwN17q1PM+zLBOiHe9vkWWr1UoIYfr5FVIEk9VqmabZYDC092iXyxVj3DxrUJPAdOY3gkXufXQbLOrcle8QVHPZW8uyihtcT0YRQvXxeUIIJQR0hoHXQzEmZVlyxgrOGwMd4bK6FALqADoNwPoWWHAf/VaCai5w6iLF9aEuZc/i0U9gMVp3VWttpJTS1wcJAfIY6ufrw0wtI5Kq2Ja6G9i60gZrk0DGW1nV1BBUePPiCmtRW6k10Lt16NZ8Q0SbgL2V9czK+330+/JNFGKe77sv9+WPtXjq2l/0k3MYrWs2YwEFgQ1+RbA2o/kw2Ga3AjeSTERgPdKbi4YOqFk2CBqsFFK4FoQUxrfW4W6I7gJ2Q4cRVhjIuIIxQkjPg03V6/oOFnvipdfCurU2V0WyA2vV9UQvpY3tQD0H13Nx5ZijY0fakK8LFlnemQ6w+uGO1lwkEJEpyF51aOmqWsuijQvGGGNC8PUcHa9jHnfpAEYF6zadq49uK8hlPXNAIn2VLk1TcCNisVhkWWY2qqp99MVisWhuluvfWZZJKVs7nXrJnGUZJbQ9NKXEhCyyRZZlrYsXGOOyLLUO9q7LcrHQYbrsDl4tl1mWDQYDe0WvBYEBtl1gOecdYBFCW82cujVY3/PsKABKKVdrnLFFBpO02ovFwt6IWCwWjDFKiRSNffTc9/WerD3KXXHnEEJKSc7ZarUqeGFstCuEMGcsy7Le1patgzYptsKSSSldYFmeLyxEZkeAYLMsi6KwftLmsvbRcZqm6zd6Kcvzs3MppO0wupzNhoMBONBns9mg6Q3Rv2eXl/U1UKPvFSH4cjZjjOX5qjnQFSZ4djnzfL/lMMIYF7xYZNkyWyglzTe6HmS/+PnPHj1+3EgAohTB+PPnS30XBlJvFgQ+ONBdYDnns9ms5Q3Rvy9ms/UfENiCF+ucMM02L2eztteschjNLmFBSZpmSRqGge1DOT8//81vflNl5qmkSBlFvaPDo3Wqk2YRUkZRr9ffUrJxUQJjtFrlP/zws5/9ux/yVW5mXKGUXl1dXcxmygG2LMslEJLOCZYxNru87A/6tsNI3zAKAt8GezmbSSn60L+cy9msF0WAw+j8XB/H9zzqvf3+7TbkXlEIffcdsKUvlQqC4CWUSWO8vS0dkbrCKHLd8CCEPD145tF2pC4pRBDCgpbL5cNHj548ARKAxPN5WZZ7kA6YkIPnzynkK3GBFVKGYfTy1UubNBqPEUJ7UB6bIAy3t7fBKwII41egIFGGvejlS0BQlmVJnEyeTkD1+v/7/+iPYV0ppez1ekEUSmjqopQilEZRTzT9BgTjshDfvX79Z7/4xSJbtC6Gnl+cv379GnQsBkHgihaGCQy2LIpeb+vFyxc2KU3TLM3A1C6+H7gidSGMX756Za88RqPhOrULppizdl6O+s0NnnXpiClVJ+Wwv+YFLwCuKlIXZ5xE7d3+OssHKCjPcy2r9e3T71EXIs4YOE9zgnWnl+Gco+oYRhtsAYDVjM7W2A2Rulpga0G1wWspdQ2Bpi649kCJxgVZSbBSiuX5arVq5ZDxPI/lzO6LbrDSndqlHkJ29xVFUbhSuxQF57C/T/esHamLc65qh1GHD4V8vdQuuMrM0eBCN6R26datFtfSQYPq4PqDg60atAd6R2s3kkywpiBTBLI8NeBYXxfrYorOG1rbFhlLfNt03WBR5X7aENE1yerZWtCN48EeQvjeYXRfvp1y7zC6L99E8UzvS12rfkoOI1AQSL2zencGazOaD4Nt3k03WZWaJKUZsaxLB9Qsdk23hsoq4MN3Bqvc3behDi61kdEFniyF7/uteZ7+bceU0vW+77tSsuvULi2S3u2Huaoc7y0dbhTkeZ7n+xjyONQrEpDr64JFDoeRB3Hphzta6wAbRZE5b0bV/DWKIh3YvxmlSOowXfauS12zPtZnHuAlSEhB6fpInDl11jW26WqwNglVodS6wdrdV/eR7TACBbl6tha0fkAoeXp6KspSqXZUmNlsNh6NzIW5rtf76MPRCNksFxfrt45B0lsr5+fneZ7ned7gkhIRMruY6Whj1yS1Tu3iEpQm6TyeR2Fo59ienZ/XbzNLvVkYhkEQACQHWL7WYWizXJyfo+qj1AJ7cX5eMN7mQggpNZvNxuOx3RpnbHYx0zGPLLDJ8fFJttA3POpkBJJQ8u7du9nFeRD45stUShlFYZLE1Ao9RzAupfQoCaKwFbsdYxxF0XK5TOJ4tVw1BrrnLbLs/OxMSgmCLYtiMGyDVVK6wLI8n11cDIYDu/viOM7SzA98O0X6xfm5FGV/MAC7b2try06Rfnp6qgekh1G1i2dv2fCCcW7aQhkbQHrjpsXCi0JK2SbVe4g215rEOefYcPFUCnC3IK4bbDmMtA5KKZBLC6r/3AQs79KhQAg5wRZtLs2oCUBrnBcWS/37f/7TP82v5voOgS5SKurRZZoevn+vUGOlpf+UUvhBYJ9sEUXx+Mnkz//yL9kqb762vSSNX754/uzpUyEEvSYhTHC/F60NDvdsm6SpnWAd3QeSjCHkgz3LeWuXXClFMC4415cwPc/3Xrx4AV78yfP86dOndr1SSkk5mQD+i6gXSQE7jBBC4/EY9KEUnD87OLCvh+j8faCg5XI5GAxgHcJQKQU6jDjnz58/J5DDyAVWSokUAgXpqJagw0gptbOzA/pQGGNgazpKI0gSZdnv9xnjZvYbpRShVBQlofAmpg4BQK35mFLK8/3BYOhR/zpZjVKU0qIsHj95ArrhfN+nlOzsAA4jJeXuHuzHYZy7EBFCQdJoNEqTFHQYSSH3H+xHzdBoa0GMPX/x3K4Pw7ByGGGsk8ZD779bO4wKfu2/qEnXbgVeyB7sMGKMmSk71E3OmqLT46DcDiN2S4cR69ChKFCHw4hz2UxCohldrXUIqjuotQhTSnWHJbNL9W9AXzTWF6uresPFI4So3zt1p3uUusDafhzU6TCqwcIOI7d3jDMGnuDQPWs7jBhj6g/hMKq5WpjXbgVicd3kMHIJqk7ZAR4H/eS/gMMIFFSDRV/bYYRuX2wuXHmR6mKSzO4D/DgdPfv1HEZ1awj0jt07jO7Lfeko96ld7ss3UdYRlsGJlLp9apf1tBFK7aJUO1s7Ql2pXboFoUqQtHKDgDqYiL4iWATN0VG15wge6nK11iGo2yukDWt+m1t/3qrUJrpdz0Jgb0TU3X22d6wmbNKzpiCkHUau/Oo6a4ddHwSBKz+Jdhi1SPpPz/c83+LSJM8DdegQpD0yLR9KrYM5xWwh+rpgUXMeWf+p/VkuQWB9h6AgCKowe43MH4RSnfEdkeZ0nKDrEdNsihjj0h5ksso8A1qVWvU1WFdqlxvB2tTadLZ3zPM8IDtQxaUvf9iCdKVXlOXvfvtbnWCg9a/kxx9/tF9IWEfqOj7WL5kWy+VsJpWK47j92ibk5ORkOBgMRyOb9PHwcLVaBdYNo4Lzk5MTUFCWpnGSMMbsjdjLi5lCat7SQSmMsc4hAy7bXWA559OTqQ6x2WKZXcwQQvP53EZ0fHw8Ho0GVrYTpdSHDx/qFhqCGJuenoKvK56zq8+f46s5bW8vknyxqi7NEIO0/tPzvFbPY0yo52OMiT7nVJExQhgjSsmnT0eDQV8nWTd1uLi4oBjvtlIAabCfPl1+/jyww5JJ+eHwEAab56dn50IKu/uSOF4slqvV0t5HPz76dDW/cqV2KXjh+Y2LFwTjs7OzsigQQh716GTydG9/z2ZeLpeTyQQY6JyLspxMJjaLfqM/evSo9YEjhAghxuPxCBroLM8nk6cBcMOICyFAQWma9nq9yWRi70/pRDYPmzro33meTyYTcKC7wHLOpZCgDnpX+yGU2kWU5fbOjp3WRym1Wq3A1jjjUimYxHkSx5+OPkaNFDcKYyyKoiiLlhSEkFJl4AfD7bF+vqZSQuMk/vmf/fy//rf/kiSJuYfoed7V1dXjRw9Bq+pTAfsPHgBgi2Jnb88e6FLKVZ47wDKFMCio3++nSdovrHPGAAARp0lEQVQi6d8lL/Ye7IMDfbVaTSZPPGt7kVKq3w6e53u9/ha42x9FEejy8Hw/iiKQpdfrSSldJBdXFEXRVi+0QtLpMx4gS1EUUa/nEqSUcgnqbW0Fhn/RJIFgqVsHXQkL6gQL1lNKnSTPI9U58dZAl4S68sHr2P16dlJTMcF6XhcEgZ4R1a3pGUgHWErI1wJLCHaROOdlUd5B0Fa/b08+e73eeuqCEZa3DEkn/wAh6SQYku6WUdpqHQBBtXpCKONm4ReCRdWUdxOwqFrqwa11CBLC7tobSx3SHKHrs1tYNo5DmoJkVVxWxW6wtuaoMyRdna4HFGSTOgTVXHBIunoxqv/GlR+h1hIbxTRfq76DpSbhZmlwuUndglwatp7fRL0vAWsLsp8H27ytbuj2xfVGt7vD1qGDBILtBtUBdkMdNhTkUg/dO4zuyzdS7h1G9+WbKF49OVYKvrVhPm3Wd7DYpFZpcEGkGwWB1Durd2ewNqP5MNhmtwJd7hUYbNehLkwpEY1dF3zTyZnbWrVVbgX2RkEK6usbG7TrEUKeEHKTeY+r/lZTJYDLTeoW5NKw9fwm6n0JWFuQ/TzYJtiay70ShiGpDk9ZTRGplJQSEVwnd9H/F2WZJYkyLIYQooSmSarz2whjjav/RYkqoRVo1e4+6rBqh7U7BJmkDQV19IUnhPj973539fmzsm5tfPjxA7IuyCCMi6KYHh/L5s0a/fvy8lJJmSSJSdJbK9OTk8Fg2L50IyUi5KhyGF2TqhtG05MTUFCWponlMFrrMJshpeKmDvr3x8NDluc+dMPICbZyGAFgZzOEUBzHNtiT4+PRaGRfukFKffhwWLdgtlYWxf/97W/fv/8RNQvGuOA8jmPOeOMFrrdTlKqzWl/fc8dIFMXu3v4v/uIvZDMfPMZ4uVzt7e0l8dwM3oKQIoTyPD/6+FF/Wdr3ti4uCCFX8zkA9tPx58+f2xd/EFJSHh5+BMHyPD+zHEaalCTJMlus8hXgMPp0PJ9fbfX7doOHHz4URWHfMLp2GPme9+bt2/2Wx6vawnvz9q35T0dV/ovA99+8fWuzjMdjKeXjx4+VtQkVhuF4PB6Pxw0uuU4e9fTZM/A8ehAEoKAkSa6url68eGHvT41HI6XUo6YOqtpcOjg4AM+ju8AyxoIgfPP2jc2iM7eA3rEgCHZ2dlreMc2oEHoLIZJS/v7d+6s4MV/qSilCSME5Z4yXRetWs/aADoZDj1JhDAuCyWq5ePHq1X//+3/Qh+bNgc447wXer371S2SVJI7n8/nB8+e2VYfDISXkAeQdC3x/Z3fXBiulRBiDYPPVKuptvX7z2hY0n8/TJD14fmBvL/qev7e/N4Ri3CGEXr58aZ9HHw6Ha4cR9a+vr3Z8Dlz1t/qCAFxuUrcgl4at5zdR70vA2oLs58E2wdY8jxJKienMR4roHJM6VGwrr7kk2gEk9G5xdXZFYiWVEkIsl8uyLJDxsscYM848vKVcm+Vuq3b3UYdVO6zdIcgkbSiooy+81gLivvxrlWrxhBRurvZQe5G3ecEY6yF+PSwwXp+Kaf7za6nxx1facT3vy79WwY6Rtwlj601GcMMvpB8yH9a1rrfpl6D4yZb7ffT78k0U78a9SfNp157ljaSuTVCIdKMgkHpn9e4M1mY0Hwbb7FQAtTj0TEYppWM21OmzK6pEktgNSoRkU1D9MlN32sPu0Bxk2Qzs7XRwCXKpp5pd4Ckp6/utNbP+bZ+LN+tdLMj6JtY3YYHFByGozvfXXHx0C8LGBVubSxkHeDbX/A8N1lQbbK3j46qXoeBiVB9sNOO3YEx0cnRKqb29qJPBgKbDxEkC7VA/bJM2sXa3IJPUIcilnmHVajHKGNNRAeqHVLW7l+e52ahaHxMvXCw6MEOLpFf3jDHOeZtLn0dnjDFWN2II4k7dKpK9daCfd6mn6zcHy906aJ03B6sZOWdgTB8hhFLIq3LuXJMIobQ6iAi90fM8p830HhiTPF+xnC0WC2B7kTGKEWi6NVSHVSkhtwIrpeRu03UIskldQ6jmynPREe6iKMqPHz+u83IYKZgxwtPpNAhDM9yuri+KYjqdBkHYytqMEb68nEmlOOMmSSpJMDmZnqRJMhyOGlxKYkym06lUKjQarARxl6AsS+MkwQjrxhs6zGYKKdbUoUaEEAr8ACSBYPlaB4BlNpshhFjOALAnJ4ssGwyGJkkznhyfeJ7f7iqECSH/65//+cPhYeAH9XBWShGMhRCMsTAMzGtECCGliO95P//zfx8EodLOUT2aEWaMPX786MnDfakkaviSsBDi6vPno49HDR2QwginSZwtFkoh26oXswuK8WqVw2CXy0F/0AIrlZxOp2EY2aZjLD87O/d93xaUJPFisVRKmST9e3pysspX/a0+2H2UEM/zG0MI4/PTM1GWCCEvDMLvv/9+Z2cHWQUTDKamF0JEUQim7NjZ3ZFSPnjwwCb1tnqj0QjMGO959OmzZ751H0KUZRRFoKAsy+bz+bNnQMb4nZ1tpdQ+pAP16MHBgRnvqi4usGVZ9qLeq+9e2aTtnW2EEBiWLOpF29vbcNZ6hL97/bo10BFClBJM6XR6trW1VTtA9WM6gKjvea2BLqT0w/BP/vSHMOpJKVqv7UcPH/wS8gohhN6/fw/msUmTJE3TCRSxbLw9poTsQmHJoijc2d0FY7BRSkGrFpz3+4OXr17apCRJsjQD89iEYbi3vwfejyGUvHz50j5AsT0e6zh+Hqa4LEvwa16WJXgXoSzLbpYWaX0PqiyFfcNDSkyIbtBOKdYhSAihSfa3r2YB1SvL0k7aeGewqFrubAJWP1w32BroGPsE4yDwfd9vD3Qp9XAnCFjtMcZQ9YyurycA9bUDa/rE72JVQlxgbRNpaofpXIJAHToEmQ3anlH9PLq/ePGFYG1B9vNgm2A96iyOQ13XKW5MHUhVwIFeL9FcRgCt2t1HHQ3eTZBJ2lCQSz10f/Hivnwj5d5hdF++iXLvMPpJOYx0uc6laApyFbtBl6Db6LCpVUGWryVIQX19Y4N2PdIOIx3NqDXpQQjZ4Zd0fRAErgwbd0vt4vt+S4cbBYEJQGodlMNhZAv6QrDIchh1gNUP+76vE1TUFN01GK8T12NCUd2RSuoji0op12LUNUdft2Z9sbUOd7AqtZw1NVhXaheXoNqqt0rt4vu+Hzj7IgiClhEQQn4dqUsIeXR0lDeTeevfp9PpVhUWw6znRXE6nerwKS2Wi9lMSimauwp6yTydTrMsG0MBjKbTKcI4siJ1cc5dgpI0jeNYR+xuLdsvLi6UUvbOhkZECAmhAEYusGytQ2SznF9cIITKogDBLpfLERTA6PT0NIzarSGEfM/L0rTghUdz87WEq7ga4GIUIbRYLIUQjS0jjBnjSZKcnZ4qaDF6Op32t7ZsRHEcZ1lGCLGtenZ+TglpubpqsKs8H0IBjFyC8jyfTk+jKATOo8fxIlsQgu1dl+l0yjgbQAGMTqdT3/d9a+Pu7PRMlAIh5CGFtB8ZmVrqNyLRZ6EN4yqF9ck44mCpqCYJoyoIukVC2u2MSVuHmwTVQbl14y0d1pWAegTQ4a5gtcv9VmCRUphgoq+9XbeGEMZKihcvXu7s7rcCLFJKF4vFr3/962cHB5zz2s+vECKUXs4u/uN/+CvwLsLHw8NSCHPHzdDh1latSSBYm3RNBQVVPv0OQSapS1DVfW2Dr+vXh/g9L/AmTyfb29vIKlmWPXr0yK6XUhZF8fDhQ5vkeZ6UcGqXsixHoxHoQ1ktl08mT2w/jhSiKEtQUL/fj3o9WAdKlSO1y3K5fDKZgMFEXWCFEGUpQEG6HTC1S1EU29vboA8ly7LJZGL79pBS+/v7fhhR2giwSD0ahuGTx48ODg4YY+b7j3pe6HuvXr0Cg1dJIZ48eWL7UBBCi8UCRLTV6/XTFCTpEzU7u0Bql4Lznd1d0I+zXC7B1sqikFKBpF6vl6UZSOKM7+3DOWQWi8WTpxM7aW4dGNXDVS4U+5WgM2zYX3OdfKODpUWSVV4OYLe/Su1SFIXpx7lRUFmWdQqX1revZgHVK4qCQCkT7gYWORxGIFj9cN1gqzVk+JLM5/U0TKcuaQ90Ibg7WY1On9IKNFnrcAerSofDCDQRql6IHR0BCgJ1MAVF1sRv3SAvbIeRbgrdO4y+EKwtyH4ebLMbEahD7QPS9apahuLO9Cm30qFVbrSD/TzIdTdBJmlDQS710L3D6L58I+XeYXRfvonylVO7mBFZa5KsstYDgnSMVnnr1C612hJK2+DksgR9IVjkSO0CcqFqzg22pmlQHzkdInXpNtHmOkij2HbAtwTbbTrlFmTr0DWEHGDN7kM6tYsOBGUbWOeTt+vDMARTeSCEgiAw1xC66D91QO42FyEIIT/wQR26BenWbKpefsGIHILQXcHW6AxAbrCVoMCKBF/zViPZHM3riOaUUkJpYzFKKaG0Q1AYhuAX+25WdaV2cYElhLgEhWHouwXZOtSCOrovrAI5tQRpC3hCyf/3+9/rAEYNZx3Gh4eHBBvpP6r6oihOPh0jjJHFcjmbSamyLDNJdfCq4XA4HI0aXFIiQj5++MAYAyN1nRyfgIKyNI3jpCgKIFLXxYVSKG3qsEb04QPnPIAidbnAcs6nxycII5tldnGBEErT1AZ7/On46vNnMFLX4eEhrt/i6zr9tZFJHEshUCMal0JSSlEmcXw5m5VlYQxchYkXX129f/euLWgN9rAoS9/3QR0IITZLGsdZlrFmenJNuji/oATHUAy240+frubzARypCxbE8/z09EwnNGtH6orjRbZgvJm0R0pMyKejT3ES9+FIXYdCCDBS19ph5FG6u7e3u7trm/7q6mp3d9f+mhdluVws9iAW/flokfR1xuVyORqN2p5RpTDGyTze3dszHZb13tByuQQF+b6PCdnb3TXvSq51EEIpBXLF83hvby/wrQs+brC8KFbLFdiajl0Igl0sFtvb26Bn9Go+b8W7Wgti7Fd/9cu3b98oaamdJPOr+bODZ8racfv48eNoPG55JSuw8729Pb+Z9aDWAUTkUer5PmjVsiwpITDYLNvZ3QU8o0rN4xgUxBjLcwYK8ij1/aBF0r+zNNvd3QU9o/P5fG9vz4N2qNcOI0Lp9vb2cDRCVhkOh6Px2K4XQsz1u9kqjHMpJUgajUaj8Ri8YTQcDcfjMXjDaD6fg60hQlyC9DVBGNFoOB6PwRtGLrBlWcbzGGwtZwwh1AUW8o4Nh0PQCGUUxUkSRYA3hBVFnxeg+6nf74/G4wFEGg6H4/EYnI8NHd2nr5+BpFWeU0I6wLp0AFkiztM0A0kSKYydgsbjMeiZ0mDtWU3tefBUdSwEfGOB6zP4rpDB0iLJKlkXkENGSkyIvlQC3jByCZJCaJLtcRBGIGxbPdcNo7uBRQ6HEQhWP+xqrUOQktIGWwsSnZewCJSm3W1VQNA1WMuqHTpo6o1gbUGgDrWg7htnXTeMcFXQvcPo9mBtQfbzYJt3083U0K7csMFNdGiZwtXahjrcTdCXgzUrr7Oc3Zf78kdcPFylGDZHvLq/eLEZi81oPgy2eWfdbLBgfXeDdxPUweXS4asI+hKwqtkFHlIbfUxd9V/6gXOTugW5NGw9v4l6XwLWFmQ/D7Z5N91MDe3KDRvcRIeWKVytbajD3QR9OVhds16MLpdLUa0M6ieUsWIwW1TGxB9k0YuwFkkvTzVLm0tKDJFuFCSl1KTa9WVy1as3ENFXBIsQcoGVlg6asaO1G0km2A5BHWA31AGwalkiSm8Ftu6j2wn6ArDEyjNalmWe5wghbzQe/Y9//MfxeFsJ0YhFidEqz3th1DjiqxDCSEnFOIuiSP9pknhRIqWCwLdJjHFKqedRm5TnLAwCvL6OsJGgUghRijAMIB0KpBCoAyBoI7A8ikJYEEKB7wDrUY82wSKEFFqxvAch6hCkRywIljFGPa8taA02D4OwDbZThw5BnBcYY9/3NtXhBrCS8eK2YHPGfM+nlIDdF2knqDGEMKXxfD6ZTBBC/x++lK7wmN3/IgAAAABJRU5ErkJggg==;" parent="1" vertex="1">
          <mxGeometry x="1025.61" y="325.75" width="68.78" height="68.5" as="geometry" />
        </mxCell>
        <mxCell id="VbF63WBLG-6_UuNDwzdS-48" value="" style="shape=image;verticalLabelPosition=bottom;labelBackgroundColor=default;verticalAlign=top;aspect=fixed;imageAspect=0;image=data:image/png,iVBORw0KGgoAAAANSUhEUgAAAPgAAAD3CAIAAAC/5Q6JAAAACXBIWXMAAA7EAAAOxAGVKw4bAAAgAElEQVR4nOy92ZIkyXYY5kssuVdlVXVX9/TePTOXIATDRtAMRpDQG0UzmR5E6o2mF7zSYFo+QtInyGT6BwkSDItEmigTNhMuQEAEcWfu3Nu1dGZX1pJLRGTG6ufowTOjPMLdo7Kqe+Ze3C4fs54sP3E29xMRHue4n0ODIJjP55wxJJVGCWWcgQAkNQghhDicCyF0AOccAQCAUKqQIoiEMopoIEUJ4ZznRUEVlHVD5I5TmECUUkoIIFJSlQ+RMUYIqcmwZuQ4eZ7Tej8lBBljAgARS+jmf5QzVgihMpK/OWOICIiU0HKUKKWIyDlHRAAgiKRKkHFe5DmhlFaHSDISACCAMqoyYpQRgmte19QoEuScAwAAVKlRJMgZFyDkmNRk4JwLABCCMlYZbc4B160ySkg450gQAGoDTglhnAshKKVEnWBEyphZIySMM0KIKIraOBBExjmlVAiBgCUWQUIo4ZwLIQghFfEQKaWMc1EIQpDUqDE22NnpdDr0v/nt/+rRZ4+Hw10AVHAJpWQ6nQ6He1VEQikRQgSLYLg3VAZwDVouV4jY63WrIKSUBkHg+X7L93XQbDbr9weOw0vQjYzSNE2SdGdnoOq8kWFJkHTrMhBKyWw2GwwGnHMdNJ3OhsOhrmwhRBgEw6FR2SUhpNs1KLtYBK2W71eVlYiz2WzPpFFRiDA0M0qSNEvTQV1ZyWjRarV937Mou8M5216GJEmzLB0MDKMaRUtGaafbMSlrkEFCZ7O5RdkiDKPhcFdnlCRplmWDQd+g7HzR7rQ9z6DsdDbb2dnh7FpZ+WydXU2ns9l/9z/89+S3/9W/iqIITe34+NjYj4inJyfG/sViMZ/PjaDz8/M0TY2gd6ent2WUZdlkMjHLMJ/bZDi1M2pU1ow1tzOaTCZZlt2akUW8NE3PJ+dmRmdneZ6bqVmGrkGGNEkuzs2M5vN5sFjcVoYGZd+dvjP2J0lycX5hBJ29PyuKwgg6sRnkfP7f/vZ/jYiO67pRFLVaLdRuoNVqVVs2yP4sy1arlRBCR1kulwDQ6/VUEAAwxpZRxDnf2dmpYAFQxlar1XK5VGVYM0pTG6MoipZRJPb3JfGaDIhYk6HUaLVa+b6/vbKpXQb5RLcp67pu7dEoEW3U0iRpVnZvf09VdsNo6fl+v294/q1WqziOPc/bXoYoiqIoGu7t6aMaRRFnrNPtmpQ1yCChNkZJHEuQkVEURcO9oUHZ5bLVbtlmNkkS13VrJhRFEXMYIcRBRM65XFPWkBljnHN97jnnEqSjyOtrIEmKcW5gtIaxGuhGRiWO/F2TATerZKNGH1FZIj9LTMrqWBKxgVoTSFN2w4g1DJGu7I0ycPuocg2rQYYS2qysmZFNWXYLZdU5IoQwSq4lu2/37We1sXs7v2+fQnMQpT8Q9NeBBOlvc3mxDUUHAQBZu8c0RtJdpcmwPSNJ/EYZVI0+orJSO7OyGpat/2ZGG5CqbAOjBmVvQDEx2mpmTco2aAQNjBqVbZ4+mwkRQhxKqO/7TPWnbprruuUSR22+77uua0bxPBCiBpJ/uq7rel4dawMyytDAyPM8CdKhrucioE2jj6qsW2qnKLTWyNOV3TAy9jePqq7sNox831ct70YZjIxKFLmw3l5ZxtiNypqmr0nZhunzfd/ISI6AI4ri+Oj44MEBIpbrdSRICR2PRr7vq4t42Z/n2Wg08jxf/qmCLi8vADBLMxUECIyy0ehdsAgGg0EFC4FSNhqNAND3rwmuGWWpjVEYBovFghIqiVdkuDhHJGlVBvl7NBoRRCNBm7JZlo5GY8/zdJSLi3NCSBqnBmXfvYvCsN+vKCsRx6NRy2/p1LI0Hb0fe66BURAEYRCUxKuMRsvlstfrG5WllLpVgs0yBMEiCkNEoo/q+fk5ZzRexSZlDTJIqI1Rmibv35+5rqszWgSLZRghokHZ0SiOV91uzzh9nDHHcSsmROnk7EwUghDiEEJ831t73KrIrucZ554y6nmeapclyPN9AKiBpJSe53m+hoVAKfM8z6+C1owosTFKM1+C9JHyfB8RzeJJHJOh25Qldhk83yeE2JX1ayCJ6FqoEYJ2Rp6ubAMjVVnPZOg2GTzPwKiUgTN2K2UBwaosgpWR5+W3V9b1PM/3Xc3Qfd+X4VWHOfzw0aPd3V2itflifnBwoPcDQBLH+wf7OogyCgBGUJKlO4NBr9fTQWEYPDw8dBynzkiIJEmM1Frtluu5ZhkoQUQjKAiDw8ND4xLFpqwQIk1SIzU51Pv7BlCcxsPdYbfb1UGLxcJITRRFmmVGkN/yfb9lBMXxam9/v9Pp6KAgWBweHhpf9DYZfN9rtdtGEBLkjA339m4pQ2CkVuR5lhdGkOd7YbtjBK1Wq4MHB+1226BRsDg8PDSs0zZbQhxKaRnWqi3wi6Iwfp/leV4GqGooeZ7L5X/tk4UxVhixAChjRVHkea47QRsYFUVR5IX8BKk5YtUonY6V5zlj7GMpSzafYpqyhY4lL26g1qhsXlN2zagoGqYvz3NjwOhWjK5nljGzsiYZJPRGZXVGNyprDG5KkB4wkoIR6XWhlEpYzdtfNqK0Wn8DSgmi1VbBsoOaGdkkrF2/jXgfoqzOSL/eSPNusqkS6p1bEtxGhtpQ2KhtKcPdGH24smqn4b123+7bz15jtXv9vt23n8n2kQNGsGm1lRwhBMHE6FsIGDVjfVxlyXcSMDKGV76NgBEAlNOkjwO9pbJ3CxgBbCT4uAEjKERDxMHooPB8ryGOo35DyLb29nuuAasx4lBGhYyy2SIO8vPLhnVrZe0yeJ5H7AGjBsmbQ2BGlIYYSgOW53ulh24bGVzXdT3rqHKtv1mGhoBRU7xvE1i8bXTM8319ceJ5Hl0HjED88OuvDw4O9Lvk6O1boj0MKKVZno9HI+PX9OXlFSCEQaB/m4/G436vX99QD0AZOz4+juNY3T27ZpRl4/HYyCgMw0UQZGmqf7ZfXl4iYlCVYa3R8XGaJDVHxA3KZtl4/B7R8BS5uLwkhMhd2jVl341GO4OBvnMVEY+OjuiGQoVRmo7PztD0uAqCMAzDNE10R8S7d+92p1PjztWjo6M0yzzFEXGjDEEQRFGUJIk+qucXF5yy/YO5QVmTDBJ6fHxsZJQmydnkHMCwTXcRBMtomSSxQdnTd/P5rFvdKix/vz06yvPcdZyaCU0mk3XAiHN+eHi4bzL0IAwfVn2Tsr/I8yxNHx4e6iiUMQCogaSUWZ4PBoP66RUAythyuTw8PPQ0Qy+yLMsyI6N2p+P5/sPDQ32k5IvMiBUtl4eHh67J0G3K5lmWZbmRmjzK8vDhQ13ZNMt2d3eNhh5GkZFanqZZURhBrXa71WrVlF0zStPh3p7R0KMoenR46JgM3SZDq9Vqt9vGUZVHBw8ePDAoa5JBQqPl0sgoS9JCgJGR32pF7ciobJKk+wf7RkMPo+jw8NDRDJ2Q9bE9h3He6/eNoY1ut2uM7xRF0e12jShxHAOAjZoNq9vtdns9uRKoMPI8GwoA5HlulqHXQ8QGRq7rGkFGZXO7DPL6uyhr6s9d1wYSQohC3G1U9TBcgwyiKGzT1+v1OGMfS1nXcWygoigQ7NNnZ9Tr9fTFZ6/XWy9dqDyIaloeyAMg+kNOCNGMUgPJ29EIkk90neCNjABAgvRHQoliFE8Iod73H6gssQSMjMrKixuo3UrZklEzQePBi7uNKtFGtUEGCb1RWZ3RhyirhgJVYyD3AaMPVFZnpF9vpHk32VQJ9c4tCW4jQ20obNS2lOFujD5cWbXzPmB03z6Jdh8wum+fRHNAWdGWvfJ3rbPW34Cig2qtgmUC3cjICL2zeHdWVkdULzbSvLNsurLG/maCd2PUgGWT4aMw+hBlsToFjhDAGNOXSoQQ3Z+v9ttQiLIElE1eXKJUsBgjmwPetTVZM6OSoPy3hoXKh8f2kn/byqpi30o2o7Jlz60INstANyjGUdWxGmTYZrSbGX2gsmW//OEIIb7+6itjwOjt0RFadq6OR2NjJPbq6goAjDGU8Xjc6/cHfUPA6OT4uJZuBTc+7PH4vZFRGEZBEKSm0MbV5SUiLqoyyN/Hx8eJluqkWdksy96P3wMYkpNcXl4SQhZzQwxlNBoPBoN+v+5aRsSj42P5nKlRy9L0/dkZmLKgBGEYBaExhjIajXaurox+9OOj4zRNXWPAyCJDEATLKJI+4tqoXlxcMMZms5lJWYMMEnp8cmJklCbpZDIRotAZBUGwjJZxvDJFx0az2dToRz86Os6yzBgwKvKcEOJ4rvv6zRujoQuA12/eGOfecZzXb97oKL1+HwAePXqkD4freoOdgTGBESHksydPjAmMHNc1MpIpI58/f66PlBzxw6oMuIl6PH361JjAyKZsmqau6xll6PZ6hJBDU3TMcd3d3V1jAiNANFJLk8T1fSNosVgEi+DZ82f63DuOM9zbMyYwQsRnz58b96PbZFjM52EQPq0ykqBOt8sZe2CKjhllkFAkxMgoiWO/1Xr95rXOaD6fR5oM8jfnzv7BvvGuBsQXL17o+9G73S53HCJPGH1XCYxMyYM2L6S7JDCyZ8DBn3gCo414upE1ULsRRD8sp89WMnB7XiFbAiOLsqUMW2qkyPAxExjJPx1UmjoW5P5j9P5jdAvxbDJ8FEYfoixWp8Ah24UwbP0NKOp9b8Wyg5oZ2SSsXb+NeB+irM5Iv95I826yqRLqnVsS3EaG2lDYqG0pw90Yfbiyaud9wOi+fRLNoZtDDLbXgXp181usAdT03tnuLVZjZITeWbw7K6sjqhcbad5ZNl1ZY38zwbsxasCyyfBRGH2IslidAgcKIRfstXcBIUTPzLTud3gDiv4+Kj/aDE7QDahGsKRmY1R+yqgb1kostPjRGwhalW1EIZofvUFZeXEDtVspyy1DVyHo1EHNMjSPKtc0apDhZtksjD5AWcdoQvKHUwgRLIKatxXXvuowCAKVqOwv8jwMwzAMDShBAADtdlsFSd9QGIZSjgoWAGUsDMMwCD3/2hG2ZpRlVkabpvun5LGPVlWGa6wgMO5HtymbN8gQBISQWvaFUlk5N1h1RCCijVqe3k7ZkpHccW7GWgTm/eh3GlXGmFf1zDbIIKE2RlmaWhmFYRRGNmU937PEVcJwseCaHz0IAnkMz0HAy8tLQglqpV3ms9nV5ZV6l8r+PM9ns9nV5SVqFTauplME4NXaKYDIKJ1Op3me51mGWm2Q2Wzm+y21NsiaUZbZGIVRFCwWnXZbEq/LgMhM9Vtms1m71TLWBrEpm9lluJpOyToQW1d2Np0KIbI0Ra2sytxCLUutjIIwDIOw3W6pypaMADBNEqOynU7Hdd3tZZAnjFqtlj6q0+lUvqOMyuoySKiNUZqms9lscNnXGckTRq2Wb1SWEEzi2Dh9l92u4zgVE2L06vISAQkhjud5X3z5xc7ODtEaIL56/UrvR0TXdV++MoAGOzsAYEx55fn+YGenZ9o1Tyl9+uwZ13bNI4DreUZGy9VqPps9efLEIMNggIj7JhkIpc+fP68tUWSzKQsAnue/fPVSB/UHA2LJ1OV63u5w2DUlr0KCRo1ACK/lv3xpYBQtl8F88dmTzwyMXHdvf9+YvIoQ8uLly9pyolmGKIrCIHj8mYFRr9+3ZepqlsHISBRFq9V+8fKFDgqjKArCx5891kGO4x48OGi1WjoICXllNMh+nzucEOJQTtM0Nb4O8jxfVxsryW0io2VGrvorKcv0c9rro3RZlmcZ1FYUAJSxPMvTNDVGRm2M8iwredXefbJ4kAUrT9PUGBm1KZvaZciyjJgOxl8rW13VSEQbtTRN8+wWypaMsiyzaZSmqTEyerdR5YzZlNVlIJtTYHZlzYyaldU1UpXVI6OybBaRASMZcNKRaXVjTdlf7rDRUaRkNRDZ7LkxMCKEMkYZrYFuZEQ3oTKinMMvsaRSBiyN0benrI5Vk1CnJsUzgnRlGxjVhuhWMjSMqpFag7JkE9G0KHsDI6OyzdNnMyFy70e/b59Iuz94cd8+iXa/1+WDlNUR1YuNNO8sm66ssb+Z4N0YNWDZZPgojD5EWaxOgUOAuK4rVzklsvytp1kq+xtQ5Fl6FSTdKa7rOlWXPtkEjHSCNzJyHEeC9IhD+UViFO/jKkssASOjsvLiBmq3UpZbhq6ZYLMMzaNqCxjZGHHOb5RNZ/SxlC3712QLUbwfj/M81/3o55NJr9szuJbzfDKZaKXBCaXk4vISABBA97ZOziar1WpnMND96JPJhHOuFhQvfdg2RkEYLhYLz3V1R+zFxQWuvS51rMlk4jiOb/Kj25RN1zJ0DCgXF4QQEMKg7GSSJMmg39d92OeTSb/XM7qWJ5NJt2NgtAiCMAhd19Fdy5PJJM0yI8HJZOJ6nmfyo9tkWCwWURg5jqOP6uT8nDNWFIVRWV0GCbUqmySTyaTTMYRB5ovFMowchxuVzYu8Z7KH88nE931X86NPzs7WASOZRmNd3rdaLkMACBB6tRMQAgCEAL3ChhACNRAgIGUCBAhRx0KglG1kgEpdjkZGa6EFSOI1GQiiGWvNyST57ZUFIQghZmWFQVmJKOzUbqVsyUhYNFory/itZBBgHlUwjWqDDBJqYySElM7MSGgg+RvsygqpK2UVE0JpkDJg5HvPnj83BoxW8erxY4PfHhGFEI8eP9JBMkJrLgiDYAsYpWliCxgJACOj/s6g0+2aZfBctASMkjR5+uwZMwWMbMrKqICRkaxKZwwYCRC2gFEcx0ZqIAQQYgT1Bv3efGEECVEM9/c7pmBNksRPnz0zOhtsMvT63TAIjSDHdWwBo0YZErPYRUEoNYK6/W4UREZQURS2gFGcxM+ePdP7PdfdBIxkhAUQ8frEJG6c8GAMGOV5nufGdJjrAEE9rICM0TzPCx0LkDKa53mWZS1TklEbo2IjgyRekwERbeJlWeZbIg5mZe0yrEu7bK2sRLRRu62yJaM8y9ASMMosSUbtjIqGUQXGbMrqMkjojcrqjIwylIwaps90ZpTJ6CG5ztTFKEHF1bj5mKPVGMp1P6WUMaIqZgdRArQ8FV/DsoFuYkTkVyBjknhNBkLI9uJ9iLI6o1JZgwwl4h1k05RtGtUGgtvJYBzVW84soQQ+hNGHKqv0k/uA0X37RNp9wOi+fRLtuyvtYgR9UGmXDcHtxfvoyhJbtRMTFtnEL2zUbhxV0Kud3FLZG2XQGZUgektlmzUqxdMZNSjbPH02EyKEOAjQUF9d94SQxqr1vu8LS2kXWZW4jrUp2WGUoYGR53l6AZASC+ylXT6isrJytFFZ16jshpFt6BqU9WzVThoZ+b5vfGPfitEa5PuO1t8sA7OXdimVNTBqVLZh+nzfNzKi64BRIX70ox8ZExidnJwYU53kWT4avWOm9BqXl5cIsFoua/c9Y2w0GvX7fWPFi5OTkyzPjZm6RqORkVEYhsFiIdOQ17a/XV5cIOKyKkOpUVEUxn2eNmWzLBuPxowbdsxdXFwQQpZRZFD23bv5fG6seHFycmJM0J6l6fj9e+PWvCAIwiAsqnmt1oxOTxeLoNc35PQ5OTkRAlzP4HWxyRAsFlEU5YUhgdbF+TljbL96XKhBBgm1MUqT5OxsIuuM1xgtFotltMyLXFf23clpGAZdUwKjk5MTBHC0bbrnZ2fr0i6U0p2dnXoCLURKab/f39nZMRp6ECyMKHIncQ0kpQyCYDAwZ+qSjIyGHgSBkRGlFAF2dnb0kcrSFBEbNDIauk3ZLMvCIDRSS9OUEGJWdrHQ69hIRMnIaOhhFBlBhBCCpKbsmtF8PtipF0tSNTIauk0G6akwjmqSJJwxs7ImGSTUxij1/eVyZWSEiIwyo7KL/nyws2PM1CUZ6YaexDFllBDiOK6zt7dnDBjt7u7u7u7q/UKIMAyMKLLQuBEURdFgMOj3+0ZGw+FQr7giiiIMQyM1+fQ1y5Dn0tBtjIzVTmzKFkURhZGRmvSjG0HhcLi7u2usFbO7u2sTO1oujSDGGGfcxmg4HBqrnezu7g73hsb1mE0GRqnjOEaQPHhxBxnMQ9dur1axEUQpdR3XPH3D4XA47JjCcLu7u8O9PX1Vk2eZ7HQopQ2V4Y3fZ0VhKHSvotRAsCnkbqjLAUAZkwT1SksNjIQQDcXkcdN08YqiMOY0u5uyZPNtt42y8uIGardStmTUTFA/D9Egww2jyphNWZ2ghN6orM7oQ5TVTxjJ68l9aZcPVFZnpF9vpHk32VQJ9c4tCW4jQ20obNS2lOFujD5cWbXzPmB03z6J5tTu9fumt3IhpPao/9ZAZU8NpEKN1JpB35J2n0hzoLgv7fKtnDDSsT5ENvWCrUbVQnB7GXC7Uf1wZRsYfYiyWJ0dBxENB3+kj91xjIduHMdpQAHLCSPHcQz5xDYgx5RPrIER51yCjEdUUPnw2F5ym7K2IEW71UJLwKjVatmwWq2WmVqnYwP5vq8ryy1D16yshN5tVG0njGyMSmoNshlz330UZcv+9Q+B8FVZ2qW6mf3o6C0A6GcR8jwfj0fG/e9XV5eAuJgvatvzGWXj9+N+r9fvD/SDFycnx8vVyvf82sGLPM/G47GRURSFiyBI4kQSr8hweYkE51UZ5O/jk+M4jj3X00E2ZYsi//73//Jv/sN/IJWGlPH5dEYoGQ73AAS5RgTGnPPz8729YbfTFRVPDhJCj4+Odoa7lCisECllaZqmafLF51/kRa46IjhjQRC0Wq04jlVl5e/R6N3O1VWv2zMoe3yUJKnruvrBi+OjIwTUUcJgES2Xq1Wsj+rF5QWndG8602fWKIOEnhwfGxmlaTKZnBdFoTMKgsVyuVqtVgZl372bzqbdTtcwfcdHWZo6jlsxIUrPzzalXVzXffbsmTEymqTJs+rOfdzEUBDh2fNnOkqr3QIAY7UTQsnOzo4xMprnma20CyIaGYVh2J3NnpmKkLRaPiKaS9Dnma20i01ZURR//Cd/djlbMKpOIbqOM50vKKOUu0VRqEe7uOOE4bLT7XEnB+XUEhKklEXL1SJaMsYJKV+yhDGWJHG/1yWMAZYQgkgYZUDI4eFDY2kXRNjbN1c7ybL06bOnxgRGaZoaRzVYDIIgePrMMKqe73HGDh480GfWKIOEZllmZJQkCWPcOH2LxSAMwqfPnurKAsDBwUG3Z6hhlGbp02fPdPei77rr0i6UUvmeJVrzfd94moMx5vu+DQUAaqA1S9/3PK+OhUgolYx0goxSGyOZcEvPDiVlQMQGjTzP215Z4TidTsdvd2q24jg8SRJKaa/XLQqhjjt3eLxcdtrtbrerZv9CRMZYu92mnDPGFWrAGHcc3m63O92OuoiSjIzKNo2qopEehpMgI4rn+w2jyhm7xcwSImfByIhsQEZGmW/OPeb7vuc3KauHAv1Wa710wc3+Mp2u3A6mP+TKbWI2lBqovB3Lz4XaE13HupFRKbb+SDAz2k5ym7LGbHUgBGVUnrJUqRGJhesjjipICkyUT+qyXx6VlAdr1S8qVWzjQ+5WcyGh1lE1MSqp0Y2o+swaGW0jm5HRR1FWNQZyX9ple2UtIEYpqUHLHqt4NzGyyaaC9M4tldVH6VYy2OaogeDdGH24smrnfcDovn0S7b60y7bK1kDrTulTqCt7wziQm8bHqOONoG2U3X58cLtRtcnwURh9iLJYnVYHCsF+CkqkN78Wifaq0i9QsdRraqBt3n3GfgvoJ790aZ4+o+Q2lJ/pEukAcRwnSYImH1AcxypR3LgXkySxoRBEmWOgBEGZMlymbTC4F3OZgAarXxKizOlTT8XBAFCCyq+NEiQAUKbaMWAp2Zq0rxnjF2e5CVGdwuuHx8d+okt9CFxrVH6Z1ZSVFwoB5Z6+mkZZlidxXKu5LqGpZfrSOJYzq38jyv3oNSx5mUTRa7EDgM1OpABmRiYZVEbGkxzSVnX3YhzHmyc6wGg0StNUT0k3mUzarbZ6l+KmtMvkbNJqtVDLTvb+/dn/9zd/c7B/UKjeBgDXc4+PjuNV3O11hQB1pDzP++aHXx8dvfU8vzTN0vjSJG13DNWIiqIQReFXM+2X9yEhxHi6Il7Ffss3nuKJl8tWp+5DpJQi4ng8JliPuUgZKKHcqVZMRoKyfIXnc4dhLQxH6Wq1gkJQpgyrHAohXM/v9fsIoHrl5Tbmbqfd7tb9x4SQIi+evXjh+75AKD39lNAsz3YHO//iv/gXiDI1n6oXTM4m7XYbtcRuQRAso4hSakz0xxhLq8Vq5GVnZ2dxnPR6lUxxEjqZTDomRmmaTs4mvu/pjIIgWEZLSomeku7s7CxNE2OKwsnZxHUcvbTL+dmZKApCiOO53ve+9z3jmQNC6Zs3b/Ru6Sl/9fq1Dmq12z86Pun2+0IUijWj53me70fREpAAYjkachLiOP7qq6/a7Xbp4CuNDNYVkQwPYLIuVGQCafn5y8czWxfi0UBFwUxH6Qghi9msKPI6iFD5aKXKlfJvBKSMOZwRYmBUCFFkWe0tT9Ze55Zjuj9RQKvXqT3JJJQx1t/d9TxPDcEySldJMugPXr95I4QgpGp/gL7fevP55/r0RWEYBMFnxoI5OzucsT1TWjLf9/f2943nIRhjRhMq8rzT6b589VIHycptxjo2nucfPDgw1pChjL169Uof1d2dHcd1iSztYqsoIk8P6HOfZ1l5wKL2FiuKAkG+mgkhlS+Jco1Vmy3GGOe83W4bDV0IYXxVAQACcBNITq3tdIXcb2MA5Tl3HKOhr5ZL43FSEEgYYVVqZPOsdRyHVR+N8neW51Qu7asNAFzP81stmb1sTQqQMgoCZOhHZ0Qplds8mGLolFLPdRlj8hADqX6QAIA+feX4SJC+opAHL2yTrpdwaWaU53kDIx2kMjLGkoqiyLNMP0onl8pkffDCUlGEWqqdUEspj/XXAJMfW+pnZd2Pq7faihY/zH9SXmDEKv+sgKByff0aQNUTu/kTCRBkBiIssRUAACAASURBVChlFBFBLrIVgrD5ZR0HKQZcoxAgiIBQV7YmobGVI6+OfzmzxhmnSskaI8g86bcs7bINI1LdMGdjdI1VfYyq1Mi9H/2+fSLtPlPXffsk2t1Lu+jLNfkvCJBOsutvc2Ufgs6o1uqMtFf2NiBd+Ov1CbMsXRDQsjCQ6hJgCggIsPVKRP7QoTZGYF+3rBuUb1r5G5S1iy6hPqrkeo7WW2tqS+fmGbfOxdbTp0Pvxqg6BWZGNvGwagYOCrj1WQTX0TMwyT993/d9z/N9VqheF5CZmRzHcVyXUlZ+bIEAmSKLKk3lRRm1rTJJA8gWMGK0doGCZY6tXENVhyAwyqg0bvlDh1oZMYo1P9xmYjYo6muWSckkxRo1+SfnvHaiZd3pOL7vyyMLKhYCNJR2+dk9eAFweXlJTY6I2XQ225tVxmjjqB6Px+uy8OoefMbevXs3Ho2SOFbdNQDgef75ZLJYLOIkhqof3ff9MAikfwAESItZf88BClGUf27mCSmjQggCgEZQmYVCAxWygg2jBlCRo7Taa4PAjTBwlyc6BaRUDpk6fAj1L7ZyYhARQOiOGgFQFHlN7FLCMAg8z1OjE4zRJE3n0+nbt2+F5nURAPPZ7PHjR+puTTmzi/l8uVx2ul3dGTK9mnJGa/5cedl0OkVCaqFACZ1NZ/P9uW5aSRzPptPd4a7OaD6fR2HU6XZ0r8t0OqWM1sKRG1ud9vt9PWB0dXkFZWmXKIrarRZoyMvVMgxD3dDTNP2d/+13Oa887xHBcdzz88nv/q//S813hoRQQgCx5qystcAG+GlpwvKnMEKLwkpI9y3KzixLsyw1oiTxykbt4uxM7xSF2H/wYDafi+rShVG6XC5/9Vd++fHjx6vVim2emojocD6bz13GwjCUEesSRCldLiPGmF9NSScvWy2XrueVV5YyIIA0Id0u0yRZrlZmRlG0XC7roA0jv+XL1Yhmq6sojBy3khqIURpF0bq0i9/yX79+bctE9fz5c8MgCrG7u8sdt2boruvJLG2EVp05CIQygjVTuG/fYkMEh/Nur7cJGJUPe4aEDPf2Xr56FS2XDi+NjHDOe1dXLudPnz3VCbY7HYex3eFQBzFK9/b3jXGcQghjxRVRFK7rGUHRcBgG4ePPDGV2KKG20i5FUbx69Urv73Q669IuiJimqc2rbwwYpWkqhCCUVb8JgLH1OYN6fFuuWXG9ENal+dSaujhp7rxzo5SRjRuAaB+jQog0TfM0FeU6GJE7Tp7nZXrv2ooiS1NhCRjlWZ5l9TNBEqoHkkoTkiADoyzLs8wYMMrzPE1T4+YOCdKXLmmarj9GyWbnl45MLQEj4z7Ecjvdh03QJ9FsS5ePzqicEfUT7Xpmld2piKhGZIgWx2GbVrNmxtZf3rcKGJW7EY2MSsH0gFGzreoBo9KA7wNG9+2TaPcBo/v2SbS7lnbZLP4UEMCm8GItJlLzvv1k29/RGxvRGmYi9kW/jBgRcr19EeWWm83GfJU+pVQIwTcHjWsgAGCbs8bqGp1YAojkrqVdSmqgl3ZBRNi2js26/7q0i7hTaRfPc9xKNQ9EcF3f9TzbxygUKAoB2j5ssnEh6/1EboI1Au7aQNicP1gI0HsZIZRSYRJP2hbcEsQt1AghDmdmbSnlppzua4KM6VaOCJxx1/OY5nVxsqzVavUHA6IEZRDRcZw0yxgiU9buZfN9n21W1ddqbirzfMTSLq7r6qBrRn5THRu93ytLuwiA4+PjBwcHlXAdIqF0PB63fL8Sw0MklKZpenx0JABqyUkcx5lNZ1h71EtogY7r9nd26Np0S5pICAUQjuMQSq8huN7oLQA45xqG3OUHzAQq96NXQIQQREbZYL3zvgJDBM75cLiHCCo5SiggJEnS6XQQK5woZdLnLc+LqCBGWRKvuOvKDcY1IeI4brc7+iAQgvP5vHoxIUQqC+fn5yhExW+LQCkrRJHGsf5EZ5zHcXz89i0IIIq/l1K2Wq3+/aD/+7/3e3GcsGv3InLuzOfzF8+eAkKeV7OFcS7PScRJQhQ7ke7t0Wi0XK16vR6pRnwRYDwet1otoplWmiRn789cz1Wd5RIULBZRtESCuh99NBrFSdztdnWC4/FYhlSvQYiU0snZZF3aBRFl4Sv9deA6rnxCKwYh3zv4zTffXFxeymLkJTtGaZakAoBqTyxRiP2dnc//3s+VRFSCaZr0egPGmRKMXO/DTpJVp9fHTcS0BBV5XuR5p9sVVRDnLIljQkir3VZBhBAQ4LnOL/ziL9VkIITked7rdn791389z3NVNnkC8OL8/Onz50LZ1ICIjuteXZwTSvf3D4oqyHXd8WjU63Z7g4Hunx2PRk+ePjW+zb///e/XjpMiIqMsy/P/4w/+oMiz6isUGWNxHJ/8+EdEaw7nYbj4/p/9aa2fUpalSbCYn19N8zRVTvcg504Uhb/1W78FgHGS8mtDJ67rpFnW7XVrrj3p9XNd13NdPSUYALhOvb9cUcj3gO5edF3PdbMaqGTkaow2tup4rqvvR3c9d13axfO8R48eGU8YLRaLBw8e6P15XnQ6nU6nI1mq47529OjrxY0HipgMnTHGOOOMId1IufnBGOOMofLylSBgnDHBNmexS1D5yquBZGOMyZe1PiWcc0+uu6qGTghxHMfzPKF4WqWhc+4SRuVbu2bojuPIWm26oUtqRkPnnBNa9+cyxjgA50wIRtW3NiJlvJzU2uYZQOSMcd8nWB6EIoQQyiiC6Ha7B/sHWZrUHtue5+7v7x8+etRbLq8NnaDjuACwv7+3t7dHtJYmyXBvz3jCKAzDg4MDvb/I8zwvjCDf9zudjhEUx8nBgTkyFQTB4aNH+gcY3ViCQ+h6l4I+9LZqJ9LVrx9MJpuPBmOTLMorVSz5kYEUAVGOrvxR7k8s+69BG1gNRBUuKogo1GoylLLJrxl1EIjyRVUDwXoDTD3FV/n5tQm81Aew+fus9kmCmwaK8ApoPf7WL+zr61H9PwgoilwWflEZ5XkhT/HkeQ7K8p0QUh5s15/oRhBpLO0iTxihpYaMpKY/0aVkLdNBYYmlB4yqJ4w2jzFVSqo0dehotekg84hXoQZG8pFfZimobjZkCi6rbjY0gda6qCCy2QjZJIOmFNVaXZ1bYpGqhDoKsVzPmJGU1TvcHH4qh6ImgxIJrIJIpVMdw9r1ZqUaR3sb0JaMbOIRQhjVv37u2337mWvOvZ3/DDfdG4PKAVl1LVRbINVBpPKn7TXy09zueMKofM2pUPmaqC0YVJD6TrFhqdeUL9LaC/3Gd5/OkcggsATJK6vibTVaP7m20Ub96KhXFrlds/jyzYaupGQiyhcOaq2ZFKmals6oAWRjpGPp/YQQhxJqqLgilzWcG08Ycc7TJF0uV2URR7LxD6RxslquCCGkGhgSed7pduM4kaxLXrhxL8rd7Vj9kgCAJE0o46gdEZAJjIhMZ1z1k8itwqCFdQHA93xZBRerj6Usy1u+h/KTWBlBqgxfDaTOugqqzUkFVD44EbHGiBCUmaOx7qVhjBdFESdJlqa6ezFJkkIIBNQjcZRSrsVWqCzNzJnr+dIzU1LjnLuu6/teq9USoiiDJIgowzG6nUgXln7EqYQyi2mVKPoJI+kZo6YTRkZGpa3qx6zIpvAyIcTJ8/yrr7462D/QErjRo6MjNG3TzbL81/7hr/mtlqoXInEcPp/Nz96/l0dUakPMOfvyy+95vqeZJr+6unz48KGxoO5sOn14eFhHoTSO49VqtX9wAEKoO/cZY8FigYg7u7sVQ0cklM5nsxcvX3IuGV3LBoCLxTzPUoKA12VnEJCCKBCEKDIU1wm0EFGs/yGiyFEIFVQQRBAAQhR5Je3W2r8kUBSohl0QCaVFke8Nh/v7e5VIEiJjdLWKf/Mf/0an10Ol+Awguq579v79v/nXhfKiWuNRxpZRtJjNaraOiI7rnp+d/fmf/km1GgdhjCar+N/+2/97cn6RJNeeR0B0OJ/PZr/0i78wm06x4nVBxuhoNNq5uupVE4lJ6MnJMbFs052cTYoilxRUkMzUtVotVZD8/e7daDqddrsdneDR8XGeppoJsfPJ2bq0C2fs9atX+6bSLoUQr16/1g09z/P/5J/905evXtey3Hued3pyeno6OnjwQE1thYiM8yyJ/8E/+NV+v1/DchznRz/65osvviCmdnJ8/PzFC70/iePZfP74sWF7/nw2Q8ShyeN7fHz89MkTYzj9mx/+8M3nb9S1QTklpyenn3/xuTY+ZDI5J4QcHj5EJecbADBGj49PZHXw2twj4g9/+MMvv/zSMPdJ/OTJZ69fG/JaLaPozZs3T58/L5R4FgC02+2/+nd/9YOvvmKaNXPHOR+PZhcXvFreAxA552EYzmezGhdKWZrEYbRcBKs0XdVc7Ks4efHy5YMHD3SvH+fcVtoFEF69fm1QNo49z3/1+rXuXlwsFrbSLozxgwcHXS01H6VUALx48UJ3L3a7nU1pF874OmldHbk8plqbewBI0yyuHgyVb94kkdkeV7VgIWOsyFOZIVI3dImj7txfvzrSVCab1GVLNiB9pGRWS+t+/6IwJrITAGSTZW7dv9lpg5s/q6DyYooKENc96p8VRFRoVq+hQpjLORRCpGkax3HN0Akh8hAM6p9SlAoASutLF5k87DqWdP3GI5RRAOH7fqfTohQrhu7wPMukPRgNnTGmZ8yTITCjaRWOo1Mrre5WjFRb1RcF10sXeqf86FRpJZRq7bYgYvHRkur34o3UyuuNIFtT182qtuXnmAEkf9ZAm546aEONaCglSVvTldV137Kt/TCSnTrpsA6QCQAAdWMjUFEpmFOKilqr6mroV01Lp9YAsjHSsfR+8uEBo+3trwa3MdrS0G0S3mjod1bWiKIz0q830rydbI2Groutctm+laxZnSajjBrZ6Z1GpRqUrclpA23JiNrn4qdlm/h9u2/farvj0uVuzEyISEglb74ugFE2I/RGrBtBRmUbUHRE9WIjzbvIZhvQm5qS4XSbi6+9pdVRBQSG1aarc2dl0T592zCyjR5Wp8ABeW7/lm/z7Yevhqv3qTspiOm9Y5TNJmHt+m1ecDcq24CiM9Kvtw3gLWSzjighjbcTJWz75AJ0k8TqZ3Lp4jTUBpHZs1SKWAZrNk1FkT3lMS0VhLI4ySb19fW3PhJCiGSkZjRXGdlkWyf3MmbyRmzQyJg6vVlZIzWZerwGkvKU4mHVESFHyUatWdnagG+GuTFbDr1FcgHcuNQKIeon3ARVp6/mDLEpKyVsVtY4fTqogVFt+nQTWj/RkeDbt2/DMNRLu7w7PeWMqwOFm9IuWZJkSVxL7iXyHEE8fLB/sD6vtMECZIxNzifj8ajf76Pq1QKgjJ1PJpwxz/NQrctBSZ7l4/djxhhqpTyiKFoEgSgKvTbI1eUVElytVjrW6elpkRee5+ogm7JZlr9//54xqqNcXl4RQlbLZUUhREbpaDxezOe9Xg+rG8URybvTU4dznVqWZe/Pzhg1MArDMF6tVlEoD25uRg6LLEMUv/mb/3Gr1VIfH0JAp9P5f//sT7/5+mvHc+ueH3vjjvOv//D3/+yP/0hUY22IyBj7tV/95SiK9Ix5o9FoEQS9rqG0i03ZNE0nk3Nard+CZWmX5SrPMwOjd6MwCrudjnFmEcBU2mWyLu3icP69733PuKGeMva5qQBIURStVuu1qWTH1dUVIhp3zY9Go36/PxgMdJDruk+ePtUrlxd53mqbGYVhOJ/PjamehsMLRHzw8KEO4o7z7NkzY9Vwm7J5nrfb7ddvDHVsdocXhBDj2ZRWu727u9vv93UQ4xZGWdbudF6bCuYEQRAsAmMCLc/3BJBut1cURRkhFkUxGAxG707F5iGnI+pNPraWy6UQoO65IJSIAjzf+/yLz83KtlrDvb1er6eDOOdGZbM07XZ7r16/0kGLxSIKoydPDeVlfL+1f7Df7XZ1EOP85cuX+hFnpbQLY2XhNf11YDx4URZ2s7ySALSz4oyxsspHBQuAbl5JKuhGRrCpYqe/+0oU2xrAGHG4g7Jy2VADlS9ZXVmyWbo0yLa9suWoZlnuOCko2xAAhAwkbW/lhBBGaQHgbII11UUwONyxyWCUnGyWLs3K6tPXoGzzXAgh9O1SZTTt45dIZ1qhGKLU5ahjUWoj2MzIJmHt+gaNPoqyOiP9eiPNu8mmSlj+qSevIptjjWTziUm2azVRdahNhmbJt9RoG2VvNXpq570f/b59Eu3e0O/bJ9HuGDBqRtFBtVbBMoFuZGSE3lm8OyurI6oXG2neWTZdWWM/IdcROHW4tmygUSPrKNLf8b0uYlN6s7boIXLjvOXgRQOKvvAqd80zrTYItWyov5GRcXt+iYXKBp7tJb+DskSLoDUoKy9uoHYrZVVGTLrwlI3dsl+Ow/a2johqaEgVg9HbnYe4ceg+7sGLBhOSPxwhIAgCY6aRKIqMFS/yPI+iKIoiHSUMQwCQea1KkPxkDsNQ5gOuYAFQxiQjfZtunmU2RlEYRmEYRZH+2S5LLLQ7hu35ktGtlM3sMoRhSAhpt9u6slEYOlrlXoloo5alqV3ZKNSUXTOKojiOGaVCOUUh05tlWXYrK5fGAVpuD7Le0ijCMJRFj+syhKH02NaUBQCbRmmSSJA+fXIizMqGoe978iFtnD59m24QBDL45SDi5cWFfMTXvPDT6XRnMKgHPCjN83w6nfYHA6KhXF1egsz7o4CkNU+n0zzL0iytYAEQxqZXU1lD/RokGWWZjVEUhosgaLXbek4zGTCiVRnWGl1NW77vep4BZFN2LUPfpOyVNA5d2avptCiKJK0qSwhBnE6nFxcXOrU8TadX037fwCgMgjCMWu2WnqVtOp0Gi0WR50JAGaGTAcl4tdL3o9/YAORG3arJCgAmri6vKKW6DFfTqQCoZauTUJuyWZJMr656/Z4pJV2wlCVcTIyA4CqOjdPX6XT0lHSXl5fr0i6e733x5ZfG0i6I+MoUv0BEz3Vfmipp7OzsAIAtA9NgZ9DrGsIKjNKnz57p3n4E8DzPyGi5Ws1nsyemqvU7gwEi7ptkoJQ+f/7cmKXSpiwAeJ7/8tVLHSSDX/v7+zrI87zd4bBrSl6FhLwyaQRCeK3Wy5cGRtEyCubBZ08+00GEkGgZdzpddXeAEKLf7+8OhwC3c6UjosO5zMtVMXQGruu9fvParKzrDvf3O6YEWoRSo7KiKFrtzouXL3RQGIZRGBlLu7iOu//goG0q7UIsozoYDNalXSilty3tkmWZrWRHtinKob/NsyzLsxzaVSwAuinZoWZgKt/mNka5qQBIKQNaThhJRsZi8g11bBqUJZtUXjVl1+JVc0pJxBurnZiUzTN7tZOiEHJ/iCLDdc8dli61rz2y+Ri1yiCV/UilXfLcrmyWZWnq3620C27SBOvItLG0ixGlzHtY05kprYJFCDWV7LiREd3gEFNtEKmUTaPvQFlqwqpJqFNrADFNWVINw8km+8vtoOSWASOySQqiUiObj1GrDBZl14i3L+3SwKh5+mwmRO796PftE2n3pV3u2yfR7lraxZ4S1rhGJ4SgCYQAVC4Bq6AbGWGJYypC0oD1cZUlpjW61EvHIpv4hY3ajaMKWrWT6wGH623WsvIOfuyAUYMMRmWbNSrnwjDgFkY3Tp/NhAghDhTiLqVd7CU7hPINIZv8U+YLr2NtSnYYZWhgJIsXlIu5GhYi2jT6uMqS6jqSNCu7YWSj1qBsq9WqKSt/t1otz/N83695XXzfL53K29s6NgWMuN/yjTL4vv8RS7sYZ5Y12gmxl3bxy9IuhRA//vGP5VEJJW8TUkJPT08dx1HT7cr+PM9GoxHnjvxTBV1eXQJAvFypIEBglI3Go36/P+gPKlgIlLLTk9O8KHzPL0FrRlk2GpsZhWG4CBYgQBKvyHB5gYjLqgxrjU5ORSE8zzOALMpmWSbLhugoF5cXhJBltNSVfTd6t5gv+v2+CpKIp6enruPq1LIsHY/fc2ZgFIbB5cVVEAZlRRBC1sdZjo6OTk9O2u2OgOvjUSCg2+tdXV4yxm/rdZGJxqFaLAQFEILf/PCbBw8egIDrBFqIjLHR6bv9xaLXqysLCDZl0zQ5e3/GGNOnbxEsltGyKAoVJH+fnp5GUdjt9ozTRxAdhRcSpJROzs7WpV0opf1+Xx78qb0Out1uv9/X3+Z5lnW73f7AgJKkCQDUQNI31Ft0e71eHQuAMtbtdfv9viEymloZIUEhiv6gr/unkiRGRCOWZOT5Bv+UTdnMLkOcxIQQs7Lzbq9fV1Yi2qhlqdftBUYQ4+z//Df/l//1N0iUjI2EOI4zOTubTM5bvgdKRkEA9H1//P6943ByS0NP01QAqHcUIQSEcIV3fn4JSLMsUwfccd3zy6unz5/pygKATVkvccMwMk6fAEGQ1EDrUe12e/1+LSWYOn16aZfVcrku7eJ67v7+vrG0y3A4HJpqvwshoigyosgDB0bQcrkcDAbGQzfD4XBvb08/+COKIlqaGTmOwxgzy1AUiGjTaG9/zzGlpLMpWxTFcrk0UpNnRo0gOT7GQzfD4dBMLc+Xq5UR5Pv+YLDT7so44vUT3fHc1XIZRVGr1VIPvwFAu9Xy/dZdli7SSUcrJksIYYzt7O7u7e3phr4Mw729PePZsdlsZtQoz7I4TowgxpjnekZQuBfuWWrIDIfDvf19fVVTbKqOOXRzgFS/S2ylXcrD1DaUGgg2Z2EMx0MAKGOSoDHJqI1ReUhWfySUKEbxbIej76Ys2XxfbqOsvLiBWgNIiELItzlcLxtosT4YVTseten5eAEjQCm5bOqAE8vZKNJY2qVU1vBEN81sOarNBPWAkXI4euNvJx/p0I0OotVWwbKDmhnZJKxdv414H6Kszki/3kjzbrIxci0h0wbWJsOtbF1PVE8IsaW72FLyBo0aqBk1upEgsczFfcDovn0S7T5gdN8+ieaAXF0BIlYS3ZNNUKay8bLsx3XBGwOKDgLEMhChgYgJdCMj+QMBJPEPEu9mZc1BChnFkMvTErQOhQgAAR8xgdF62Y2gpjqhjKmxJFWGjxwwAsRNgiqhZKlGRFqmPACoZQVbn0lqnoiG6VNBDSZkmVlEJJSVujiUMNd1KaOUKGc9CCHSs1GNoch+WTCWskoxkRIFAGogWYbbcRyuY21AruuqoBsZyWzYlJU1visyyAkwildjtI2yrmsO/Xi+53CnFmaSf3a6nZ3dHSPWYDAwun2cXs8G2tnZ6Xa77U6vZuiu67TbHb/Vavl+zdBb7Xb5Zba9reMmYES0NTpnrN/vD3Z21AoziOh4Xq/Xk6Nai7dxRmzTV86sPn3GmeUWOyG1mVWELhnJPifLs69+8IMDU8WLt2/foskRkef5eDQyPuQur64QQBZXUcedMTYej3v9/qBv8KMfHx+vVivjCaPxeGxkFIZRECzSJNE/2y8vLwnioiqD/H18fJzEsfGEkU3ZLMtPT0/jJEY1oIbIOLu4uAgWwe5wiFhG3wkAcs7fvXuXZ1m311WxCCFI8P379589/kwPeRR5fnl1+ejRY2N45Y//nz9yXb8G4pzPp7P5Yu44rgy9bcQD1/XG797JIjZk60Y31ZJrLyIAACH+8A9+f2ewU0vcRxlbzGbtlj8c7upYx8fH0i1VG+00Sc8mEyEMKekWQbCKlnG80r0u796NZrOpseLF0dFRlmWu5ribTCbr0i6Ms6dPnxpLu8Rx/OTpU9PcZyCEsaC95/sAcHh4qBs6IO7s7AwGA93Q0zR98vSpseIFABgZhWHYmXWePH2qj5S044dVGdbjm6ZPnjzxTPvRbcrmWTabz7q9fnXDN7RarSCM/vqP/7TfH+igr/72b3/vd/93v92WPj6VJgAY/ZsEEYRgpuRKhJCL8TjLMlapPAOEMsoop1TomUQRueO6rrN9klFCCKM0S1O9X94t//P/+D9RIndWK9ZcFJ7v/8v/8l9+9tlnUN39AQByZk2GnhBKjdPXWyzCIKyBNu5FYSvtkiTJkydPdPei67rr0i6u67ba7Zbp1IbfahnrrnPO/VbLiCKTANZAkmWr1fJ9v46FSChttVoSWmfEmI1RlmUSq/YUkTIgok2jVrut575rVrbVanW6HSFE+cgEAN/z2u12r9frDwaiqBx6aLfbvX5vb3+v3enovvk0zVotw52GAHmWe0YQ4ioIWkVRLbEElDJZmkIfBNl5Kysnprqk635CGKWDnQFnXH11EEIECNd12+22PheIaJs+Soht+tI0zTNzHXSzCRFCNtOnL/xardZ66YKb/WU63donTq2/AaUGWj/RldogtSe6jnUjo1Js/ZFgZrSd5DZl5ccl3dQmKr//hBCiEEIUqrLFJumrMQglE/oaDb0QBTOC5NctACG1fOfrPwHR6Ce+lZXfeL0SFarsK2TKbsTaE/1GOzFOnw4qTWh7w1ONgXwbKel0EK22CpYd1MzIJmHt+m3E21JZFar3qyAtumKgadCoWVlGiaj0l/cA+a6afegqGteubx5tG0rzgDcQJCYTIvcBo/v2ibRKdcWf4VY+/8qmgshmy0oNpezXUWpNBYEF1EDtZhBYn9zwHT7U/+62TcDoY8x9A6jBLIgJdCMjI7QBS0W0tQZlbREZCTQq28zrbs0ooSwd+m2wU1nJhQCjFKpLeaT0OkBTlXBLO2mYPuNc30hQ7yeEOAQ/rTW66zg6CrGfMGr5vvSuqD5EBPB8v9PtttvtTrcrKrnJodNqyYMwjHNS5YVyH6zJvYiEMibMIMSGNbq84ci3+WZGpEAwS1NKme518by13732MbqNnRinTwc1mdB2a3QnL4offv21rPF+PViIhNKjt0dESzRFKM3z/P1oBIhEQ7mSAaMgUEHStfJ+PO71+vWUVwCEsdPj4ziOjZm63o/HRkZRGAZBkKapKVPXJUFcmGT45offfPPNj1st+jl5kAAAIABJREFUH7BygoFR+s0Pv/mLv/h3atANN+H3v/j+9z3PlyNXgjjnYRD84G//VvpuVfE457PZbH51FS4WCETNloVAAAXnXO2Xv+UuDGYGEbHZEkyUVv5Jv00rJ4RQipzxv/fzP+/7bUChhMCQEJLn+cnx8XK5rB3XQIDj4xMpaG36siSZTM4FCEOmLhkwSmI9U9fo3Wg+n3W6XZ3g8dFRnud6pq7rgJHrOJ9/8YUxMoqIn3/xhf4UybLMc93Pv/hCR5GZuh49eqSC5I3u+/7Ozs7Ozk4FC0Cm3njy9KkxgZHneUZGQRDMZrMXL17o/imZqevQJMNiEV5czbjr4ebxjIiUEM55nKSrs4n6UC8H4S//8q8WQeA4FRBjLEvTH339FSj+dUJkVXVwuOPI+KvJaohtpWEHyVFSlyjyT0bpbX2Id2rIGP+VX/uHg8GO6ktFRMZ5MJ998eWXehIvACCUfmGaviSOW+3Om8/f6NM3n8/DIHz2/JnuXnQdd/9g33gajhDy8uVLPWDU7/fXASPmXOcgbXgd2Ppv9QYxYNlBzYxsEtaur1FjjLqu4yirF/lQ5Jy7rsscx2jo3W4HCdENPU2SbjWVaSmFXBySj91qNi3/hM1K/aOzKxsiRYQsTdM0EdV6g4wxmRqN/pQvXb6N+fg72hq+cgCEELQGWsc1DMGa73RIv4MnOqWkTKFVe5rKTt34ftravR/9vn0S7d7Q79sn0T6h0i5GGSqa3kIjALCG32+7leon0m4rpBoHUzqtM0u2tpOG6TPO9Y0E9X5CiCPywrG4lmVKCVX0sr8BRQZWVJD8wnMcx1CXYwOqEbyREedcgvTaIA0ybLKxVnKulv1let5ypOimZEWNWpnIdk3hOzHr266AbffhHRoirtfoazf/9cZ3xjhjTJ8mosyR0U5s02ecWW6xE52gbkLrH4A4vbrSPzIopfPZbD6fq0Rx416cz2bGkw2z6RQAaycb5Mf4bDYry8xeYwFQxmazWafT8U3uRRujIAgWi0XN0yTbfD7nnHdXsnK5IgOlSRxnWZamjlDci3Ic8zyXtVyvlSVICUVShkUV0OZjlJjsj22SRhBbu617kVIhN0LWyKy5m1lJA7TwuZ1TklKKCEkcc8cBzeuSxPF0OmVa2mgAsE1fGsez2Wy4NzS6F6Mw6va6untxNpsxzvI8N9rqdDDQ3YvT6VROk0MoKWsY1YMyURQsFsaAURhFi8VC99vLGkatdksP1kRhSJUry8EgjEVRFASBpxZC2QSMbIyW0fL46Hi1imuHHjzPOzs7+53f+Z1Wq4MICh/0fO/oRz/6+gc/8P2Weh6ivHvR8tSMY3m8SBkG6UG07D8RAH6rdfj4Senqvp57REQY7OwSBELIOjKEQChDFHmWea0OAaFGjCjjaRL/k9/8Jy9evMjSjCpmwTmfXl32BjudTgeUGkYA0Gp3/vL7f/4nf/LHrVa7eh8g43wyHs8urxzXfBvoDZEQylqtVqfTVjffSxlkqSnXdWvhRQSILNOXJYkE6QGjMAiW0bIGKmtduZ4rhDAEEKMoCAI9YBQEwbq0i+u6r9+8MZZ2KYri+YsXJrWRM/b8+XMd1O/3BcCBqQCI4zjy7KOBIICttAvn3MgoSZJouXz85EmR56qhy5xVaZohYao1A0CBGC2XZ+Ox326rUR4Z06aEQDW4XTbGmW7+uHku6o9G+Zzr9nqUscpEEvl2EPL0HdncV7h2Qos0Sdq9HgqoPDI5i5feF19++XM/9/fjJFGff67jjEfj4f7+YFA9ACVEp9u/urr8q7/+a5nATZWNO8704gKxtrW9qSEiZfTgwYPh3l6eVwJG3OGO47x8+dJoQgLAOH2iKFzPN4KiKAqD0FjahVF28ODAePBCCPHKVNql2+2uS7sg4kcs7SJJ1UCwKe2SZVmthtudS7ukaVoURZHn6hFGAMjzXKaS4pxRWokdcMYc7nhey3Nd2FTlKwni7c/jrJlqWGtqICgCIlKsZEYGACEKk6HLYxyFenQVERGZECKO49VqlVQNPXecJInjeOU4vGbohDI5F+qhfbL5ogBlnb1No5Qi4Ga886p4WBSFLMaiL13uUNpF2kkNBJvSLmmaGo/83lzahZLvqNqJ/iFIyN1LuzBm2Oxf+9PSbvEk26YZ7w1VEqrdBrUPJvV6Shmp5j2UxxrUAZT9uAnW6KNKlDiOPhq3XaCvsarHSWrqGGQoef2UlHbB7zaMd9/u20+k3Wfqum+fRHPWTnYAMJ7JNZ0XVjAMKAYQAFxvGjGXdqmBVAGMjEBp6hq9eiSiHtqA23yB/VQ1VJreY1S2AWQ7qNH8ldLMSF+jG+vb1O0Ergu4NIEaTKjEgroJsQ01Ik8YeZ6np1ki9rMInufZSna4rlvbwkbIdf0WR8fagIy1QWTREiOjMvNB7WPU933f942V4Tl3ZEIVrO7Ekr/X6dN0TjdGXqQ/S7lGhgsAUQ5z7UlhNBcFpJ9XAkCUYRSuhPAQUcbguBYrAUqN4bn1UDDGKDXqajusJOVinHOnfi6EO5wxbrYHe2mXaxPSoI7rGkCNdrIG+YYsJp7nSWkdUcDJyckD03709+P37U1aDLU/y/P347Ex88bF5SUAFFWXPmwydYVhuGNKYPR+PEZCWtUERtKPfnp6yjjH60JUBJFQRpdRdHp6GsdxUTv443lnZ2dhEKRZhtWHveslcRwzxunm2Pp6DMvvM8OGW0II4TJbHUrv+ZoVUYKmRIUQggB+q+U6Lt1cow4giKJMoKW+vigtOGeOw0EwdVQZp67DwzCcXl2lWVYeDUFEhzvz+ZwwmqdpxY+OsFrFURgWRZFlefXOAQdBgNmRanuiI2WU0WUUOpyrTxZE5Jwvl+Ho3SherWrKAsD78ftOzc8m96Mnydn7M9/3DAGjxWIZLSklutdlPB4nadIzJTB6Px47jmPI1HU2WZd2IXSdFVFH5g7njkM1Q3cAOLegcM4orYEoAGPyccDrWABUgqoySEN3HOff/81/+PO//Guu5OFDJIyxIsv+8Pd/P83Sipd6vT06/fHXX6NmtYjoOs7wYF81svU4CnB9f7AzEEKwqgVkRf6P/tFvfO/n/n6apoqREc5YEAS7uzt7+3t5IdSUiJzzcLH4hf/o57u9HlT9swBwcXH+K7/8y7qhp2k6Go9fv3qlj+oiCIJF8PSZIXnV6cnJcDjsVSPEIATj/Oxs9Ed/1BkM+lCt/OY4ruu6Nj96p9N1qv47yctz3V/+pV98+PBhtqkhUQ7paDTyfa82s3LepQnpGpXvIqoZukxnWQOVJsR1E1obnlOzrtKGr0u7PH782FxJIwwfPnyo9wNAlmUPHjzQQZxzADg4ONBBeZ4PBgNjtZPVcvno0SNjfs3d3eEqzWuHHjhjWZq6nisQ1XsAADln6rzWmvRB6YZOCOGMr3Og1voR2t3uznCYrOIy7yUCylSmO8Ph7u5QFIUaqKOcc8YePnzY6/eFZugA4sA0dKIo8qIwglrtdrvVNg54lqZDS7WTveHQ8z2ZO63sRETHdeUSTkdBRMq40VHIGN8/OHh4eFgr7eK6bhzHh48eGWd2uVwaxS7yXAgwglqtVjfsGkFpku4f7BsTqkVR9OjxY/2FzDZOTIdSKjcP6HeJdOnrT/Q8z5tRaiC4rlqv1eXYBIzyPFczEuJmn0ohhBCFKj4iIkOhbErRm35YnWz857X1MVE6bSAQQhSFEAUi33SuE0YXRSGKohBCXVkxRFEU65r2mqGX1W9I9YneEIYrB9wQQzHNhRCCc14UhalgJzJe/2osGzVtZS3HRxasy6tPdEKIseIK2QSMbHaiayRBkkuDssY1swTpASNJivw0l3aRv5gCumbE6j3bN1Uqo+RGfUkdxKQM6+grValhSUd/NFIlhkKqhn7n6NiNA64KwBip9ejjU5+IrQ+/2bDuRm1LZRtkUDvvD17ct0+i3QeM7tsn0RwUN9RXV+8E3ARr8Kaq9bU1OqlGc66xNgGjGqhco4MEUfVz6rr+vBRQFc+4zlab+l5TO9W9HNXrG196iASRyP+uOyqtejmWQ0eqS5dtRrW62r4eB33AaTWrsILVNESISEpFiEHyGsHyT31mbbLVlK19KDcrW35y2Gy1ZkJUzaaLCA311Y0Bo+aq9XrASP5Z1ngnVRhprPHuuW5BqKOGsxDlvlnplGQ19yLnnPMiL/Q9t/IOkZvLSc29CABInJVbu7EJIXmeCwEEEUAxAgQKDGSoiFJiWqMbj8MAgH5uS7aGUXU9TwZKapuciCWmxjajWgbOFBByzunmI6HWKKWbMBcyZVkry1LLARdC6EEro+TMHjAqldWhrufalHXtAURpQkZGUv11pi5jAqOjoyNaNYjyS3Y0GpV/qqDLyytAiMKw9oBhjI3G436vPzCVSD8+Pk6SxNcCRpSQk+OjcBnX3IuUMlEUV5eXSZJUSt0gIZQKUTx8/Ihzp16aHsDz3KfPnhsNnTF2+PhRrV4XJSTPi0G/63Dq++51Hi/knLHY4SIvRJHXUp0gwzSJz96/74YhKNnqJPR8cnb09q3+RM/SdHx2Jh+StVENgjAMwyxLdUfEu9PT0Wjc6/XUEulCgOd5b3/8dj6biSKH6hPdcXkax6ZQuBx2pJSu31PlOFCKiFeXl4zSWsDIcZzZdPr2xz/WT3sBwNHxMatGzeRvWdpFPoVrXpdFECyjZZomJmXfLRZzW2mXoiiMpV3WASPG2cGDBwcHB/XoIyXzxeLg4IH6gJP9eVHEq/jg4EA750GQEOlHr5wiQmSUxkkyGAx2BoMqFlJKwyA4ePDA9zz1gJF8NKZZdvb+vTxlt0EBShmCOBuPgsWCV73vCOi6zj/9T/+z/mCQ54Lya+mLvNjpd//zf/7PQTsCVxSFyLPf+Me/YZiSNH3747evX79CUlf2fHIOiIcPH+p39fHJyboevBYZdV1nMz5UviIktSzLkjQ1jqrrea7rHvz/7X1bkxw7ch4udevp29x4a3J4OSTjSGe9WlkR2pUdDut1/4BCsv3iCOlXyP/C+lmyIxz75N01eTgczvRcejhdl+4uoAqAH9BVgyokanqGXOloOYgTcXqQlcj8EmAVgAQy9/dNz6X+nabp7PMVpo3z6EKIISGLxfLycqb/eZgKEEpZnmPgMglCCAVh0Ou1E3VIKX3f/+GHP3348KE9/oaDvs4H37o9K5VK0hRExBjjnLcQrcH6fhiEINjFYrm3vzfo9+0G4zh58OCBR2njjhrBQojKYeT7Lj/OYDAYjoZ2fVmWg+FgMARIOWNSSpA0HA6HwyFIGgyHw+EQzLjS6/Wira1eFJrzQj338qhPPc9rTq4kUdrBLqVUSiIz6pAE4gbXbdqi6+L7fgB9FnVl6Mhj0+/3wetU/X4fNELB+cBhHx0nyWVVXorhaNQc6OVwOOxtbVHq+b4vhTSb0qdTlFTIeqerKitda8aFMSaY9Pt90DOlEbmGEKh2EAQusEJKhHDHEAKtOhgOhsOhPdNejUZrh5FSyk7krn+3Msyb9d0sLZL+dw+S9NTFbrD+sksp5fqIVHugu5zY3ZfEXAPd/jegqrNWgNqVDjVvC2y9MFLWG73DdC6SrC4K2W/TdebPsmy90UWprb2OJWYaRymilATf6Li61t0ykVJKqht0sMHWaneAtacuN4LtaNC+eFFfsPrppnbZQAd4P6SxgUJuVs8kbYjINpoN1iaBjLeyqmkKux4iEdy8TyTXLjjnVlLHG/1GHe5gVVvQJmA3tJ5Zee8wui/fRPlJR+oCGzQEOacu1yzSrAcU6CBtAta2kvkwaMC7CQLtANY3Sc6pC2g65EqRrpRsZqy5UYe7IbobWFCWanbBOh7NjZ8DV/2tviAA102fJEJ0MGdqAtAPE0IxIRgT85Q4wao6zUlbranqynDdeE0ihKjbIKpJdSX4ubS5bMZbWdXsDru+RUK3L0oHXCfEVvvf+tTFQwrVc/z6CWVM8M0WzXoXS72YqEl6WQZzSYkhkqoWo3meJ0lSFFEdLUgphTBSSi2Xy0WSUK+x0FZSBUGQpqnQkZ4N5cuy9ChmjAkhccPFg4qiwKqt9iZgUZV90wZr2wFVi9E7CNLFXJSvnYtCIKSq/67l6G1NSmjLvaLWiRcIuOuCMS7KkjImpTKTG8iyVKFy6eACqys3R3QjWFCQ2nAxWpTl+3fvkzhRSraYj46OKBTuoiiKk5MT8Jzd5eWllGq5WDT7XhGCT06mg+Fg1EpXIBUm+OjjEedFGAamlghjKeXDhw+ePTswM65IqQglnOXpPFZSmodxdVChoij++j//p53d3caWkUIKqSSOkRKBR1ub4jTwLy9n7969Q8j4PFSnZ6fTU0IAr8dsNkMILbLMBnt8cjKfz4eDgT3Qj46OPChREWd8enoKuleSNM3SrCwL3bgp6PDw8NPJtL/VN8EKIfr9/scPHz7PztlqKRsH9Nf+moajzVDv8ZMnOzt7ZloLbSKl5OGHD4sss3U4Pj6O42Qw6FsD3QmWMXZ2eoYxMltbg02SRbYoCm4L+vTpOE0T0GF0dHSkpPTaDiNyfnaqs+J4vu99/yff7+7u2rARxm/fvrWry7IMw/D1mzc2afviQkr56NEjmxT1eqPRCIznRCl9dnBg76OXZYkQev3mjX19a7lYFKUKt7aUaGAmHllk6d/+3d+Mx8BVkk+fjiaTCegUfPfu3evXr+36oiiiqPf6DUAab28jhMC7KWEUbW9vj0Yjm4QJAa1acB5t9UAd4jhO4uTg+QHYWrrIt7a2RCM0nxgMhkEYJnGsz5Q0eJRqhVOtixTixctXBy9eFsy8uqUQJgVjb968eQCCDcOd3d0htPNNKAyWM7a11f/u9Xcg2DRJnx08s0lBEO7t74Eb9piQV69e2fvo4+2R5/sIIY9Q2rF969pH79hadu2jm2eMGlMXQuwN17q1PM+zLBOiHe9vkWWr1UoIYfr5FVIEk9VqmabZYDC092iXyxVj3DxrUJPAdOY3gkXufXQbLOrcle8QVHPZW8uyihtcT0YRQvXxeUIIJQR0hoHXQzEmZVlyxgrOGwMd4bK6FALqADoNwPoWWHAf/VaCai5w6iLF9aEuZc/i0U9gMVp3VWttpJTS1wcJAfIY6ufrw0wtI5Kq2Ja6G9i60gZrk0DGW1nV1BBUePPiCmtRW6k10Lt16NZ8Q0SbgL2V9czK+330+/JNFGKe77sv9+WPtXjq2l/0k3MYrWs2YwEFgQ1+RbA2o/kw2Ga3AjeSTERgPdKbi4YOqFk2CBqsFFK4FoQUxrfW4W6I7gJ2Q4cRVhjIuIIxQkjPg03V6/oOFnvipdfCurU2V0WyA2vV9UQvpY3tQD0H13Nx5ZijY0fakK8LFlnemQ6w+uGO1lwkEJEpyF51aOmqWsuijQvGGGNC8PUcHa9jHnfpAEYF6zadq49uK8hlPXNAIn2VLk1TcCNisVhkWWY2qqp99MVisWhuluvfWZZJKVs7nXrJnGUZJbQ9NKXEhCyyRZZlrYsXGOOyLLUO9q7LcrHQYbrsDl4tl1mWDQYDe0WvBYEBtl1gOecdYBFCW82cujVY3/PsKABKKVdrnLFFBpO02ovFwt6IWCwWjDFKiRSNffTc9/WerD3KXXHnEEJKSc7ZarUqeGFstCuEMGcsy7Le1patgzYptsKSSSldYFmeLyxEZkeAYLMsi6KwftLmsvbRcZqm6zd6Kcvzs3MppO0wupzNhoMBONBns9mg6Q3Rv2eXl/U1UKPvFSH4cjZjjOX5qjnQFSZ4djnzfL/lMMIYF7xYZNkyWyglzTe6HmS/+PnPHj1+3EgAohTB+PPnS30XBlJvFgQ+ONBdYDnns9ms5Q3Rvy9ms/UfENiCF+ucMM02L2eztteschjNLmFBSZpmSRqGge1DOT8//81vflNl5qmkSBlFvaPDo3Wqk2YRUkZRr9ffUrJxUQJjtFrlP/zws5/9ux/yVW5mXKGUXl1dXcxmygG2LMslEJLOCZYxNru87A/6tsNI3zAKAt8GezmbSSn60L+cy9msF0WAw+j8XB/H9zzqvf3+7TbkXlEIffcdsKUvlQqC4CWUSWO8vS0dkbrCKHLd8CCEPD145tF2pC4pRBDCgpbL5cNHj548ARKAxPN5WZZ7kA6YkIPnzynkK3GBFVKGYfTy1UubNBqPEUJ7UB6bIAy3t7fBKwII41egIFGGvejlS0BQlmVJnEyeTkD1+v/7/+iPYV0ppez1ekEUSmjqopQilEZRTzT9BgTjshDfvX79Z7/4xSJbtC6Gnl+cv379GnQsBkHgihaGCQy2LIpeb+vFyxc2KU3TLM3A1C6+H7gidSGMX756Za88RqPhOrULppizdl6O+s0NnnXpiClVJ+Wwv+YFLwCuKlIXZ5xE7d3+OssHKCjPcy2r9e3T71EXIs4YOE9zgnWnl+Gco+oYRhtsAYDVjM7W2A2Rulpga0G1wWspdQ2Bpi649kCJxgVZSbBSiuX5arVq5ZDxPI/lzO6LbrDSndqlHkJ29xVFUbhSuxQF57C/T/esHamLc65qh1GHD4V8vdQuuMrM0eBCN6R26datFtfSQYPq4PqDg60atAd6R2s3kkywpiBTBLI8NeBYXxfrYorOG1rbFhlLfNt03WBR5X7aENE1yerZWtCN48EeQvjeYXRfvp1y7zC6L99E8UzvS12rfkoOI1AQSL2zencGazOaD4Nt3k03WZWaJKUZsaxLB9Qsdk23hsoq4MN3Bqvc3behDi61kdEFniyF7/uteZ7+bceU0vW+77tSsuvULi2S3u2Huaoc7y0dbhTkeZ7n+xjyONQrEpDr64JFDoeRB3Hphzta6wAbRZE5b0bV/DWKIh3YvxmlSOowXfauS12zPtZnHuAlSEhB6fpInDl11jW26WqwNglVodS6wdrdV/eR7TACBbl6tha0fkAoeXp6KspSqXZUmNlsNh6NzIW5rtf76MPRCNksFxfrt45B0lsr5+fneZ7ned7gkhIRMruY6Whj1yS1Tu3iEpQm6TyeR2Fo59ienZ/XbzNLvVkYhkEQACQHWL7WYWizXJyfo+qj1AJ7cX5eMN7mQggpNZvNxuOx3RpnbHYx0zGPLLDJ8fFJttA3POpkBJJQ8u7du9nFeRD45stUShlFYZLE1Ao9RzAupfQoCaKwFbsdYxxF0XK5TOJ4tVw1BrrnLbLs/OxMSgmCLYtiMGyDVVK6wLI8n11cDIYDu/viOM7SzA98O0X6xfm5FGV/MAC7b2try06Rfnp6qgekh1G1i2dv2fCCcW7aQhkbQHrjpsXCi0JK2SbVe4g215rEOefYcPFUCnC3IK4bbDmMtA5KKZBLC6r/3AQs79KhQAg5wRZtLs2oCUBrnBcWS/37f/7TP82v5voOgS5SKurRZZoevn+vUGOlpf+UUvhBYJ9sEUXx+Mnkz//yL9kqb762vSSNX754/uzpUyEEvSYhTHC/F60NDvdsm6SpnWAd3QeSjCHkgz3LeWuXXClFMC4415cwPc/3Xrx4AV78yfP86dOndr1SSkk5mQD+i6gXSQE7jBBC4/EY9KEUnD87OLCvh+j8faCg5XI5GAxgHcJQKQU6jDjnz58/J5DDyAVWSokUAgXpqJagw0gptbOzA/pQGGNgazpKI0gSZdnv9xnjZvYbpRShVBQlofAmpg4BQK35mFLK8/3BYOhR/zpZjVKU0qIsHj95ArrhfN+nlOzsAA4jJeXuHuzHYZy7EBFCQdJoNEqTFHQYSSH3H+xHzdBoa0GMPX/x3K4Pw7ByGGGsk8ZD779bO4wKfu2/qEnXbgVeyB7sMGKMmSk71E3OmqLT46DcDiN2S4cR69ChKFCHw4hz2UxCohldrXUIqjuotQhTSnWHJbNL9W9AXzTWF6uresPFI4So3zt1p3uUusDafhzU6TCqwcIOI7d3jDMGnuDQPWs7jBhj6g/hMKq5WpjXbgVicd3kMHIJqk7ZAR4H/eS/gMMIFFSDRV/bYYRuX2wuXHmR6mKSzO4D/DgdPfv1HEZ1awj0jt07jO7Lfeko96ld7ss3UdYRlsGJlLp9apf1tBFK7aJUO1s7Ql2pXboFoUqQtHKDgDqYiL4iWATN0VG15wge6nK11iGo2yukDWt+m1t/3qrUJrpdz0Jgb0TU3X22d6wmbNKzpiCkHUau/Oo6a4ddHwSBKz+Jdhi1SPpPz/c83+LSJM8DdegQpD0yLR9KrYM5xWwh+rpgUXMeWf+p/VkuQWB9h6AgCKowe43MH4RSnfEdkeZ0nKDrEdNsihjj0h5ksso8A1qVWvU1WFdqlxvB2tTadLZ3zPM8IDtQxaUvf9iCdKVXlOXvfvtbnWCg9a/kxx9/tF9IWEfqOj7WL5kWy+VsJpWK47j92ibk5ORkOBgMRyOb9PHwcLVaBdYNo4Lzk5MTUFCWpnGSMMbsjdjLi5lCat7SQSmMsc4hAy7bXWA559OTqQ6x2WKZXcwQQvP53EZ0fHw8Ho0GVrYTpdSHDx/qFhqCGJuenoKvK56zq8+f46s5bW8vknyxqi7NEIO0/tPzvFbPY0yo52OMiT7nVJExQhgjSsmnT0eDQV8nWTd1uLi4oBjvtlIAabCfPl1+/jyww5JJ+eHwEAab56dn50IKu/uSOF4slqvV0t5HPz76dDW/cqV2KXjh+Y2LFwTjs7OzsigQQh716GTydG9/z2ZeLpeTyQQY6JyLspxMJjaLfqM/evSo9YEjhAghxuPxCBroLM8nk6cBcMOICyFAQWma9nq9yWRi70/pRDYPmzro33meTyYTcKC7wHLOpZCgDnpX+yGU2kWU5fbOjp3WRym1Wq3A1jjjUimYxHkSx5+OPkaNFDcKYyyKoiiLlhSEkFJl4AfD7bF+vqZSQuMk/vmf/fy//rf/kiSJuYfoed7V1dXjRw9Bq+pTAfsPHgBgi2Jnb88e6FLKVZ47wDKFMCio3++nSdovrHPGAAARp0lEQVQi6d8lL/Ye7IMDfbVaTSZPPGt7kVKq3w6e53u9/ha42x9FEejy8Hw/iiKQpdfrSSldJBdXFEXRVi+0QtLpMx4gS1EUUa/nEqSUcgnqbW0Fhn/RJIFgqVsHXQkL6gQL1lNKnSTPI9U58dZAl4S68sHr2P16dlJTMcF6XhcEgZ4R1a3pGUgHWErI1wJLCHaROOdlUd5B0Fa/b08+e73eeuqCEZa3DEkn/wAh6SQYku6WUdpqHQBBtXpCKONm4ReCRdWUdxOwqFrqwa11CBLC7tobSx3SHKHrs1tYNo5DmoJkVVxWxW6wtuaoMyRdna4HFGSTOgTVXHBIunoxqv/GlR+h1hIbxTRfq76DpSbhZmlwuUndglwatp7fRL0vAWsLsp8H27ytbuj2xfVGt7vD1qGDBILtBtUBdkMdNhTkUg/dO4zuyzdS7h1G9+WbKF49OVYKvrVhPm3Wd7DYpFZpcEGkGwWB1Durd2ewNqP5MNhmtwJd7hUYbNehLkwpEY1dF3zTyZnbWrVVbgX2RkEK6usbG7TrEUKeEHKTeY+r/lZTJYDLTeoW5NKw9fwm6n0JWFuQ/TzYJtiay70ShiGpDk9ZTRGplJQSEVwnd9H/F2WZJYkyLIYQooSmSarz2whjjav/RYkqoRVo1e4+6rBqh7U7BJmkDQV19IUnhPj973539fmzsm5tfPjxA7IuyCCMi6KYHh/L5s0a/fvy8lJJmSSJSdJbK9OTk8Fg2L50IyUi5KhyGF2TqhtG05MTUFCWponlMFrrMJshpeKmDvr3x8NDluc+dMPICbZyGAFgZzOEUBzHNtiT4+PRaGRfukFKffhwWLdgtlYWxf/97W/fv/8RNQvGuOA8jmPOeOMFrrdTlKqzWl/fc8dIFMXu3v4v/uIvZDMfPMZ4uVzt7e0l8dwM3oKQIoTyPD/6+FF/Wdr3ti4uCCFX8zkA9tPx58+f2xd/EFJSHh5+BMHyPD+zHEaalCTJMlus8hXgMPp0PJ9fbfX7doOHHz4URWHfMLp2GPme9+bt2/2Wx6vawnvz9q35T0dV/ovA99+8fWuzjMdjKeXjx4+VtQkVhuF4PB6Pxw0uuU4e9fTZM/A8ehAEoKAkSa6url68eGHvT41HI6XUo6YOqtpcOjg4AM+ju8AyxoIgfPP2jc2iM7eA3rEgCHZ2dlreMc2oEHoLIZJS/v7d+6s4MV/qSilCSME5Z4yXRetWs/aADoZDj1JhDAuCyWq5ePHq1X//+3/Qh+bNgc447wXer371S2SVJI7n8/nB8+e2VYfDISXkAeQdC3x/Z3fXBiulRBiDYPPVKuptvX7z2hY0n8/TJD14fmBvL/qev7e/N4Ri3CGEXr58aZ9HHw6Ha4cR9a+vr3Z8Dlz1t/qCAFxuUrcgl4at5zdR70vA2oLs58E2wdY8jxJKienMR4roHJM6VGwrr7kk2gEk9G5xdXZFYiWVEkIsl8uyLJDxsscYM848vKVcm+Vuq3b3UYdVO6zdIcgkbSiooy+81gLivvxrlWrxhBRurvZQe5G3ecEY6yF+PSwwXp+Kaf7za6nxx1facT3vy79WwY6Rtwlj601GcMMvpB8yH9a1rrfpl6D4yZb7ffT78k0U78a9SfNp157ljaSuTVCIdKMgkHpn9e4M1mY0Hwbb7FQAtTj0TEYppWM21OmzK6pEktgNSoRkU1D9MlN32sPu0Bxk2Qzs7XRwCXKpp5pd4Ckp6/utNbP+bZ+LN+tdLMj6JtY3YYHFByGozvfXXHx0C8LGBVubSxkHeDbX/A8N1lQbbK3j46qXoeBiVB9sNOO3YEx0cnRKqb29qJPBgKbDxEkC7VA/bJM2sXa3IJPUIcilnmHVajHKGNNRAeqHVLW7l+e52ahaHxMvXCw6MEOLpFf3jDHOeZtLn0dnjDFWN2II4k7dKpK9daCfd6mn6zcHy906aJ03B6sZOWdgTB8hhFLIq3LuXJMIobQ6iAi90fM8p830HhiTPF+xnC0WC2B7kTGKEWi6NVSHVSkhtwIrpeRu03UIskldQ6jmynPREe6iKMqPHz+u83IYKZgxwtPpNAhDM9yuri+KYjqdBkHYytqMEb68nEmlOOMmSSpJMDmZnqRJMhyOGlxKYkym06lUKjQarARxl6AsS+MkwQjrxhs6zGYKKdbUoUaEEAr8ACSBYPlaB4BlNpshhFjOALAnJ4ssGwyGJkkznhyfeJ7f7iqECSH/65//+cPhYeAH9XBWShGMhRCMsTAMzGtECCGliO95P//zfx8EodLOUT2aEWaMPX786MnDfakkaviSsBDi6vPno49HDR2QwginSZwtFkoh26oXswuK8WqVw2CXy0F/0AIrlZxOp2EY2aZjLD87O/d93xaUJPFisVRKmST9e3pysspX/a0+2H2UEM/zG0MI4/PTM1GWCCEvDMLvv/9+Z2cHWQUTDKamF0JEUQim7NjZ3ZFSPnjwwCb1tnqj0QjMGO959OmzZ751H0KUZRRFoKAsy+bz+bNnQMb4nZ1tpdQ+pAP16MHBgRnvqi4usGVZ9qLeq+9e2aTtnW2EEBiWLOpF29vbcNZ6hL97/bo10BFClBJM6XR6trW1VTtA9WM6gKjvea2BLqT0w/BP/vSHMOpJKVqv7UcPH/wS8gohhN6/fw/msUmTJE3TCRSxbLw9poTsQmHJoijc2d0FY7BRSkGrFpz3+4OXr17apCRJsjQD89iEYbi3vwfejyGUvHz50j5AsT0e6zh+Hqa4LEvwa16WJXgXoSzLbpYWaX0PqiyFfcNDSkyIbtBOKdYhSAihSfa3r2YB1SvL0k7aeGewqFrubAJWP1w32BroGPsE4yDwfd9vD3Qp9XAnCFjtMcZQ9YyurycA9bUDa/rE72JVQlxgbRNpaofpXIJAHToEmQ3anlH9PLq/ePGFYG1B9vNgm2A96iyOQ13XKW5MHUhVwIFeL9FcRgCt2t1HHQ3eTZBJ2lCQSz10f/Hivnwj5d5hdF++iXLvMPpJOYx0uc6laApyFbtBl6Db6LCpVUGWryVIQX19Y4N2PdIOIx3NqDXpQQjZ4Zd0fRAErgwbd0vt4vt+S4cbBYEJQGodlMNhZAv6QrDIchh1gNUP+76vE1TUFN01GK8T12NCUd2RSuoji0op12LUNUdft2Z9sbUOd7AqtZw1NVhXaheXoNqqt0rt4vu+Hzj7IgiClhEQQn4dqUsIeXR0lDeTeevfp9PpVhUWw6znRXE6nerwKS2Wi9lMSimauwp6yTydTrMsG0MBjKbTKcI4siJ1cc5dgpI0jeNYR+xuLdsvLi6UUvbOhkZECAmhAEYusGytQ2SznF9cIITKogDBLpfLERTA6PT0NIzarSGEfM/L0rTghUdz87WEq7ga4GIUIbRYLIUQjS0jjBnjSZKcnZ4qaDF6Op32t7ZsRHEcZ1lGCLGtenZ+TglpubpqsKs8H0IBjFyC8jyfTk+jKATOo8fxIlsQgu1dl+l0yjgbQAGMTqdT3/d9a+Pu7PRMlAIh5CGFtB8ZmVrqNyLRZ6EN4yqF9ck44mCpqCYJoyoIukVC2u2MSVuHmwTVQbl14y0d1pWAegTQ4a5gtcv9VmCRUphgoq+9XbeGEMZKihcvXu7s7rcCLFJKF4vFr3/962cHB5zz2s+vECKUXs4u/uN/+CvwLsLHw8NSCHPHzdDh1latSSBYm3RNBQVVPv0OQSapS1DVfW2Dr+vXh/g9L/AmTyfb29vIKlmWPXr0yK6XUhZF8fDhQ5vkeZ6UcGqXsixHoxHoQ1ktl08mT2w/jhSiKEtQUL/fj3o9WAdKlSO1y3K5fDKZgMFEXWCFEGUpQEG6HTC1S1EU29vboA8ly7LJZGL79pBS+/v7fhhR2giwSD0ahuGTx48ODg4YY+b7j3pe6HuvXr0Cg1dJIZ48eWL7UBBCi8UCRLTV6/XTFCTpEzU7u0Bql4Lznd1d0I+zXC7B1sqikFKBpF6vl6UZSOKM7+3DOWQWi8WTpxM7aW4dGNXDVS4U+5WgM2zYX3OdfKODpUWSVV4OYLe/Su1SFIXpx7lRUFmWdQqX1revZgHVK4qCQCkT7gYWORxGIFj9cN1gqzVk+JLM5/U0TKcuaQ90Ibg7WY1On9IKNFnrcAerSofDCDQRql6IHR0BCgJ1MAVF1sRv3SAvbIeRbgrdO4y+EKwtyH4ebLMbEahD7QPS9apahuLO9Cm30qFVbrSD/TzIdTdBJmlDQS710L3D6L58I+XeYXRfvonylVO7mBFZa5KsstYDgnSMVnnr1C612hJK2+DksgR9IVjkSO0CcqFqzg22pmlQHzkdInXpNtHmOkij2HbAtwTbbTrlFmTr0DWEHGDN7kM6tYsOBGUbWOeTt+vDMARTeSCEgiAw1xC66D91QO42FyEIIT/wQR26BenWbKpefsGIHILQXcHW6AxAbrCVoMCKBF/zViPZHM3riOaUUkJpYzFKKaG0Q1AYhuAX+25WdaV2cYElhLgEhWHouwXZOtSCOrovrAI5tQRpC3hCyf/3+9/rAEYNZx3Gh4eHBBvpP6r6oihOPh0jjJHFcjmbSamyLDNJdfCq4XA4HI0aXFIiQj5++MAYAyN1nRyfgIKyNI3jpCgKIFLXxYVSKG3qsEb04QPnPIAidbnAcs6nxycII5tldnGBEErT1AZ7/On46vNnMFLX4eEhrt/i6zr9tZFJHEshUCMal0JSSlEmcXw5m5VlYQxchYkXX129f/euLWgN9rAoS9/3QR0IITZLGsdZlrFmenJNuji/oATHUAy240+frubzARypCxbE8/z09EwnNGtH6orjRbZgvJm0R0pMyKejT3ES9+FIXYdCCDBS19ph5FG6u7e3u7trm/7q6mp3d9f+mhdluVws9iAW/flokfR1xuVyORqN2p5RpTDGyTze3dszHZb13tByuQQF+b6PCdnb3TXvSq51EEIpBXLF83hvby/wrQs+brC8KFbLFdiajl0Igl0sFtvb26Bn9Go+b8W7Wgti7Fd/9cu3b98oaamdJPOr+bODZ8racfv48eNoPG55JSuw8729Pb+Z9aDWAUTkUer5PmjVsiwpITDYLNvZ3QU8o0rN4xgUxBjLcwYK8ij1/aBF0r+zNNvd3QU9o/P5fG9vz4N2qNcOI0Lp9vb2cDRCVhkOh6Px2K4XQsz1u9kqjHMpJUgajUaj8Ri8YTQcDcfjMXjDaD6fg60hQlyC9DVBGNFoOB6PwRtGLrBlWcbzGGwtZwwh1AUW8o4Nh0PQCGUUxUkSRYA3hBVFnxeg+6nf74/G4wFEGg6H4/EYnI8NHd2nr5+BpFWeU0I6wLp0AFkiztM0A0kSKYydgsbjMeiZ0mDtWU3tefBUdSwEfGOB6zP4rpDB0iLJKlkXkENGSkyIvlQC3jByCZJCaJLtcRBGIGxbPdcNo7uBRQ6HEQhWP+xqrUOQktIGWwsSnZewCJSm3W1VQNA1WMuqHTpo6o1gbUGgDrWg7htnXTeMcFXQvcPo9mBtQfbzYJt3083U0K7csMFNdGiZwtXahjrcTdCXgzUrr7Oc3Zf78kdcPFylGDZHvLq/eLEZi81oPgy2eWfdbLBgfXeDdxPUweXS4asI+hKwqtkFHlIbfUxd9V/6gXOTugW5NGw9v4l6XwLWFmQ/D7Z5N91MDe3KDRvcRIeWKVytbajD3QR9OVhds16MLpdLUa0M6ieUsWIwW1TGxB9k0YuwFkkvTzVLm0tKDJFuFCSl1KTa9WVy1as3ENFXBIsQcoGVlg6asaO1G0km2A5BHWA31AGwalkiSm8Ftu6j2wn6ArDEyjNalmWe5wghbzQe/Y9//MfxeFsJ0YhFidEqz3th1DjiqxDCSEnFOIuiSP9pknhRIqWCwLdJjHFKqedRm5TnLAwCvL6OsJGgUghRijAMIB0KpBCoAyBoI7A8ikJYEEKB7wDrUY82wSKEFFqxvAch6hCkRywIljFGPa8taA02D4OwDbZThw5BnBcYY9/3NtXhBrCS8eK2YHPGfM+nlIDdF2knqDGEMKXxfD6ZTBBC/x++lK7wmN3/IgAAAABJRU5ErkJggg==;" parent="1" vertex="1">
          <mxGeometry x="1025.61" y="595.75" width="68.78" height="68.5" as="geometry" />
        </mxCell>
        <mxCell id="VbF63WBLG-6_UuNDwzdS-50" value="Generated&lt;br&gt;Image" style="text;html=1;strokeColor=none;fillColor=none;align=center;verticalAlign=middle;whiteSpace=wrap;rounded=0;fontSize=15;" parent="1" vertex="1">
          <mxGeometry x="1005" y="270" width="110" height="40" as="geometry" />
        </mxCell>
        <mxCell id="VbF63WBLG-6_UuNDwzdS-51" value="Real&lt;br&gt;Image" style="text;html=1;strokeColor=none;fillColor=none;align=center;verticalAlign=middle;whiteSpace=wrap;rounded=0;fontSize=15;" parent="1" vertex="1">
          <mxGeometry x="1005" y="540" width="110" height="40" as="geometry" />
        </mxCell>
        <mxCell id="ncswdq3iyMAhteV6Wkyh-1" value="Fake" style="text;html=1;strokeColor=none;fillColor=none;align=center;verticalAlign=middle;whiteSpace=wrap;rounded=0;fontSize=15;" vertex="1" parent="1">
          <mxGeometry x="1415" y="350" width="110" height="30" as="geometry" />
        </mxCell>
        <mxCell id="ncswdq3iyMAhteV6Wkyh-2" value="\(x,y,\hat z\)" style="text;html=1;strokeColor=none;fillColor=none;align=center;verticalAlign=middle;whiteSpace=wrap;rounded=0;fontSize=15;" vertex="1" parent="1">
          <mxGeometry x="915.61" y="320" width="110" height="40" as="geometry" />
        </mxCell>
        <mxCell id="ncswdq3iyMAhteV6Wkyh-3" value="" style="edgeStyle=orthogonalEdgeStyle;rounded=1;orthogonalLoop=1;jettySize=auto;html=1;entryX=0;entryY=0.25;entryDx=0;entryDy=0;strokeWidth=2;fontSize=22;exitX=0.5;exitY=0;exitDx=0;exitDy=0;fillColor=#009682;fontColor=#FFFFFF;" edge="1" parent="1" source="ncswdq3iyMAhteV6Wkyh-4">
          <mxGeometry x="-0.0769" y="20" relative="1" as="geometry">
            <mxPoint as="offset" />
            <mxPoint x="440" y="340" as="sourcePoint" />
            <mxPoint x="560" y="209.5" as="targetPoint" />
            <Array as="points">
              <mxPoint x="440" y="210" />
            </Array>
          </mxGeometry>
        </mxCell>
        <mxCell id="ncswdq3iyMAhteV6Wkyh-5" style="edgeStyle=orthogonalEdgeStyle;rounded=1;orthogonalLoop=1;jettySize=auto;html=1;exitX=0.5;exitY=0;exitDx=0;exitDy=0;entryX=0;entryY=0.5;entryDx=0;entryDy=0;fontSize=22;fillColor=#009682;fontColor=#FFFFFF;strokeWidth=2;" edge="1" parent="1" source="ncswdq3iyMAhteV6Wkyh-4" target="VbF63WBLG-6_UuNDwzdS-2">
          <mxGeometry relative="1" as="geometry" />
        </mxCell>
        <mxCell id="ncswdq3iyMAhteV6Wkyh-7" style="edgeStyle=orthogonalEdgeStyle;shape=connector;rounded=1;orthogonalLoop=1;jettySize=auto;html=1;exitX=0.5;exitY=1;exitDx=0;exitDy=0;entryX=0;entryY=0.5;entryDx=0;entryDy=0;labelBackgroundColor=default;strokeColor=default;strokeWidth=2;fontFamily=Helvetica;fontSize=22;fontColor=#FFFFFF;endArrow=classic;fillColor=#009682;" edge="1" parent="1" source="ncswdq3iyMAhteV6Wkyh-4" target="VbF63WBLG-6_UuNDwzdS-6">
          <mxGeometry relative="1" as="geometry" />
        </mxCell>
        <mxCell id="ncswdq3iyMAhteV6Wkyh-8" style="edgeStyle=orthogonalEdgeStyle;shape=connector;rounded=1;orthogonalLoop=1;jettySize=auto;html=1;exitX=0.5;exitY=1;exitDx=0;exitDy=0;entryX=0;entryY=0.5;entryDx=0;entryDy=0;labelBackgroundColor=default;strokeColor=default;strokeWidth=2;fontFamily=Helvetica;fontSize=22;fontColor=#FFFFFF;endArrow=classic;fillColor=#009682;" edge="1" parent="1" source="ncswdq3iyMAhteV6Wkyh-4" target="VbF63WBLG-6_UuNDwzdS-8">
          <mxGeometry relative="1" as="geometry" />
        </mxCell>
        <mxCell id="ncswdq3iyMAhteV6Wkyh-4" value="\(P\)" style="ellipse;whiteSpace=wrap;html=1;aspect=fixed;fontSize=22;fillColor=none;fontColor=#000000;rounded=1;strokeWidth=2;" vertex="1" parent="1">
          <mxGeometry x="416" y="335" width="50" height="50" as="geometry" />
        </mxCell>
        <mxCell id="ncswdq3iyMAhteV6Wkyh-15" value="Generative&lt;br&gt;Algorithm (Q)" style="text;html=1;strokeColor=none;fillColor=none;align=center;verticalAlign=middle;whiteSpace=wrap;rounded=0;fontSize=15;" vertex="1" parent="1">
          <mxGeometry x="1280" y="90" width="110" height="40" as="geometry" />
        </mxCell>
        <mxCell id="ncswdq3iyMAhteV6Wkyh-16" value="\(\hat z\)" style="edgeStyle=orthogonalEdgeStyle;shape=connector;rounded=1;orthogonalLoop=1;jettySize=auto;html=1;exitX=1;exitY=0.5;exitDx=0;exitDy=0;labelBackgroundColor=none;strokeColor=default;strokeWidth=2;fontFamily=Helvetica;fontSize=15;fontColor=#000000;endArrow=classic;fillColor=#009682;" edge="1" parent="1" source="ncswdq3iyMAhteV6Wkyh-9">
          <mxGeometry y="20" relative="1" as="geometry">
            <mxPoint x="1528.34" y="190" as="targetPoint" />
            <mxPoint as="offset" />
          </mxGeometry>
        </mxCell>
        <mxCell id="ncswdq3iyMAhteV6Wkyh-9" value="" style="rounded=1;whiteSpace=wrap;html=1;fontSize=22;strokeWidth=2;fillColor=none;fontColor=#000000;verticalAlign=top;align=left;" vertex="1" parent="1">
          <mxGeometry x="1203.334693877551" y="140" width="275.00448979591835" height="100" as="geometry" />
        </mxCell>
        <mxCell id="ncswdq3iyMAhteV6Wkyh-10" value="\(W\)" style="rounded=1;whiteSpace=wrap;html=1;fontSize=18;strokeWidth=2;fillColor=#009682;fontColor=#FFFFFF;" vertex="1" parent="1">
          <mxGeometry x="1286.669387755102" y="156.66666666666666" width="41.667346938775516" height="66.66666666666666" as="geometry" />
        </mxCell>
        <mxCell id="ncswdq3iyMAhteV6Wkyh-11" value="\(S(x,y)\)" style="rounded=1;whiteSpace=wrap;html=1;fontSize=18;strokeWidth=2;fillColor=#009682;fontColor=#FFFFFF;" vertex="1" parent="1">
          <mxGeometry x="1336.6702040816326" y="156.66666666666666" width="75.00122448979592" height="66.66666666666666" as="geometry" />
        </mxCell>
        <mxCell id="ncswdq3iyMAhteV6Wkyh-12" value="\(W\)" style="rounded=1;whiteSpace=wrap;html=1;fontSize=18;strokeWidth=2;fillColor=#009682;fontColor=#FFFFFF;" vertex="1" parent="1">
          <mxGeometry x="1421.6715918367347" y="156.66666666666666" width="41.667346938775516" height="66.66666666666666" as="geometry" />
        </mxCell>
        <mxCell id="ncswdq3iyMAhteV6Wkyh-13" value="\(U(\hat p)\)" style="rounded=1;whiteSpace=wrap;html=1;fontSize=18;strokeWidth=2;fillColor=#009682;fontColor=#FFFFFF;" vertex="1" parent="1">
          <mxGeometry x="1220.0016326530613" y="156.66666666666666" width="58.33428571428572" height="66.66666666666666" as="geometry" />
        </mxCell>
        <mxCell id="ncswdq3iyMAhteV6Wkyh-18" value="\(\hat p, x, y\)" style="shape=connector;rounded=1;orthogonalLoop=1;jettySize=auto;html=1;labelBackgroundColor=none;strokeColor=default;strokeWidth=2;fontFamily=Helvetica;fontSize=15;fontColor=#000000;endArrow=classic;fillColor=#009682;" edge="1" parent="1">
          <mxGeometry y="20" relative="1" as="geometry">
            <mxPoint x="1203.334693877551" y="189.75833333333333" as="targetPoint" />
            <mxPoint x="1120" y="190" as="sourcePoint" />
            <mxPoint as="offset" />
          </mxGeometry>
        </mxCell>
      </root>
    </mxGraphModel>
  </diagram>
</mxfile>
